<?xml version="1.0" standalone="no"?>
<!DOCTYPE svg PUBLIC "-//W3C//DTD SVG 1.1//EN" "http://www.w3.org/Graphics/SVG/1.1/DTD/svg11.dtd" >
<svg xmlns="http://www.w3.org/2000/svg" xmlns:xlink="http://www.w3.org/1999/xlink" version="1.1">
<metadata></metadata>
<defs>
<font id="savatageregular" horiz-adv-x="1479" >
<font-face units-per-em="2048" ascent="1638" descent="-410" />
<missing-glyph horiz-adv-x="512" />
<glyph horiz-adv-x="0" />
<glyph unicode="&#xd;" horiz-adv-x="512" />
<glyph unicode=" "  horiz-adv-x="512" />
<glyph unicode="&#x09;" horiz-adv-x="512" />
<glyph unicode="&#xa0;" horiz-adv-x="512" />
<glyph unicode="@" horiz-adv-x="1143" d="M-408 384q-128 736 420 1136t1180 148t536 -988l-224 -328q-184 -8 -384 -192l-120 32q-208 40 -704 -216l-312 200q264 792 816 1160q208 -208 392 -312l-200 -176l-184 128q-320 -216 -424 -608q240 64 472 104l-32 128l272 88l64 -176q104 88 296 88q176 144 60 540 t-608 444t-804 -196t-348 -700t232 -696t864 -236t876 564l128 -112q-272 -656 -1204 -608t-1060 784zM248 296zM891 530zM892 529z" />
<glyph unicode="A" horiz-adv-x="1619" d="M-32 -336q47 1059 800 2459l168 213h440q-28 -286 -29 -568q0 -1144 469 -2216q-680 992 -736 1216q-175 76 -348 76q-119 0 -236 -36q40 160 104 240q91 14 220 15q86 0 188 -7q-73 167 -73 553q0 39 1 79q-229 -86 -968 -2024zM928 1344zM984 1336z" />
<glyph unicode="B" horiz-adv-x="2059" d="M-96 -424q47 1059 800 2459l168 213q102 23 217 23q202 0 447 -71q120 32 184 64q150 -308 150 -598q0 -298 -158 -578q448 -344 472 -1072q-296 -32 -472 -272q-193 131 -483 131q-346 0 -829 -187q-128 184 -264 400q449 156 821 156q391 0 699 -172q58 160 58 310 q0 307 -242 570q-112 33 -254 33q-271 0 -650 -121l224 360q213 82 429 82q205 0 411 -74q-72 640 -344 776q-14 7 -29 7q-53 0 -115 -87q-304 -368 -1240 -2352zM280 1704z" />
<glyph unicode="C" horiz-adv-x="1731" d="M-96 -136q48 958 791 2222l167 191q101 21 215 21q200 0 442 -64q388 -108 594 -446q-62 8 -115 8q-221 0 -265 -146q-159 275 -325 358l-72 -24q-472 -384 -786 -973q-306 -574 -306 -782v-10q509 143 1000 144q527 0 1035 -165q-162 13 -332 13q-894 0 -2043 -347z M280 1704z" />
<glyph unicode="D" horiz-adv-x="1915" d="M-277 -392q55 1052 972 2491l257 309h424q648 -744 712 -1472l72 -24q-503 -983 -1776 -1143l-587 -58l777 254q482 219 766 483t372 584q-176 584 -576 1040q-547 -488 -1413 -2464z" />
<glyph unicode="E" horiz-adv-x="1763" d="M-80 -216q47 976 791 2264l167 197q100 21 213 21q201 0 444 -66q388 -110 594 -456q-64 9 -117 9q-219 0 -263 -149q-158 280 -459 419q-15 7 -30 7q-52 0 -113 -79q-293 -339 -491 -767q478 164 702 163q69 0 114 -15q119 -170 229 -405q-218 135 -590 135 q-236 0 -534 -54q-159 -155 -388 -870q549 151 1064 151q540 0 1042 -166q-162 13 -335 13q-891 0 -2040 -352zM280 1704z" />
<glyph unicode="F" horiz-adv-x="1371" d="M-72 -272q47 1032 791 2320l167 197q100 21 213 21q201 0 444 -66q388 -110 594 -456q-64 9 -117 9q-219 0 -263 -149q-158 280 -459 419q-15 7 -30 7q-52 0 -113 -79q-293 -339 -491 -767q478 164 702 163q69 0 114 -15q119 -170 229 -405q-218 135 -590 135 q-236 0 -534 -54q-159 -155 -657 -1280zM280 1704zM504 -128z" />
<glyph unicode="G" horiz-adv-x="2191" d="M-128 298q498 1415 1541 2069q410 -312 819 -375q-75 -331 -75 -506q0 -110 29 -159l-482 24q-7 65 -7 129q0 168 47 324l-248 171q-856 -487 -1008 -1556q109 54 262 54q328 0 858 -251q123 264 123 509q0 41 -3 81q-89 12 -170 12q-208 0 -358 -80l-32 393 q400 -68 816 -77q122 -235 122 -744q0 -194 -18 -428q-639 142 -1073 142q-341 0 -555 -88zM891 530zM892 529z" />
<glyph unicode="H" horiz-adv-x="1843" d="M-200 -448q47 1059 800 2459l168 213l360 56q-344 -440 -464 -1008q195 54 368 54q237 0 432 -102q72 440 320 1024l368 16q-384 -616 -560 -2880q-199 975 -199 1359q0 171 39 225q-241 95 -499 95q-197 0 -405 -55q-128 -176 -728 -1456zM1040 640zM1040 656z" />
<glyph unicode="I" horiz-adv-x="547" d="M75 -496q57 1078 669 2512q80 240 208 360q56 -64 488 -80l-128 -112q-384 -400 -1237 -2680z" />
<glyph unicode="J" horiz-adv-x="747" d="M-1520 -728q1000 728 1680 960q68 222 680 1656q80 240 208 360q56 -64 488 -80l-128 -112q-384 -400 -597 -970l-426 -1140q-601 -34 -1905 -674z" />
<glyph unicode="K" horiz-adv-x="1683" d="M-181 -408q57 1078 669 2512q80 240 208 360q56 -64 488 -80l-128 -112q-384 -400 -608 -1008h56q584 552 840 664h568q-520 -240 -736 -424t-368 -368q568 -360 984 -1256q-232 -80 -352 -432q-328 1248 -1016 1648q-178 -364 -605 -1504z" />
<glyph unicode="L" horiz-adv-x="1427" d="M8 -527q76 1607 808 2647l488 120q-544 -491 -992 -2184q472 273 1035 273q459 0 979 -181q-150 31 -318 31q-797 0 -2000 -706z" />
<glyph unicode="M" horiz-adv-x="2059" d="M-144 -440q47 1059 800 2459l168 213l360 56q-90 -418 -90 -715q0 -255 66 -421q392 840 680 1104l368 16q-248 -728 -504 -2824q-150 551 -150 1089q0 493 126 975q-152 -176 -624 -1144q-241 368 -241 972q0 117 9 244q-229 -86 -968 -2024zM1040 640zM1040 656z" />
<glyph unicode="N" horiz-adv-x="1819" d="M-136 -264q46 957 733 2223l154 190l333 50q-42 -189 -42 -392q0 -546 304 -1192q85 865 340 1556l266 -44q-155 -597 -391 -2494q-659 928 -810 1933q-209 -78 -887 -1830zM1040 640zM1040 656z" />
<glyph unicode="O" horiz-adv-x="2231" d="M-24 315q427 1307 1333 1941q1062 -606 1062 -1470q0 -95 -13 -194q-414 -53 -738 -172q-259 -198 -1140 -436zM543 416q416 33 657 176q241 142 362 206q98 51 266 52q40 0 84 -3q-82 635 -618 858q-537 -429 -751 -1289zM886 788zM891 530zM892 529zM1368 656z M1376 648z" />
<glyph unicode="P" horiz-adv-x="1339" d="M-96 -424q80 1296 1056 2816q887 -92 887 -727q0 -247 -135 -577l-64 -176l-176 40q-116 34 -268 34q-280 0 -684 -114q608 456 945 456q89 0 159 -32q-64 576 -336 712q-14 7 -29 7q-53 0 -115 -87q-304 -368 -1240 -2352zM288 1848z" />
<glyph unicode="Q" horiz-adv-x="2191" d="M32 325q364 1285 1136 1906q904 -595 904 -1444q0 -93 -11 -189l-331 -182q462 -224 862 -784q-664 472 -1226 602q-154 0 -904 -233zM528 496q361 30 571.5 163t315.5 191q84 47 226 47q37 0 77 -3q-70 589 -537 795q-467 -398 -653 -1193zM886 788zM891 530zM892 529z M1368 656zM1376 648z" />
<glyph unicode="R" horiz-adv-x="1723" d="M-96 -432q47 1059 800 2459l208 349q840 -56 948 -544q34 -151 34 -297q0 -323 -166 -615q-78 57 -162 57q-46 0 -94 -17q224 -280 336 -976q-392 -40 -472 -256q19 186 19 352q0 548 -203 880q-2 25 -65 25q-138 0 -567 -121l120 208q459 260 761 260q125 0 223 -44 q-64 576 -336 712q-14 7 -29 7q-53 0 -115 -87q-304 -368 -1240 -2352zM280 1704z" />
<glyph unicode="S" horiz-adv-x="1731" d="M-680 -560q1341 1085 1764 1228q-157 448 -883 1280q806 414 1679 414q42 0 85 -1q65 -194 65 -440q0 -30 -1 -61l-276 -109l-109 273q-552 -53 -782 -328q598 -733 837 -1215l-130 -252q-13 1 -28 1q-376 0 -2221 -790z" />
<glyph unicode="T" horiz-adv-x="1155" d="M-536 1762q352 372 1840 493l203 231q53 -231 255 -258q208 18 471 18t582 -18q-425 -205 -489 -420q-309 103 -617 121q-667 -531 -1650 -2649q63 1158 1065 2687q-194 13 -376 13q-753 0 -1284 -218z" />
<glyph unicode="U" horiz-adv-x="1655" d="M32 411q151 1226 890 2212q-470 -1182 -470 -1865q0 -227 52 -398q384 144 584 168q176 696 512 1432q101 -121 231 -121q76 0 161 41q-496 -520 -559 -1943l-402 132v119q-206 0 -424 -238q-326 158 -575 461zM808 976zM896 1008zM907 2226zM908 2225z" />
<glyph unicode="V" horiz-adv-x="995" d="M-24 2040q16 -5 35 -5q132 0 402 243q-136 -615 -136 -1109q0 -514 147 -897q816 1512 1935 2200q-823 -928 -1219 -1640t-444 -904q-208 -24 -283 -169q-461 797 -461 1810q0 230 24 471z" />
<glyph unicode="W" horiz-adv-x="1907" d="M16 2080q24 -18 58 -18q150 0 502 346q-280 -672 -280 -1279q0 -398 120 -769q152 792 648 1032q-10 -59 -10 -121q0 -132 46 -279q68 -216 292 -648q168 512 524 1148t940 1140q-464 -568 -800 -1432t-392 -1136q-216 -56 -328 -224q-288 320 -480 1280 q-169 -429 -169 -853q0 -98 9 -195q-256 -88 -344 -352q-375 786 -375 1733q0 305 39 627z" />
<glyph unicode="X" horiz-adv-x="1459" d="M-88 -440q208 1016 600 1616q-176 384 -368 800q160 48 424 280q16 -384 208 -760q328 448 552 688q304 -176 408 -240q-552 -408 -816 -784q280 -568 1064 -1728q-680 416 -1280 1424q-224 -288 -792 -1296zM432 1952zM936 880zM952 856z" />
<glyph unicode="Y" horiz-adv-x="1003" d="M40 2128q76 0 316 255q36 -1015 468 -1359q368 784 584 1080q9 -10 31 -10q101 0 481 210q-560 -872 -804 -1316t-947 -1868q255 1080 599 1784q-715 507 -728 1224z" />
<glyph unicode="Z" horiz-adv-x="1363" d="M-40 1871l329 -23v225q241 45 390 45q205 0 233 -86q-512 -752 -937 -1684l-7 -397q358 47 756 47q799 0 1762 -190q-1256 507 -1985 507q-112 0 -212 -12q696 1245 1378 1875q-530 180 -1062 180q-242 0 -484 -37q-131 -195 -161 -450z" />
<glyph unicode="a" horiz-adv-x="1143" d="M-32 184q264 792 816 1160q208 -208 392 -312l-200 -176l-184 128q-320 -216 -424 -608q240 64 472 104l-32 128l272 88l64 -176q104 88 296 88l48 -248q-184 -8 -384 -192l-120 32q-28 5 -61 5q-214 0 -643 -221zM248 296zM891 530zM892 529z" />
<glyph unicode="b" horiz-adv-x="1247" d="M-64 176q168 944 768 1992h384q-312 -448 -512 -888l152 48q232 -200 488 -296q90 -161 90 -338q0 -185 -98 -390q-136 -104 -288 -120q-28 8 -64 8q-191 0 -608 -216zM336 368q240 96 416 120q257 38 257 290q0 15 -1 30l-328 216q-240 -264 -344 -656zM360 760z M859 522zM860 521zM1024 936zM1032 928z" />
<glyph unicode="c" horiz-adv-x="1247" d="M-64 176q264 792 816 1160q208 -208 552 -384q-288 -8 -392 -96l-152 120q-320 -216 -424 -608q240 96 472 104q416 56 480 160v-312q-2 3 -8 3q-36 0 -208 -123l-152 -16q-28 8 -64 8q-191 0 -608 -216zM360 760zM859 522zM860 521z" />
<glyph unicode="d" horiz-adv-x="1183" d="M-24 208q264 792 816 1160q144 -136 216 -184q224 704 448 1040h344q-440 -680 -768 -2192l-312 -16l8 80q-32 4 -67 4q-162 0 -373 -92zM400 360q222 128 404 136l68 176l56 304q-446 -192 -528 -616zM891 530zM892 529zM1208 696zM1216 688z" />
<glyph unicode="e" horiz-adv-x="1247" d="M-64 176q264 792 816 1160q208 -208 552 -384q-184 -128 -304 -296l-288 32l200 168l-152 120q-320 -216 -424 -608q240 96 472 104q416 56 480 160v-312q-2 3 -8 3q-36 0 -208 -123l-152 -16q-28 8 -64 8q-191 0 -608 -216zM360 760zM859 522zM860 521z" />
<glyph unicode="f" horiz-adv-x="867" d="M-192 720q192 152 544 176q168 424 408 904q313 328 648 328h16q126 -18 297 -18q57 0 119 2q-56 -200 -200 -384q-250 136 -421 136h-19q-320 -520 -504 -1008q156 22 291 22q109 0 205 -14q-174 -154 -174 -252q0 -19 6 -36q-288 72 -440 72q-208 -256 -720 -1824 q25 1016 400 1888q-71 22 -204 22q-106 0 -252 -14z" />
<glyph unicode="g" horiz-adv-x="1359" d="M-72 -1088q648 496 872 600q8 328 104 576q-37 7 -79 7q-146 0 -345 -87l-312 200q264 792 816 1160q216 -176 512 -288q-113 -175 -113 -258q0 -22 9 -38l-320 -16l32 216q-432 -192 -512 -616q216 128 392 136l104 168l336 -32q-200 -240 -304 -1320 q-400 -56 -1192 -408zM891 530zM892 529z" />
<glyph unicode="h" horiz-adv-x="1423" d="M-40 48q120 408 352 932t1000 1452q-536 -1040 -640 -1416h21q187 0 339 136q240 -96 424 -280q-112 -744 -656 -1344q270 790 270 1172q0 59 -6 108q-277 -90 -380 -90q-16 0 -28 2q-256 -304 -312 -720q-83 83 -206 83q-81 0 -178 -35zM508 -249zM509 -250zM520 968z M608 1000z" />
<glyph unicode="i" horiz-adv-x="507" d="M-32 8q184 680 416 1176h264q-144 -216 -384 -1176h-296zM400 1256h240q64 104 160 224h-288q-56 -96 -112 -224z" />
<glyph unicode="j" horiz-adv-x="503" d="M-928 -1096q648 496 872 600q80 216 112 540t216 980h312q-240 -648 -320 -1712q-400 -56 -1192 -408zM288 1104q32 96 88 176h304q-48 -80 -64 -184zM891 530zM892 529z" />
<glyph unicode="k" horiz-adv-x="1211" d="M-181 -439q48 834 861 2551h392q-480 -816 -616 -1272q296 320 640 560h432q-368 -232 -520 -380t-272 -332q368 -88 711 -904q-192 -63 -291 -336q-271 968 -772 1136q-200 -160 -565 -1023z" />
<glyph unicode="l" horiz-adv-x="499" d="M0 -23q47 838 784 2191h368q-656 -1034 -864 -2048z" />
<glyph unicode="m" horiz-adv-x="1739" d="M40 -35q39 555 634 1288l133 111l288 29q-53 -174 -53 -299q0 -116 46 -190q280 376 512 520l308 -39q-204 -272 -205 -651q0 -281 113 -622q-240 -32 -344 -120q-101 283 -101 529q0 164 45 311q-5 7 -15 7q-75 0 -409 -450q-217 216 -217 525q0 19 1 38 q-160 -176 -336 -872q-29 2 -56 2q-223 0 -344 -117zM1040 640zM1040 656z" />
<glyph unicode="n" horiz-adv-x="1347" d="M24 28q30 627 496 1244l56 88h328q0 -288 168 -688q38 498 144 680h352q-203 -150 -280 -1296h-288q-256 512 -312 880q-8 2 -16 2q-188 0 -288 -898q-140 53 -229 53q-97 0 -131 -65zM1040 640zM1040 680z" />
<glyph unicode="o" horiz-adv-x="1399" d="M-24 184q264 792 824 1176q656 -368 656 -891q0 -58 -8 -117q-256 -32 -456 -104q-160 -120 -704 -264zM344 336q248 16 392 88t216 104q58 26 156 26q25 0 52 -2q-48 320 -368 432q-320 -216 -448 -648zM886 788zM891 530zM892 529zM1368 656zM1376 648z" />
<glyph unicode="p" horiz-adv-x="1283" d="M-248 -920q37 778 752 1962l128 174q472 -40 620 -330q56 -110 56 -237q0 -207 -151 -459l-50 -129l-137 29q-91 25 -210 25q-217 0 -530 -83q473 334 735 334q69 0 124 -23q-50 423 -262 522q-11 5 -23 5q-40 0 -89 -63q-236 -270 -963 -1727zM280 1704z" />
<glyph unicode="q" horiz-adv-x="1359" d="M64 200q264 792 816 1160q216 -176 432 -272q-88 -224 -160 -484t-160 -1332q-152 -80 -392 -384q201 879 201 1154q0 21 -1 38q-37 7 -79 7q-146 0 -345 -87zM360 360q216 128 400 144l56 264l56 208q-432 -192 -512 -616zM891 530zM892 529zM1056 1000z" />
<glyph unicode="r" horiz-adv-x="775" d="M-32 184q304 768 352 928q-15 52 -15 94q0 67 39 106l256 72l-40 -168l224 128q208 -208 392 -312l-200 -176l-184 128q-320 -216 -424 -608l-48 -160l-40 -232zM248 296zM891 530zM892 529z" />
<glyph unicode="s" horiz-adv-x="1123" d="M-256 -56q688 552 960 704q-48 136 -504 472q557 327 1091 328q16 0 32 -1q44 -113 77 -295l-216 -104l-48 144q-50 5 -94 5q-257 0 -346 -157q360 -232 544 -456l-153 -233q-263 -31 -1343 -407z" />
<glyph unicode="t" horiz-adv-x="867" d="M-536 1762q352 372 1840 493l203 231q53 -231 255 -258q208 18 471 18t582 -18q-425 -205 -489 -420q-309 103 -617 121q-667 -531 -1650 -2649q63 1158 1065 2687q-194 13 -376 13q-753 0 -1284 -218z" />
<glyph unicode="u" horiz-adv-x="1199" d="M-16 312q112 744 656 1344q-270 -790 -270 -1172q0 -59 6 -108q277 90 380 90q16 0 28 -2q88 392 312 720q83 -83 206 -83q80 0 178 35q-172 -224 -464 -1112l-296 80v72q-151 0 -312 -144q-240 96 -424 280zM808 976zM896 1008zM907 2226zM908 2225z" />
<glyph unicode="v" horiz-adv-x="763" d="M-80 1288q58 -13 113 -13q83 0 159 29q256 -536 288 -720q112 184 208 500t192 468l248 -96q-16 -160 -164 -496t-284 -552t-320 -392q-112 432 -440 1272zM-76 829zM-75 828zM920 952z" />
<glyph unicode="w" horiz-adv-x="1251" d="M-76 829zM-75 828zM16 1176q152 8 280 80q16 -528 120 -672q136 384 336 568q48 -304 232 -560q128 312 272 600q192 32 360 80q-368 -576 -496 -1240q-344 288 -432 584q-144 -240 -264 -600q-336 360 -408 1160zM1240 1712z" />
<glyph unicode="x" horiz-adv-x="995" d="M0 -152q119 742 288 912q-208 288 -232 488q116 73 259 73q14 0 29 -1q8 -112 128 -312q80 160 312 312l368 -88q-352 -224 -520 -472q224 -456 656 -864q-464 104 -846 631q-162 -127 -442 -679z" />
<glyph unicode="y" horiz-adv-x="1215" d="M-192 -928q352 200 736 384q16 120 240 728q-151 -8 -312 -152q-240 96 -424 280q112 744 656 1344q-270 -790 -270 -1172q0 -59 6 -108q277 90 380 90q16 0 28 -2q88 392 312 720q83 -83 206 -83q81 0 178 35q-172 -224 -410 -740t-430 -1212q-65 8 -142 8 q-292 0 -754 -120zM808 976zM896 1008zM907 2226zM908 2225z" />
<glyph unicode="z" horiz-adv-x="1051" d="M0 80q64 8 139 8q503 0 1500 -368q-800 558 -1103 624q143 238 696 856q-345 74 -663 75q-264 0 -509 -52q-40 -101 -40 -230q0 -15 1 -29l165 -56l66 140q100 12 187 12q208 0 337 -68q-408 -432 -648 -656z" />
<glyph unicode="&#xc0;" d="M14 -336q47 1059 800 2459l168 213h440q-144 -1448 440 -2784q-680 992 -736 1216q-296 128 -584 40q40 160 104 240q152 24 408 8q-80 184 -72 632q-229 -86 -968 -2024zM471 1949h223l106 -345h-35zM974 1344zM1030 1336z" />
<glyph unicode="&#xc1;" d="M16 -336q47 1059 800 2459l168 213h440q-144 -1448 440 -2784q-680 992 -736 1216q-296 128 -584 40q40 160 104 240q152 24 408 8q-80 184 -72 632q-229 -86 -968 -2024zM976 1344zM1032 1336zM1046 1756l105 345h224l-295 -345h-34z" />
<glyph unicode="&#xc2;" d="M14 -336q47 1059 800 2459l168 213h440q-144 -1448 440 -2784q-680 992 -736 1216q-296 128 -584 40q40 160 104 240q152 24 408 8q-80 184 -72 632q-229 -86 -968 -2024zM788 1734l189 331h184l190 -331h-31l-273 213l-229 -213h-30zM974 1344zM1030 1336z" />
<glyph unicode="&#xc3;" d="M14 -336q47 1059 800 2459l168 213h440q-144 -1448 440 -2784q-680 992 -736 1216q-296 128 -584 40q40 160 104 240q152 24 408 8q-80 184 -72 632q-229 -86 -968 -2024zM767 1849q4 137 57 198t131 61q41 0 75 -13q45 -17 127.5 -71.5t122.5 -54.5q32 0 56.5 27 t38.5 112h31q1 -93 -24.5 -147.5t-72 -85t-93.5 -30.5q-79 0 -196 80q-63 43 -85 52t-43 9q-41 0 -65 -36q-11 -17 -28 -101h-32zM974 1344zM1030 1336z" />
<glyph unicode="&#xc4;" d="M14 -336q47 1059 800 2459l168 213h440q-144 -1448 440 -2784q-680 992 -736 1216q-296 128 -584 40q40 160 104 240q152 24 408 8q-80 184 -72 632q-229 -86 -968 -2024zM696 1975q0 45 31.5 77t76.5 32q46 0 77.5 -32t31.5 -77t-32 -76.5t-76 -31.5q-45 0 -77 31.5 t-32 76.5zM974 1344zM1030 1336zM1064 1967q0 45 32 77t77 32t76.5 -32t31.5 -77t-31.5 -76.5t-76.5 -31.5t-77 31.5t-32 76.5z" />
<glyph unicode="&#xc5;" d="M14 -336q47 1059 800 2459l168 213h440q-144 -1448 440 -2784q-680 992 -736 1216q-296 128 -584 40q40 160 104 240q152 24 408 8q-80 184 -72 632q-229 -86 -968 -2024zM586 1510q0 79 55.5 135t135.5 56t136 -56t56 -135q0 -80 -56 -136t-136 -56q-79 0 -135 56 t-56 136zM655 1510q0 -50 35.5 -86t86.5 -36t86.5 36t35.5 86q0 51 -35.5 86.5t-86.5 35.5t-86.5 -35.5t-35.5 -86.5zM974 1344zM1030 1336z" />
<glyph unicode="&#xc7;" horiz-adv-x="1366" d="M74 -136q48 958 791 2222l167 191q277 57 657 -43q388 -108 594 -446q-325 43 -380 -138q-159 275 -325 358l-72 -24q-472 -384 -786 -973t-306 -792q1053 297 2035 -21q-1006 79 -2375 -334zM450 1704zM734 -252q28 -4 48 -4q51 0 86 33.5t35 76.5q0 30 -23 52t-57 22 q-10 0 -26 -2l111 178h60l-50 -79q63 -16 94 -54t31 -92q0 -72 -60 -126.5t-155 -54.5q-37 0 -94 7v43z" />
<glyph unicode="&#xc8;" horiz-adv-x="1251" d="M42 -216q47 976 791 2264l167 197q277 58 657 -45q388 -110 594 -456q-325 45 -380 -140q-158 280 -459 419q-64 30 -143 -72q-293 -339 -491 -767q626 214 816 148q119 -170 229 -405q-356 221 -1124 81q-159 -155 -388 -870q1124 310 2106 -15q-1005 81 -2375 -339z M402 1704zM440 1949h223l106 -345h-35z" />
<glyph unicode="&#xc9;" horiz-adv-x="1251" d="M42 -216q47 976 791 2264l167 197q277 58 657 -45q388 -110 594 -456q-325 45 -380 -140q-158 280 -459 419q-64 30 -143 -72q-293 -339 -491 -767q626 214 816 148q119 -170 229 -405q-356 221 -1124 81q-159 -155 -388 -870q1124 310 2106 -15q-1005 81 -2375 -339z M402 1704zM1014 1756l105 345h224l-295 -345h-34z" />
<glyph unicode="&#xca;" horiz-adv-x="1251" d="M42 -216q47 976 791 2264l167 197q277 58 657 -45q388 -110 594 -456q-325 45 -380 -140q-158 280 -459 419q-64 30 -143 -72q-293 -339 -491 -767q626 214 816 148q119 -170 229 -405q-356 221 -1124 81q-159 -155 -388 -870q1124 310 2106 -15q-1005 81 -2375 -339z M402 1704zM758 1734l189 331h184l190 -331h-31l-273 213l-229 -213h-30z" />
<glyph unicode="&#xcb;" horiz-adv-x="1251" d="M42 -216q47 976 791 2264l167 197q277 58 657 -45q388 -110 594 -456q-325 45 -380 -140q-158 280 -459 419q-64 30 -143 -72q-293 -339 -491 -767q626 214 816 148q119 -170 229 -405q-356 221 -1124 81q-159 -155 -388 -870q1124 310 2106 -15q-1005 81 -2375 -339z M402 1704zM666 1975q0 45 31.5 77t76.5 32q46 0 77.5 -32t31.5 -77t-32 -76.5t-76 -31.5q-45 0 -77 31.5t-32 76.5zM1034 1967q0 45 32 77t77 32t76.5 -32t31.5 -77t-31.5 -76.5t-76.5 -31.5t-77 31.5t-32 76.5z" />
<glyph unicode="&#xcc;" horiz-adv-x="682" d="M50 1949h223l106 -345h-35zM94 -496q57 1078 669 2512q80 240 208 360q56 -64 488 -80l-128 -112q-384 -400 -1237 -2680z" />
<glyph unicode="&#xcd;" horiz-adv-x="682" d="M51 -496q57 1078 669 2512q80 240 208 360q56 -64 488 -80l-128 -112q-384 -400 -1237 -2680zM580 1756l105 345h224l-295 -345h-34z" />
<glyph unicode="&#xce;" horiz-adv-x="682" d="M50 -496q57 1078 669 2512q80 240 208 360q56 -64 488 -80l-128 -112q-384 -400 -1237 -2680zM323 1734l189 331h184l190 -331h-31l-273 213l-229 -213h-30z" />
<glyph unicode="&#xcf;" horiz-adv-x="682" d="M50 -496q57 1078 669 2512q80 240 208 360q56 -64 488 -80l-128 -112q-384 -400 -1237 -2680zM231 1975q0 45 31.5 77t76.5 32q46 0 77.5 -32t31.5 -77t-32 -76.5t-76 -31.5q-45 0 -77 31.5t-32 76.5zM599 1967q0 45 32 77t77 32t76.5 -32t31.5 -77t-31.5 -76.5 t-76.5 -31.5t-77 31.5t-32 76.5z" />
<glyph unicode="&#xd1;" d="M-27 -264q46 957 733 2223l154 190l333 50q-155 -698 262 -1584q85 865 340 1556l266 -44q-155 -597 -391 -2494q-659 928 -810 1933q-209 -78 -887 -1830zM829 1849q4 137 57 198t131 61q41 0 75 -13q45 -17 127.5 -71.5t122.5 -54.5q32 0 56.5 27t38.5 112h31 q1 -93 -24.5 -147.5t-72 -85t-93.5 -30.5q-79 0 -196 80q-63 43 -85 52t-43 9q-41 0 -65 -36q-11 -17 -28 -101h-32zM1149 640zM1149 656z" />
<glyph unicode="&#xd2;" d="M72 315q427 1307 1333 1941q1179 -673 1049 -1664q-414 -53 -738 -172q-259 -198 -1140 -436zM519 1949h223l106 -345h-35zM639 416q416 33 657 176t362 206.5t350 48.5q-82 635 -618 858q-537 -429 -751 -1289zM982 788zM987 530zM988 529zM1464 656zM1472 648z" />
<glyph unicode="&#xd3;" d="M72 315q427 1307 1333 1941q1179 -673 1049 -1664q-414 -53 -738 -172q-259 -198 -1140 -436zM639 416q416 33 657 176t362 206.5t350 48.5q-82 635 -618 858q-537 -429 -751 -1289zM982 788zM987 530zM988 529zM1092 1756l105 345h224l-295 -345h-34zM1464 656z M1472 648z" />
<glyph unicode="&#xd4;" d="M72 315q427 1307 1333 1941q1179 -673 1049 -1664q-414 -53 -738 -172q-259 -198 -1140 -436zM639 416q416 33 657 176t362 206.5t350 48.5q-82 635 -618 858q-537 -429 -751 -1289zM836 1734l189 331h184l190 -331h-31l-273 213l-229 -213h-30zM982 788zM987 530z M988 529zM1464 656zM1472 648z" />
<glyph unicode="&#xd5;" d="M72 315q427 1307 1333 1941q1179 -673 1049 -1664q-414 -53 -738 -172q-259 -198 -1140 -436zM639 416q416 33 657 176t362 206.5t350 48.5q-82 635 -618 858q-537 -429 -751 -1289zM814 1849q4 137 57 198t131 61q41 0 75 -13q45 -17 127.5 -71.5t122.5 -54.5 q32 0 56.5 27t38.5 112h31q1 -93 -24.5 -147.5t-72 -85t-93.5 -30.5q-79 0 -196 80q-63 43 -85 52t-43 9q-41 0 -65 -36q-11 -17 -28 -101h-32zM982 788zM987 530zM988 529zM1464 656zM1472 648z" />
<glyph unicode="&#xd6;" d="M72 315q427 1307 1333 1941q1179 -673 1049 -1664q-414 -53 -738 -172q-259 -198 -1140 -436zM639 416q416 33 657 176t362 206.5t350 48.5q-82 635 -618 858q-537 -429 -751 -1289zM744 1975q0 45 31.5 77t76.5 32q46 0 77.5 -32t31.5 -77t-32 -76.5t-76 -31.5 q-45 0 -77 31.5t-32 76.5zM982 788zM987 530zM988 529zM1112 1967q0 45 32 77t77 32t76.5 -32t31.5 -77t-31.5 -76.5t-76.5 -31.5t-77 31.5t-32 76.5zM1464 656zM1472 648z" />
<glyph unicode="&#xd9;" d="M11 411q151 1226 890 2212q-626 -1575 -418 -2263q384 144 584 168q176 696 512 1432q160 -192 392 -80q-496 -520 -559 -1943l-402 132v119q-206 0 -424 -238q-326 158 -575 461zM453 1949h223l106 -345h-35zM787 976zM875 1008zM886 2226zM887 2225z" />
<glyph unicode="&#xda;" d="M11 411q151 1226 890 2212q-626 -1575 -418 -2263q384 144 584 168q176 696 512 1432q160 -192 392 -80q-496 -520 -559 -1943l-402 132v119q-206 0 -424 -238q-326 158 -575 461zM787 976zM875 1008zM886 2226zM887 2225zM978 1756l105 345h224l-295 -345h-34z" />
<glyph unicode="&#xdb;" d="M11 411q151 1226 890 2212q-626 -1575 -418 -2263q384 144 584 168q176 696 512 1432q160 -192 392 -80q-496 -520 -559 -1943l-402 132v119q-206 0 -424 -238q-326 158 -575 461zM769 1734l189 331h184l190 -331h-31l-273 213l-229 -213h-30zM787 976zM875 1008z M886 2226zM887 2225z" />
<glyph unicode="&#xdc;" d="M11 411q151 1226 890 2212q-626 -1575 -418 -2263q384 144 584 168q176 696 512 1432q160 -192 392 -80q-496 -520 -559 -1943l-402 132v119q-206 0 -424 -238q-326 158 -575 461zM678 1975q0 45 31.5 77t76.5 32q46 0 77.5 -32t31.5 -77t-32 -76.5t-76 -31.5 q-45 0 -77 31.5t-32 76.5zM787 976zM875 1008zM886 2226zM887 2225zM1046 1967q0 45 32 77t77 32t76.5 -32t31.5 -77t-31.5 -76.5t-76.5 -31.5t-77 31.5t-32 76.5z" />
<glyph unicode="&#xdd;" d="M19 2128q76 0 316 255q36 -1015 468 -1359q368 784 584 1080q49 -56 512 200q-560 -872 -804 -1316t-947 -1868q255 1080 599 1784q-715 507 -728 1224zM1014 1756l105 345h224l-295 -345h-34z" />
<glyph unicode="&#xe0;" horiz-adv-x="909" d="M73 184q264 792 816 1160q208 -208 392 -312l-200 -176l-184 128q-320 -216 -424 -608q240 64 472 104l-32 128l272 88l64 -176q104 88 296 88l48 -248q-184 -8 -384 -192l-120 32q-208 40 -704 -216zM277 1542h223l106 -345h-35zM353 296zM996 530zM997 529z" />
<glyph unicode="&#xe1;" horiz-adv-x="909" d="M73 184q264 792 816 1160q208 -208 392 -312l-200 -176l-184 128q-320 -216 -424 -608q240 64 472 104l-32 128l272 88l64 -176q104 88 296 88l48 -248q-184 -8 -384 -192l-120 32q-208 40 -704 -216zM353 296zM826 1349l105 345h224l-295 -345h-34zM996 530zM997 529z " />
<glyph unicode="&#xe2;" horiz-adv-x="909" d="M73 184q264 792 816 1160q208 -208 392 -312l-200 -176l-184 128q-320 -216 -424 -608q240 64 472 104l-32 128l272 88l64 -176q104 88 296 88l48 -248q-184 -8 -384 -192l-120 32q-208 40 -704 -216zM353 296zM570 1326l189 331h184l190 -331h-31l-273 213l-229 -213 h-30zM996 530zM997 529z" />
<glyph unicode="&#xe3;" horiz-adv-x="909" d="M73 184q264 792 816 1160q208 -208 392 -312l-200 -176l-184 128q-320 -216 -424 -608q240 64 472 104l-32 128l272 88l64 -176q104 88 296 88l48 -248q-184 -8 -384 -192l-120 32q-208 40 -704 -216zM353 296zM548 1481q4 137 57 198t131 61q41 0 75 -13 q45 -17 127.5 -71.5t122.5 -54.5q32 0 56.5 27t38.5 112h31q1 -93 -24.5 -147.5t-72 -85t-93.5 -30.5q-79 0 -196 80q-63 43 -85 52t-43 9q-41 0 -65 -36q-11 -17 -28 -101h-32zM996 530zM997 529z" />
<glyph unicode="&#xe4;" horiz-adv-x="909" d="M73 184q264 792 816 1160q208 -208 392 -312l-200 -176l-184 128q-320 -216 -424 -608q240 64 472 104l-32 128l272 88l64 -176q104 88 296 88l48 -248q-184 -8 -384 -192l-120 32q-208 40 -704 -216zM353 296zM478 1604q0 45 31.5 77t76.5 32q46 0 77.5 -32t31.5 -77 t-32 -76.5t-76 -31.5q-45 0 -77 31.5t-32 76.5zM846 1596q0 45 32 77t77 32t76.5 -32t31.5 -77t-31.5 -76.5t-76.5 -31.5t-77 31.5t-32 76.5zM996 530zM997 529z" />
<glyph unicode="&#xe5;" horiz-adv-x="909" d="M73 184q264 792 816 1160q208 -208 392 -312l-200 -176l-184 128q-320 -216 -424 -608q240 64 472 104l-32 128l272 88l64 -176q104 88 296 88l48 -248q-184 -8 -384 -192l-120 32q-208 40 -704 -216zM353 296zM372 1235q0 79 55.5 135t135.5 56t136 -56t56 -135 q0 -80 -56 -136t-136 -56q-79 0 -135 56t-56 136zM441 1235q0 -50 35.5 -86t86.5 -36t86.5 36t35.5 86q0 51 -35.5 86.5t-86.5 35.5t-86.5 -35.5t-35.5 -86.5zM996 530zM997 529z" />
<glyph unicode="&#xe7;" horiz-adv-x="909" d="M70 176q264 792 816 1160q208 -208 552 -384q-288 -8 -392 -96l-152 120q-320 -216 -424 -608q240 96 472 104q416 56 480 160v-312q-16 24 -216 -120l-152 -16q-176 48 -672 -208zM470 -252q28 -4 48 -4q51 0 86 33.5t35 76.5q0 30 -23 52t-57 22q-10 0 -26 -2l111 178 h60l-50 -79q63 -16 94 -54t31 -92q0 -72 -60 -126.5t-155 -54.5q-37 0 -94 7v43zM494 760zM993 522zM994 521z" />
<glyph unicode="&#xe8;" horiz-adv-x="909" d="M76 176q264 792 816 1160q208 -208 552 -384q-184 -128 -304 -296l-288 32l200 168l-152 120q-320 -216 -424 -608q240 96 472 104q416 56 480 160v-312q-16 24 -216 -120l-152 -16q-176 48 -672 -208zM337 1542h223l106 -345h-35zM500 760zM999 522zM1000 521z" />
<glyph unicode="&#xe9;" horiz-adv-x="909" d="M76 176q264 792 816 1160q208 -208 552 -384q-184 -128 -304 -296l-288 32l200 168l-152 120q-320 -216 -424 -608q240 96 472 104q416 56 480 160v-312q-16 24 -216 -120l-152 -16q-176 48 -672 -208zM500 760zM874 1349l105 345h224l-295 -345h-34zM999 522zM1000 521z " />
<glyph unicode="&#xea;" horiz-adv-x="909" d="M76 176q264 792 816 1160q208 -208 552 -384q-184 -128 -304 -296l-288 32l200 168l-152 120q-320 -216 -424 -608q240 96 472 104q416 56 480 160v-312q-16 24 -216 -120l-152 -16q-176 48 -672 -208zM500 760zM642 1326l189 331h184l190 -331h-31l-273 213l-229 -213 h-30zM999 522zM1000 521z" />
<glyph unicode="&#xeb;" horiz-adv-x="909" d="M76 176q264 792 816 1160q208 -208 552 -384q-184 -128 -304 -296l-288 32l200 168l-152 120q-320 -216 -424 -608q240 96 472 104q416 56 480 160v-312q-16 24 -216 -120l-152 -16q-176 48 -672 -208zM500 760zM550 1603q0 45 31.5 77t76.5 32q46 0 77.5 -32t31.5 -77 t-32 -76.5t-76 -31.5q-45 0 -77 31.5t-32 76.5zM918 1595q0 45 32 77t77 32t76.5 -32t31.5 -77t-31.5 -76.5t-76.5 -31.5t-77 31.5t-32 76.5zM999 522zM1000 521z" />
<glyph unicode="&#xf1;" horiz-adv-x="1024" d="M12 28q30 627 496 1244l56 88h328q0 -288 168 -688q38 498 144 680h352q-203 -150 -280 -1296h-288q-256 512 -312 880q-200 40 -304 -896q-296 112 -360 -12zM485 1481q4 137 57 198t131 61q41 0 75 -13q45 -17 127.5 -71.5t122.5 -54.5q32 0 56.5 27t38.5 112h31 q1 -93 -24.5 -147.5t-72 -85t-93.5 -30.5q-79 0 -196 80q-63 43 -85 52t-43 9q-41 0 -65 -36q-11 -17 -28 -101h-32zM1028 640zM1028 680z" />
<glyph unicode="&#xf2;" horiz-adv-x="1024" d="M69 184q264 792 824 1176q728 -408 648 -1008q-256 -32 -456 -104q-160 -120 -704 -264zM306 1542h223l106 -345h-35zM437 336q248 16 392 88t216 104t208 24q-48 320 -368 432q-320 -216 -448 -648zM979 788zM984 530zM985 529zM1461 656zM1469 648z" />
<glyph unicode="&#xf3;" horiz-adv-x="1024" d="M69 184q264 792 824 1176q728 -408 648 -1008q-256 -32 -456 -104q-160 -120 -704 -264zM437 336q248 16 392 88t216 104t208 24q-48 320 -368 432q-320 -216 -448 -648zM855 1349l105 345h224l-295 -345h-34zM979 788zM984 530zM985 529zM1461 656zM1469 648z" />
<glyph unicode="&#xf4;" horiz-adv-x="1024" d="M69 184q264 792 824 1176q728 -408 648 -1008q-256 -32 -456 -104q-160 -120 -704 -264zM437 336q248 16 392 88t216 104t208 24q-48 320 -368 432q-320 -216 -448 -648zM623 1326l189 331h184l190 -331h-31l-273 213l-229 -213h-30zM979 788zM984 530zM985 529z M1461 656zM1469 648z" />
<glyph unicode="&#xf5;" horiz-adv-x="1024" d="M69 184q264 792 824 1176q728 -408 648 -1008q-256 -32 -456 -104q-160 -120 -704 -264zM437 336q248 16 392 88t216 104t208 24q-48 320 -368 432q-320 -216 -448 -648zM589 1481q4 137 57 198t131 61q41 0 75 -13q45 -17 127.5 -71.5t122.5 -54.5q32 0 56.5 27 t38.5 112h31q1 -93 -24.5 -147.5t-72 -85t-93.5 -30.5q-79 0 -196 80q-63 43 -85 52t-43 9q-41 0 -65 -36q-11 -17 -28 -101h-32zM979 788zM984 530zM985 529zM1461 656zM1469 648z" />
<glyph unicode="&#xf6;" horiz-adv-x="1024" d="M69 184q264 792 824 1176q728 -408 648 -1008q-256 -32 -456 -104q-160 -120 -704 -264zM437 336q248 16 392 88t216 104t208 24q-48 320 -368 432q-320 -216 -448 -648zM519 1603q0 45 31.5 77t76.5 32q46 0 77.5 -32t31.5 -77t-32 -76.5t-76 -31.5q-45 0 -77 31.5 t-32 76.5zM887 1595q0 45 32 77t77 32t76.5 -32t31.5 -77t-31.5 -76.5t-76.5 -31.5t-77 31.5t-32 76.5zM979 788zM984 530zM985 529zM1461 656zM1469 648z" />
<glyph unicode="&#xf9;" horiz-adv-x="1024" d="M2 312q112 744 656 1344q-312 -912 -264 -1280q320 104 408 88q88 392 312 720q136 -136 384 -48q-172 -224 -464 -1112l-296 80v72q-151 0 -312 -144q-240 96 -424 280zM237 1542h223l106 -345h-35zM826 976zM914 1008zM925 2226zM926 2225z" />
<glyph unicode="&#xfa;" horiz-adv-x="1024" d="M2 312q112 744 656 1344q-312 -912 -264 -1280q320 104 408 88q88 392 312 720q136 -136 384 -48q-172 -224 -464 -1112l-296 80v72q-151 0 -312 -144q-240 96 -424 280zM756 1349l105 345h224l-295 -345h-34zM826 976zM914 1008zM925 2226zM926 2225z" />
<glyph unicode="&#xfb;" horiz-adv-x="1024" d="M2 312q112 744 656 1344q-312 -912 -264 -1280q320 104 408 88q88 392 312 720q136 -136 384 -48q-172 -224 -464 -1112l-296 80v72q-151 0 -312 -144q-240 96 -424 280zM540 1326l189 331h184l190 -331h-31l-273 213l-229 -213h-30zM826 976zM914 1008zM925 2226z M926 2225z" />
<glyph unicode="&#xfc;" horiz-adv-x="1024" d="M2 312q112 744 656 1344q-312 -912 -264 -1280q320 104 408 88q88 392 312 720q136 -136 384 -48q-172 -224 -464 -1112l-296 80v72q-151 0 -312 -144q-240 96 -424 280zM444 1603q0 45 31.5 77t76.5 32q46 0 77.5 -32t31.5 -77t-32 -76.5t-76 -31.5q-45 0 -77 31.5 t-32 76.5zM812 1595q0 45 32 77t77 32t76.5 -32t31.5 -77t-31.5 -76.5t-76.5 -31.5t-77 31.5t-32 76.5zM826 976zM914 1008zM925 2226zM926 2225z" />
<glyph unicode="&#xfd;" horiz-adv-x="1024" d="M12 -928q352 200 736 384q16 120 240 728q-151 -8 -312 -152q-240 96 -424 280q112 744 656 1344q-312 -912 -264 -1280q320 104 408 88q88 392 312 720q136 -136 384 -48q-172 -224 -410 -740t-430 -1212q-312 40 -896 -112zM975 1349l105 345h224l-295 -345h-34z M1012 976zM1100 1008zM1111 2226zM1112 2225z" />
<glyph unicode="&#xff;" horiz-adv-x="1024" d="M12 -928q352 200 736 384q16 120 240 728q-151 -8 -312 -152q-240 96 -424 280q112 744 656 1344q-312 -912 -264 -1280q320 104 408 88q88 392 312 720q136 -136 384 -48q-172 -224 -410 -740t-430 -1212q-312 40 -896 -112zM668 1604q0 45 31.5 77t76.5 32 q46 0 77.5 -32t31.5 -77t-32 -76.5t-76 -31.5q-45 0 -77 31.5t-32 76.5zM1012 976zM1036 1596q0 45 32 77t77 32t76.5 -32t31.5 -77t-31.5 -76.5t-76.5 -31.5t-77 31.5t-32 76.5zM1100 1008zM1111 2226zM1112 2225z" />
<glyph unicode="&#x178;" d="M19 2128q76 0 316 255q36 -1015 468 -1359q368 784 584 1080q49 -56 512 200q-560 -872 -804 -1316t-947 -1868q255 1080 599 1784q-715 507 -728 1224zM654 1975q0 45 31.5 77t76.5 32q46 0 77.5 -32t31.5 -77t-32 -76.5t-76 -31.5q-45 0 -77 31.5t-32 76.5zM1022 1967 q0 45 32 77t77 32t76.5 -32t31.5 -77t-31.5 -76.5t-76.5 -31.5t-77 31.5t-32 76.5z" />
<glyph unicode="&#x2000;" horiz-adv-x="1316" />
<glyph unicode="&#x2001;" horiz-adv-x="2632" />
<glyph unicode="&#x2002;" horiz-adv-x="1316" />
<glyph unicode="&#x2003;" horiz-adv-x="2632" />
<glyph unicode="&#x2004;" horiz-adv-x="877" />
<glyph unicode="&#x2005;" horiz-adv-x="658" />
<glyph unicode="&#x2006;" horiz-adv-x="438" />
<glyph unicode="&#x2007;" horiz-adv-x="438" />
<glyph unicode="&#x2008;" horiz-adv-x="329" />
<glyph unicode="&#x2009;" horiz-adv-x="526" />
<glyph unicode="&#x200a;" horiz-adv-x="146" />
<glyph unicode="&#x202f;" horiz-adv-x="526" />
<glyph unicode="&#x205f;" horiz-adv-x="658" />
<glyph unicode="&#x25fc;" horiz-adv-x="1320" d="M0 0v1320h1320v-1320h-1320z" />
</font>
</defs>
</svg>
