<?xml version="1.0" standalone="no"?>
<!DOCTYPE svg PUBLIC "-//W3C//DTD SVG 1.1//EN" "http://www.w3.org/Graphics/SVG/1.1/DTD/svg11.dtd" >
<svg xmlns="http://www.w3.org/2000/svg">
<metadata></metadata>
<defs>
<font id="droid_serifregular" horiz-adv-x="904" >
<font-face units-per-em="2048" ascent="1638" descent="-410" />
<missing-glyph horiz-adv-x="420" />
<glyph horiz-adv-x="0" />
<glyph unicode="&#xd;" horiz-adv-x="824" />
<glyph unicode=" "  horiz-adv-x="420" />
<glyph unicode="&#x09;" horiz-adv-x="420" />
<glyph unicode="&#xa0;" horiz-adv-x="420" />
<glyph unicode="!" horiz-adv-x="538" d="M167 99q0 31 7.5 52t21.5 34t32.5 18.5t40.5 5.5q20 0 38.5 -5.5t32.5 -18.5t22.5 -34t8.5 -52t-8.5 -52.5t-22.5 -34t-32.5 -18t-38.5 -5.5q-22 0 -40.5 5.5t-32.5 18t-21.5 34t-7.5 52.5zM175 1155h188l-57 -830h-75z" />
<glyph unicode="&#x22;" horiz-adv-x="660" d="M92 1155h172l-49 -380h-74zM397 1155h171l-49 -380h-74z" />
<glyph unicode="#" d="M65 329v95h150l61 317h-192v96h211l57 318h99l-59 -318h224l60 318h97l-60 -318h127v-96h-144l-60 -317h184v-95h-204l-61 -329h-97l61 329h-224l-62 -329h-97l62 329h-133zM314 424h225l60 317h-225z" />
<glyph unicode="$" d="M107 131v249h68q0 -45 17 -87.5t48 -76t74 -55t95 -25.5v400q-76 34 -128.5 67t-84.5 69.5t-47 79.5t-15 96q0 54 19.5 98.5t55 77t86.5 53t114 27.5v125h82v-122q72 -2 123 -16.5t83.5 -38.5t47 -56.5t14.5 -70.5q0 -52 -34.5 -78.5t-93.5 -26.5q0 36 -6 71.5t-21 65.5 t-43 50.5t-70 25.5v-378q72 -32 128 -63.5t94 -68t58 -81.5t20 -102q0 -122 -78.5 -189.5t-221.5 -82.5v-196h-82v193q-40 0 -81 3.5t-80 11.5t-75 21t-66 30zM280 861q0 -34 8 -59.5t24.5 -45.5t41 -35.5t55.5 -30.5v339q-31 -7 -55.5 -22.5t-41 -37t-24.5 -49t-8 -59.5z M491 141q72 12 111.5 58.5t39.5 115.5q0 33 -8 58.5t-26 47.5t-47 41t-70 38v-359z" />
<glyph unicode="%" horiz-adv-x="1449" d="M73 814q0 81 15 147t47.5 113t83 72.5t121.5 25.5q66 0 115.5 -25.5t82 -72.5t49.5 -113t17 -147q0 -82 -17 -148t-50 -113.5t-83 -73.5t-116 -26q-69 0 -119.5 26t-83 73.5t-47.5 113.5t-15 148zM218 814q0 -70 6.5 -125t20.5 -92.5t37 -57.5t56 -20t56 20t37 57.5 t20 92.5t6 125q0 68 -6 122t-20 91.5t-36 57t-55 19.5t-56.5 -19.5t-38 -57t-21 -91.5t-6.5 -122zM380 0l577 1155h106l-576 -1155h-107zM846 344q0 82 15.5 148t48 113t83 72t120.5 25q66 0 115.5 -25t82.5 -72t49.5 -113t16.5 -148q0 -81 -16.5 -147.5t-50 -113.5t-83 -73 t-115.5 -26q-70 0 -120.5 26t-82.5 73t-47.5 113.5t-15.5 147.5zM991 344q0 -69 6.5 -124t21 -93t37 -57.5t56.5 -19.5q33 0 56 19.5t36 57.5t19 93t6 124t-6 123t-19 91.5t-35.5 56.5t-55.5 19t-56.5 -19t-38 -56.5t-21 -91.5t-6.5 -123z" />
<glyph unicode="&#x26;" horiz-adv-x="1200" d="M58 324q0 69 19 120t52.5 89.5t81 67.5t106.5 54q-31 36 -54.5 69.5t-38.5 67t-23 68t-8 74.5q0 54 17.5 97t54.5 75t95 49t138 17q78 0 132.5 -18.5t89 -50t49.5 -73.5t15 -88q0 -52 -15 -92.5t-47.5 -74.5t-84.5 -64.5t-126 -61.5l295 -312q11 36 18 73.5t11.5 73.5 t6 70.5t1.5 63.5v63h291v-68h-15q-26 0 -52.5 -3t-49 -14.5t-40 -33.5t-27.5 -59q-15 -52 -33.5 -113t-45.5 -121l150 -161q12 -12 24.5 -19.5t29.5 -12.5t40 -6.5t57 -1.5h14v-68h-259l-134 142q-29 -33 -64 -62t-78 -50t-94.5 -33.5t-113.5 -12.5q-97 0 -169.5 24.5 t-120 69t-71.5 107t-24 139.5zM216 318q0 -59 17.5 -104.5t49.5 -76.5t76.5 -47t98.5 -16q48 0 88.5 10t74.5 27.5t62.5 41.5t51.5 52l-358 384q-37 -21 -67 -46t-50.5 -57.5t-32 -73.5t-11.5 -94zM343 939q0 -31 6.5 -58t20 -53.5t35 -55t52.5 -62.5q47 21 82 44t58 50 t34 60t11 76q0 32 -8 60t-25.5 48t-46.5 32t-70 12q-72 0 -110.5 -42t-38.5 -111z" />
<glyph unicode="'" horiz-adv-x="356" d="M92 1155h172l-49 -380h-74z" />
<glyph unicode="(" horiz-adv-x="560" d="M92 513q0 146 23 259.5t73.5 200t129.5 149.5t190 107v-72q-83 -51 -132.5 -121.5t-74.5 -154.5t-32.5 -178t-7.5 -190q0 -97 7.5 -191t32.5 -178t74.5 -155t132.5 -122v-74q-111 44 -190 107.5t-129.5 150.5t-73.5 201.5t-23 260.5z" />
<glyph unicode=")" horiz-adv-x="560" d="M52 -133q83 51 132 122t74.5 155t33 178t7.5 191q0 96 -7.5 190t-33 178t-74.5 154.5t-132 121.5v72q112 -44 191 -107t128.5 -149.5t73 -200t23.5 -259.5t-23.5 -260.5t-73 -201.5t-128.5 -150.5t-191 -107.5v74z" />
<glyph unicode="*" horiz-adv-x="808" d="M66 840l272 80l-272 82l57 128l249 -158l-42 257h141l-45 -255l250 152l57 -126l-273 -80l273 -79l-57 -124l-250 150l45 -256h-141l41 256l-248 -154z" />
<glyph unicode="+" d="M105 531v95h298v299h97v-299h299v-95h-299v-300h-97v300h-298z" />
<glyph unicode="," horiz-adv-x="404" d="M48 -181q80 25 117 61.5t37 83.5q0 16 -8.5 27t-22 19t-28.5 16t-28.5 19t-22 27t-8.5 41q0 47 30.5 71.5t75.5 24.5q25 0 47 -9.5t39.5 -27t27.5 -44t10 -60.5q0 -51 -14.5 -99.5t-46.5 -89.5t-82 -74t-123 -54v68z" />
<glyph unicode="-" horiz-adv-x="501" d="M40 380v122h421v-122h-421z" />
<glyph unicode="." horiz-adv-x="462" d="M130 99q0 31 7.5 52t21.5 34t32.5 18.5t39.5 5.5t39.5 -5.5t32.5 -18.5t22 -34t8 -52t-8 -52.5t-22 -34t-32.5 -18t-39.5 -5.5t-39.5 5.5t-32.5 18t-21.5 34t-7.5 52.5z" />
<glyph unicode="/" horiz-adv-x="466" d="M0 -196l372 1425h94l-370 -1425h-96z" />
<glyph unicode="0" d="M73 581q0 134 22 243t68 186.5t118.5 119.5t172.5 42q95 0 165.5 -42t118 -119.5t71 -187t23.5 -244.5q0 -133 -23.5 -243t-71 -188t-118.5 -121t-166 -43q-100 0 -172 43t-118 121t-68 188t-22 245zM241 579q0 -120 11 -214.5t36 -159.5t65.5 -99.5t99.5 -34.5t99 34.5 t65 99.5t36 159.5t11 214.5t-11 214t-36 159t-64.5 98.5t-98.5 33.5t-99.5 -33.5t-66 -98.5t-36.5 -159t-11 -214z" />
<glyph unicode="1" d="M107 953q24 6 49 15t53 23.5t61 35.5t73 51l114 83h103v-977q0 -38 10.5 -61t28.5 -35t42 -16t52 -4h79v-68h-616v68h108q28 0 52 4t41.5 16t28.5 35t11 61v850q-31 -38 -59 -68.5t-53 -53t-49 -34.5t-48 -12q-36 0 -58.5 24t-22.5 63z" />
<glyph unicode="2" d="M82 0v118l270 313q65 75 109 134t71 111.5t38.5 103t11.5 105.5q0 46 -10 83.5t-30 65t-51 42t-74 14.5q-55 0 -89.5 -19.5t-54 -53t-27 -77t-7.5 -91.5q-29 0 -54 5t-44 17t-30 32.5t-11 50.5q0 47 20.5 87t60 69t99 45.5t137.5 16.5q77 0 137.5 -19.5t103.5 -54.5 t65.5 -85t22.5 -112q0 -56 -18.5 -110t-53 -110.5t-84.5 -117.5t-114 -131l-274 -302h374q36 0 60 10t39 26.5t23 38.5t14 45l6 30h68l-8 -280h-696z" />
<glyph unicode="3" d="M94 164q0 49 27.5 76t74.5 27q0 -43 14 -79t40 -62t64 -40.5t87 -14.5t92 13.5t76.5 44.5t53 80.5t19.5 122.5q0 51 -20 92.5t-58 71t-92.5 45.5t-122.5 16h-51v82h51q54 0 100 18t80.5 50t54.5 78.5t20 104.5q0 47 -9.5 84t-30.5 63t-54 39.5t-79 13.5 q-56 0 -90.5 -19.5t-54.5 -53t-27 -77t-7 -91.5q-29 0 -54.5 5t-44.5 17t-29.5 32.5t-10.5 50.5q0 47 20 87t60.5 69t99.5 45.5t138 16.5q76 0 138.5 -17.5t107 -50.5t69 -80.5t24.5 -109.5q0 -54 -19 -102.5t-54 -87.5t-82.5 -66.5t-103.5 -41.5q30 -3 64 -10.5t67 -21.5 t63.5 -35.5t54 -52.5t37.5 -71.5t14 -94.5q0 -65 -17.5 -116t-48 -89.5t-71 -65.5t-86 -43.5t-94 -24t-94.5 -7.5q-80 0 -137.5 14.5t-95 39t-55.5 57.5t-18 69z" />
<glyph unicode="4" d="M28 317v66l500 772h153v-747h201v-91h-201v-133q0 -38 10.5 -61t28.5 -35t42.5 -16t51.5 -4h21v-68h-487v68h45q28 0 52 4t42 16t28.5 35t10.5 61v133h-498zM144 408h382v299q0 36 1 78.5t2 86.5t3 88t5 82q-5 -11 -15.5 -29.5t-23.5 -41.5t-27.5 -48.5t-29 -49.5 t-27.5 -45t-22 -35z" />
<glyph unicode="5" d="M89 147q0 45 25 70.5t77 25.5q0 -35 12.5 -65t36.5 -52t60.5 -34.5t85.5 -12.5q50 0 92.5 14t73.5 46t48.5 84.5t17.5 128.5q0 64 -17.5 111.5t-50 79t-77.5 47t-101 15.5q-42 0 -72.5 -3t-53.5 -8t-40.5 -11.5t-32.5 -12.5l-39 11l52 572h541l8 -244h-68l-7 48 q-2 18 -6.5 30t-14 20.5t-25.5 12.5t-41 4h-314l-31 -356q25 9 71 17.5t118 8.5q78 0 145.5 -21t117.5 -64t78 -107t28 -150q0 -82 -26.5 -150t-76.5 -116.5t-123 -75t-165 -26.5q-90 0 -149 15.5t-93.5 39t-49 52.5t-14.5 56z" />
<glyph unicode="6" d="M99 582q0 77 11.5 150.5t34 139t57.5 121t82 95t106.5 62t130.5 22.5q68 0 118 -14.5t83 -38t49.5 -54.5t16.5 -63q0 -47 -32 -72t-92 -25q0 39 -7.5 73.5t-25 60t-44.5 40t-66 14.5q-122 0 -184.5 -119.5t-71.5 -355.5q20 16 44 31.5t52.5 27t62 18.5t73.5 7 q74 0 134 -23t102.5 -65.5t65.5 -104t23 -138.5q0 -86 -23.5 -157t-68 -122t-109 -79.5t-147.5 -28.5q-81 0 -149.5 33.5t-118.5 106t-78.5 186t-28.5 272.5zM264 526q1 -122 16.5 -208t43.5 -140.5t67.5 -79.5t87.5 -25q87 0 132 67.5t45 214.5q0 138 -49 201t-142 63 q-32 0 -61.5 -8t-55 -21t-47 -30t-37.5 -34z" />
<glyph unicode="7" d="M96 861l7 292h724v-46l-398 -1107h-122l382 1024h-425q-87 0 -94 -82l-6 -81h-68z" />
<glyph unicode="8" d="M74 290q0 58 18.5 102t52 78.5t78.5 62t98 52.5q-46 26 -84.5 56.5t-66.5 67t-43.5 79.5t-15.5 94q0 56 20 108t62 92.5t108.5 65t159.5 24.5q76 0 135.5 -21t100 -58.5t62 -88t21.5 -111.5q0 -53 -16 -93.5t-44.5 -72.5t-68.5 -57.5t-89 -50.5q60 -28 109 -60.5 t85 -70.5t55 -82t19 -97q0 -77 -27.5 -137.5t-78 -102t-122.5 -63.5t-160 -22q-91 0 -160 24t-115 65.5t-69.5 97t-23.5 119.5zM231 283q0 -51 14 -92t41.5 -70.5t68.5 -46t95 -16.5q52 0 95.5 16.5t73.5 45t47 68t17 85.5q0 41 -15 76.5t-49 68t-88.5 64t-132.5 65.5 q-76 -41 -121.5 -107t-45.5 -157zM264 901q0 -43 14 -78t41 -63t68 -53t95 -51q46 23 75.5 47.5t47 53t24.5 63t7 77.5q0 37 -10 72.5t-31.5 63.5t-57 45t-86.5 17q-45 0 -80 -14.5t-59 -40.5t-36 -61.5t-12 -77.5z" />
<glyph unicode="9" d="M82 773q0 88 24 161t68.5 125.5t109 82.5t145.5 30q82 0 151 -32t119.5 -98t78.5 -169t28 -245q0 -84 -11 -165t-33.5 -153t-57.5 -132t-83.5 -104t-111.5 -68t-142 -24q-68 0 -113.5 12t-72 32t-37.5 45t-11 51q0 30 15 50.5t33 26.5q11 -25 27 -48.5t39.5 -41t53.5 -28 t68 -10.5q134 0 198 120t72 364q-17 -22 -40.5 -41.5t-53 -35t-65.5 -24.5t-79 -9q-70 0 -129 20.5t-101 61.5t-65.5 102.5t-23.5 143.5zM249 789q0 -66 12 -113.5t35.5 -77.5t58.5 -44t82 -14q39 1 72 11.5t58 28.5t44 41.5t30 50.5v3q-2 106 -17.5 183t-43.5 127t-66 73.5 t-85 23.5q-86 0 -133 -75t-47 -218z" />
<glyph unicode=":" horiz-adv-x="464" d="M131 99q0 31 8 52t22 34t32.5 18.5t39.5 5.5t39.5 -5.5t32 -18.5t22 -34t8.5 -52t-8.5 -52.5t-22 -34t-32 -18t-39.5 -5.5t-39.5 5.5t-32.5 18t-22 34t-8 52.5zM131 766q0 31 8 52t22 33.5t32.5 18t39.5 5.5t39.5 -5.5t32 -18t22 -33.5t8.5 -52t-8.5 -52.5t-22 -34.5 t-32 -18.5t-39.5 -5.5t-39.5 5.5t-32.5 18.5t-22 34.5t-8 52.5z" />
<glyph unicode=";" horiz-adv-x="404" d="M48 -181q80 25 117 61.5t37 83.5q0 16 -8.5 27t-22 19t-28.5 16t-28.5 19t-22 27t-8.5 41q0 47 30.5 71.5t75.5 24.5q25 0 47 -9.5t39.5 -27t27.5 -44t10 -60.5q0 -51 -14.5 -99.5t-46.5 -89.5t-82 -74t-123 -54v68zM102 766q0 31 8 52t21.5 33.5t32 18t40.5 5.5 q20 0 38.5 -5.5t32.5 -18t22.5 -33.5t8.5 -52t-8.5 -52.5t-22.5 -34.5t-32.5 -18.5t-38.5 -5.5q-22 0 -40.5 5.5t-32 18.5t-21.5 34.5t-8 52.5z" />
<glyph unicode="&#x3c;" d="M105 550v57l694 373v-108l-543 -295l543 -291v-108z" />
<glyph unicode="=" d="M105 371v95h694v-95h-694zM105 689v95h694v-95h-694z" />
<glyph unicode="&#x3e;" d="M105 178v108l544 291l-544 295v108l694 -373v-57z" />
<glyph unicode="?" horiz-adv-x="808" d="M70 990q0 39 17.5 72t55 57.5t94.5 38.5t135 14q77 0 141.5 -20t112 -57.5t74.5 -92t27 -124.5q0 -66 -21 -120.5t-61.5 -99.5t-99 -82t-133.5 -68v-183h-98v246q70 29 118 66.5t76.5 81t41 91.5t12.5 96q0 42 -10.5 76.5t-32 58.5t-55 37.5t-79.5 13.5 q-51 0 -85.5 -16.5t-55.5 -45t-30.5 -66t-9.5 -79.5q-29 0 -53.5 6.5t-42.5 19.5t-28 33t-10 46zM259 99q0 31 8 52t22 34t32.5 18.5t39.5 5.5t39.5 -5.5t32 -18.5t22 -34t8.5 -52t-8.5 -52.5t-22 -34t-32 -18t-39.5 -5.5t-39.5 5.5t-32.5 18t-22 34t-8 52.5z" />
<glyph unicode="@" horiz-adv-x="1489" d="M105 352q0 115 25 219t72 193t113.5 161.5t150.5 123.5t182.5 78.5t208.5 27.5q136 0 238.5 -40.5t171.5 -110t103.5 -165t34.5 -205.5q0 -117 -28.5 -211t-74.5 -160.5t-102.5 -102t-112.5 -35.5q-72 0 -119.5 38.5t-70.5 108.5h-9q-17 -32 -37.5 -59t-47 -46.5 t-59.5 -30.5t-74 -11q-49 0 -93.5 16.5t-78 50.5t-54 86t-20.5 123q0 44 10 94.5t31 100.5t53.5 97t78.5 83t105.5 58t134.5 22q52 0 89.5 -14.5t61.5 -34.5l65 34h39l-82 -412l-6 -38q-2 -16 -3.5 -35t-1.5 -35q0 -29 8 -50t21.5 -34.5t31.5 -20t37 -6.5q36 0 73 28.5 t67 83.5t49.5 134.5t19.5 182.5q0 106 -34 187t-94.5 136t-144.5 83t-185 28q-79 0 -155.5 -22t-144.5 -65.5t-126 -105.5t-100 -141t-65.5 -175.5t-23.5 -207.5q0 -135 38.5 -230t104.5 -155.5t153.5 -88t185.5 -27.5q66 0 125.5 11.5t111 30t95.5 43t79 49.5l38 -59 q-41 -30 -90.5 -58.5t-107.5 -51t-125 -36.5t-142 -14q-130 0 -239 36t-187.5 108.5t-123 181.5t-44.5 256zM574 378q0 -85 34.5 -126.5t89.5 -41.5q41 0 71 18t50.5 46.5t33 64.5t19.5 73l62 329q-10 23 -36 35.5t-55 12.5q-48 0 -87 -21t-69 -55t-51 -77.5t-35 -89.5 t-20.5 -89.5t-6.5 -78.5z" />
<glyph unicode="A" horiz-adv-x="1140" d="M0 0v68h31q24 0 40.5 5t30 19.5t25.5 39t27 62.5l359 961h126l366 -1001q9 -25 19 -41.5t23.5 -26.5t31 -14t40.5 -4h22v-68h-445v68h37q97 0 97 77q0 14 -3.5 28t-9.5 32l-65 181h-425l-62 -170q-7 -18 -11 -37t-4 -32q0 -41 26.5 -60t81.5 -19h37v-68h-395zM358 468 h365l-100 282q-26 72 -47 135t-34 121q-6 -29 -13.5 -56t-16 -55.5t-19.5 -60t-25 -68.5z" />
<glyph unicode="B" horiz-adv-x="1057" d="M62 0v68h20q28 0 52 4t42 16t28.5 35t10.5 61v793q0 36 -10.5 57.5t-29 33.5t-42.5 15.5t-51 3.5h-20v68h433q210 0 313 -70t103 -219q0 -55 -15.5 -96t-42.5 -71.5t-63.5 -51.5t-79.5 -36v-6q56 -9 101.5 -32t78.5 -60t51 -87t18 -114q0 -156 -102.5 -234t-312.5 -78 h-482zM378 81h158q68 0 115.5 12.5t77.5 40.5t43.5 73t13.5 110q0 63 -12 109.5t-40.5 77.5t-76 46t-118.5 15h-161v-484zM378 645h113q71 0 118 13t75.5 39.5t41 68t12.5 100.5t-13.5 99t-43.5 64.5t-78 34.5t-116 10h-109v-429z" />
<glyph unicode="C" horiz-adv-x="993" d="M92 579q0 131 33.5 240t98.5 187.5t162 122t225 43.5q83 0 144.5 -14t102 -38.5t61 -57.5t20.5 -72q0 -26 -11 -47t-30 -35.5t-44.5 -22.5t-55.5 -8q0 38 -10 75t-32.5 66.5t-58.5 48t-89 18.5q-91 0 -155 -33.5t-104.5 -97.5t-58.5 -158.5t-18 -216.5q0 -108 19 -198 t60 -154.5t104.5 -100t152.5 -35.5q60 0 105 11.5t80 30.5t61.5 43.5t46.5 51.5q14 -8 22.5 -23t8.5 -40q0 -31 -21 -63t-63.5 -58t-108 -43t-155.5 -17q-121 0 -212.5 43t-153.5 121t-94 188t-32 243z" />
<glyph unicode="D" horiz-adv-x="1176" d="M62 0v68h20q28 0 52 4t42 16t28.5 35t10.5 61v793q0 36 -10.5 57.5t-29 33.5t-42.5 15.5t-51 3.5h-20v68h495q125 0 223 -38.5t165.5 -112t103 -180.5t35.5 -245q0 -133 -33 -240t-99 -182.5t-164.5 -116t-230.5 -40.5h-495zM378 82h141q96 0 168.5 33t120.5 96 t72.5 155.5t24.5 212.5q0 241 -96 368t-288 127h-143v-992z" />
<glyph unicode="E" horiz-adv-x="1008" d="M62 0v68h20q27 0 51 3.5t42.5 14.5t29 33t10.5 57v795q0 38 -10.5 61t-28.5 35t-42 16t-52 4h-20v68h815l8 -283h-84l-8 70q-3 27 -12 51t-26 42t-42.5 28.5t-62.5 10.5h-272v-430h391v-79h-391v-484h312q39 0 66.5 10.5t45.5 28.5t28.5 42t14.5 51l11 70h84l-11 -283 h-867z" />
<glyph unicode="F" horiz-adv-x="954" d="M62 0v68h20q27 0 51 3.5t42.5 14.5t29 33t10.5 57v801q0 36 -10.5 57.5t-29 33.5t-42.5 15.5t-51 3.5h-20v68h815l8 -283h-84l-8 70q-3 27 -12.5 51.5t-27.5 42t-44.5 28t-64.5 10.5h-266v-467h391v-79h-391v-344q0 -38 11 -61t28.5 -35t42 -16t51.5 -4h54v-68h-503z" />
<glyph unicode="G" horiz-adv-x="1154" d="M92 579q0 131 36 240t107.5 187.5t177.5 122t246 43.5q90 0 156.5 -14t111.5 -38.5t67 -57.5t22 -72q0 -26 -12 -47t-32 -35.5t-47.5 -22.5t-58.5 -8q0 38 -11 75t-36.5 66.5t-66.5 48t-100 18.5q-103 0 -175.5 -33.5t-118 -97.5t-66 -158.5t-20.5 -216.5q0 -121 21 -215 t69.5 -158t125 -97t187.5 -33q46 0 90 4.5t78 15.5v260q0 36 -10.5 57.5t-29 33t-42.5 15.5t-51 4h-6v68h420v-68h-6q-23 0 -43.5 -4t-35.5 -16t-24 -35.5t-9 -61.5v-291q-81 -37 -167 -55.5t-190 -18.5q-141 0 -245.5 43t-174 121t-103.5 188t-34 243z" />
<glyph unicode="H" horiz-adv-x="1282" d="M62 0v68h20q28 0 52 4t42 16t28.5 35t10.5 61v793q0 36 -10.5 57.5t-29 33.5t-42.5 15.5t-51 3.5h-20v68h470v-68h-21q-27 0 -51.5 -4t-42 -16t-28.5 -35t-11 -61v-327h527v327q0 38 -11 61t-28.5 35t-42 16t-51.5 4h-22v68h471v-68h-20q-28 0 -52 -4t-42 -16t-28.5 -35 t-10.5 -61v-795q0 -35 10.5 -57t29 -33t42.5 -14.5t51 -3.5h20v-68h-471v68h22q27 0 51.5 4t42 16t28.5 35t11 61v379h-527v-379q0 -38 11 -61t28.5 -35t42 -16t51.5 -4h21v-68h-470z" />
<glyph unicode="I" horiz-adv-x="594" d="M62 0v68h20q28 0 52 4t42 16t28.5 35t10.5 61v787q0 38 -10.5 61t-28.5 35t-42 16t-52 4h-20v68h470v-68h-21q-27 0 -51.5 -4t-42 -16t-28.5 -35t-11 -61v-787q0 -38 11 -61t28.5 -35t42 -16t51.5 -4h21v-68h-470z" />
<glyph unicode="J" horiz-adv-x="577" d="M-18 -312h15q52 0 92.5 14.5t68.5 49t42.5 91.5t14.5 143v991q0 36 -10.5 57.5t-29 33.5t-42.5 15.5t-51 3.5h-20v68h470v-68h-21q-27 0 -51.5 -4t-42 -16t-28.5 -35t-11 -61v-984q0 -109 -28 -181t-78 -115t-117.5 -61.5t-145.5 -18.5h-27v77z" />
<glyph unicode="K" horiz-adv-x="1132" d="M62 0v68h20q27 0 51 3.5t42.5 14.5t29 33t10.5 57v801q0 36 -10.5 57.5t-29 33.5t-42.5 15.5t-51 3.5h-20v68h470v-68h-21q-27 0 -51.5 -4t-42 -16t-28.5 -35t-11 -61v-457l335 384q26 30 43.5 53.5t27.5 42.5t14.5 33t4.5 26q0 21 -20 28.5t-60 7.5v66h358v-66 q-28 0 -53.5 -11t-51.5 -30t-53 -47.5t-59 -63.5l-234 -264l341 -475q47 -64 90 -97t88 -33h3v-68h-18q-81 0 -133 6.5t-87.5 23t-62 44.5t-56.5 71l-279 400l-138 -111v-250q0 -38 11 -61t28.5 -35t42 -16t51.5 -4h21v-68h-470z" />
<glyph unicode="L" horiz-adv-x="1008" d="M62 0v68h20q28 0 52 4t42 16t28.5 35t10.5 61v787q0 38 -10.5 61t-28.5 35t-42 16t-52 4h-20v68h470v-68h-21q-27 0 -51 -3.5t-42 -15.5t-29 -33.5t-11 -57.5v-896h320q36 0 61.5 13t42 34t26 47t12.5 52l16 121h84l-11 -348h-867z" />
<glyph unicode="M" horiz-adv-x="1517" d="M62 0v68h20q27 0 51 3.5t42.5 14.5t29 33t10.5 57v801q0 36 -10.5 57.5t-29 33.5t-42.5 15.5t-51 3.5h-20v68h369l335 -925l331 925h359v-68h-21q-27 0 -51 -4t-42.5 -16t-28.5 -35t-10 -61v-787q0 -38 10 -61t28.5 -35t42.5 -16t51 -4h21v-68h-431v68h6q26 0 47 3.5 t35.5 14t23.5 31t10 53.5v864l-370 -1034h-88l-375 1031v-847q0 -38 7.5 -61t23 -35t37.5 -16t49 -4h4v-68h-373z" />
<glyph unicode="N" horiz-adv-x="1234" d="M62 0v68h20q28 0 52 4t42 16t28.5 35t10.5 61v793q0 36 -10.5 57.5t-29 33.5t-42.5 15.5t-51 3.5h-20v68h296l579 -894v716q0 36 -10.5 57.5t-29 33.5t-42.5 15.5t-51 3.5h-21v68h406v-68h-21q-27 0 -51 -4t-42.5 -16t-28.5 -35t-10 -61v-971h-116l-606 932v-748 q0 -38 10.5 -61t28.5 -35t42 -16t51 -4h22v-68h-406z" />
<glyph unicode="O" horiz-adv-x="1200" d="M91 581q0 134 31.5 243.5t94.5 187t159.5 119.5t225.5 42q122 0 216 -42t159 -120t98 -187.5t33 -244.5q0 -133 -33 -243t-98 -188t-159.5 -121t-217.5 -43q-128 0 -224 43t-159 121t-94.5 188t-31.5 245zM270 579q0 -120 18 -214.5t57.5 -159.5t102 -99.5t152.5 -34.5 t153 34.5t102 99.5t56.5 159.5t17.5 214.5t-17.5 214.5t-56.5 159.5t-101 98.5t-152 33.5t-153 -33.5t-103 -98.5t-58 -159.5t-18 -214.5z" />
<glyph unicode="P" horiz-adv-x="977" d="M62 0v68h20q28 0 52 4t42 16t28.5 35t10.5 61v793q0 36 -10.5 57.5t-29 33.5t-42.5 15.5t-51 3.5h-20v68h454q102 0 177 -23.5t124 -67t73 -106t24 -141.5q0 -72 -22.5 -138.5t-74 -117.5t-134.5 -81t-203 -30h-102v-274q0 -35 11 -57t29 -33t42 -14.5t51 -3.5h54v-68 h-503zM378 526h87q73 0 125 15.5t85.5 50t48.5 88.5t15 131q0 67 -13 117.5t-43 83.5t-78 49.5t-117 16.5h-110v-552z" />
<glyph unicode="Q" horiz-adv-x="1200" d="M91 581q0 134 31.5 243.5t94.5 187t159.5 119.5t225.5 42q122 0 216 -42t159 -120t98 -187.5t33 -244.5q0 -118 -26 -218t-77 -175.5t-125.5 -125t-170.5 -66.5q7 -83 26.5 -139t50.5 -89.5t72 -47.5t90 -14h26v-76h-69q-64 0 -128 17t-116 58.5t-87 110.5t-43 173 q-112 12 -194.5 59t-137 124t-81.5 181t-27 230zM270 579q0 -120 18 -214.5t57.5 -159.5t102 -99.5t152.5 -34.5t153 34.5t102 99.5t56.5 159.5t17.5 214.5t-17.5 214.5t-56.5 159.5t-101 98.5t-152 33.5t-153 -33.5t-103 -98.5t-58 -159.5t-18 -214.5z" />
<glyph unicode="R" horiz-adv-x="1060" d="M62 0v68h20q27 0 51 3.5t42.5 14.5t29 33t10.5 57v801q0 36 -10.5 57.5t-29 33.5t-42.5 15.5t-51 3.5h-20v68h435q210 0 312.5 -78t102.5 -234q0 -65 -20.5 -113.5t-54.5 -84t-77 -59.5t-85 -38l222 -350q41 -65 79.5 -97.5t89.5 -32.5h5v-68h-23q-76 0 -124.5 5.5 t-82.5 21.5t-58 44.5t-51 73.5l-219 365h-135v-334q0 -35 11 -57t29 -33t42 -14.5t51 -3.5h21v-68h-470zM378 585h114q71 0 118.5 16t76 47.5t40.5 79t12 110.5q0 65 -13 110.5t-43 74t-78 42t-117 13.5h-110v-493z" />
<glyph unicode="S" horiz-adv-x="880" d="M77 212q0 49 30.5 79t86.5 30q3 -51 16 -97.5t39 -82t66.5 -57t96.5 -21.5q109 0 170.5 52.5t61.5 151.5q0 44 -12.5 78t-42 63t-77 55.5t-119.5 55.5q-75 31 -131 66t-93 78t-55 96t-18 119q0 70 26.5 124.5t73.5 92t112 57.5t142 20q72 0 128 -15t95 -40.5t59 -58.5 t20 -68q0 -52 -34.5 -78.5t-92.5 -26.5q0 38 -9 74.5t-30.5 65.5t-56 47t-86.5 18q-46 0 -83 -13t-62 -37t-38.5 -58t-13.5 -76q0 -48 12.5 -85t42 -66.5t78 -56t118.5 -54.5q71 -29 126.5 -61.5t94.5 -72.5t59.5 -89.5t20.5 -111.5q0 -77 -28 -137.5t-80 -102t-125.5 -63.5 t-164.5 -22q-79 0 -139.5 16.5t-101.5 46.5t-61.5 72t-20.5 93z" />
<glyph unicode="T" horiz-adv-x="991" d="M32 872l8 283h911l8 -283h-84l-8 70q-3 27 -11 51t-23 42t-39.5 28.5t-60.5 10.5h-157v-890q0 -38 10.5 -61t28.5 -35t42.5 -16t51.5 -4h37v-68h-503v68h37q27 0 51 3.5t42 14.5t28.5 33t10.5 57v898h-154q-36 0 -60 -10.5t-39.5 -28.5t-23 -42t-10.5 -51l-9 -70h-84z " />
<glyph unicode="U" horiz-adv-x="1159" d="M24 1087v68h471v-68h-21q-27 0 -51.5 -4t-42 -16t-28.5 -35t-11 -61v-631q0 -71 20.5 -120t56 -80t85 -45t108.5 -14q71 0 122 18.5t84.5 52.5t49.5 80t16 101v644q0 36 -10.5 57.5t-28.5 33.5t-42.5 15.5t-51.5 3.5h-20v68h406v-68h-21q-27 0 -51.5 -4t-42.5 -16 t-28.5 -35t-10.5 -61v-641q0 -80 -25.5 -144.5t-76 -109t-124.5 -68.5t-171 -24q-95 0 -171 20t-128.5 64t-80 113t-27.5 168v628q0 36 -11 57.5t-29 33.5t-42 15.5t-51 3.5h-21z" />
<glyph unicode="V" horiz-adv-x="1091" d="M0 1087v68h445v-68h-37q-49 0 -73.5 -18.5t-24.5 -58.5q0 -14 4 -28t10 -32l178 -526q24 -72 41.5 -139.5t30.5 -125.5q13 58 30.5 123.5t44.5 141.5l178 515q6 19 10 37.5t4 31.5q0 42 -26.5 60.5t-79.5 18.5h-37v68h394v-68h-31q-24 0 -41 -4.5t-30.5 -18.5 t-25.5 -38.5t-25 -64.5l-335 -961h-119l-349 1002q-9 25 -19 41.5t-23.5 26t-31 13.5t-41.5 4h-21z" />
<glyph unicode="W" horiz-adv-x="1693" d="M14 1087v68h446v-68h-37q-49 0 -73.5 -18.5t-24.5 -58.5q0 -14 4 -28t9 -32l149 -518q20 -73 38.5 -144t31.5 -129q12 63 28 137.5t38 153.5l192 694h117l202 -701q23 -80 41 -154t29 -130q12 58 27.5 122.5t37.5 142.5l142 500q2 9 5.5 21t5.5 23.5t4 22t2 17.5 q0 42 -26.5 60.5t-79.5 18.5h-37v68h395v-68h-31q-24 0 -42 -4.5t-32 -18t-26 -38t-24 -65.5l-273 -961h-145l-264 906l-247 -906h-150l-296 1002q-8 25 -18 41.5t-23 26t-31.5 13.5t-41.5 4h-22z" />
<glyph unicode="X" horiz-adv-x="1068" d="M13 0v68h10q29 0 51 6t40.5 19.5t36.5 34.5t40 53l270 387l-267 434q-29 46 -65.5 65.5t-73.5 19.5h-21v68h438v-68h-4q-28 0 -46 -3.5t-28.5 -10t-14.5 -15t-4 -18.5q0 -8 1.5 -16t5.5 -18.5t11.5 -25t20.5 -35.5l146 -236l153 233q19 27 30 51.5t11 46.5q0 15 -7 24 t-18.5 14t-27 7t-34.5 2h-5v68h354v-68h-14q-24 0 -43.5 -5.5t-37.5 -19.5t-37.5 -36t-42.5 -55l-234 -338l298 -479q35 -47 66.5 -66.5t62.5 -19.5h21v-68h-437v68h8q97 0 97 54q0 8 -2 17t-7.5 20.5t-16 29t-27.5 44.5l-160 258l-180 -266q-7 -10 -14 -23t-13.5 -27.5 t-10.5 -29t-4 -27.5q0 -27 26 -38.5t79 -11.5h5v-68h-385z" />
<glyph unicode="Y" horiz-adv-x="1011" d="M-8 1087v68h445v-68h-60q-22 0 -36 -4t-22 -11t-10.5 -16.5t-2.5 -19.5q0 -23 9.5 -46t19.5 -40l119 -217q29 -50 48.5 -98.5t33.5 -86.5q7 18 17.5 39t23.5 45t27.5 50t28.5 51l103 186q16 27 23 52t7 45q0 35 -25.5 53t-72.5 18h-47v68h395v-68h-19q-17 0 -32.5 -6 t-31.5 -20.5t-33 -38.5t-37 -61l-272 -479v-298q0 -38 10 -61t28.5 -35t42.5 -16t51 -4h38v-68h-503v68h37q27 0 51 3.5t42 14.5t28.5 33t10.5 57v306l-299 520q-13 23 -25 39t-25 26.5t-29 15t-36 4.5h-21z" />
<glyph unicode="Z" horiz-adv-x="957" d="M58 0v65l607 1009h-351q-36 0 -60 -10.5t-39 -28.5t-23 -42t-11 -51l-8 -70h-84l8 283h767v-66l-608 -1008h408q36 0 60.5 10.5t39.5 28.5t23 42t11 51l8 70h84l-8 -283h-824z" />
<glyph unicode="[" horiz-adv-x="580" d="M162 -207v1436h361v-68h-70q-27 0 -51 -4t-42.5 -16t-28.5 -35t-10 -61v-1068q0 -38 10 -61t28.5 -35t42.5 -16t51 -4h70v-68h-361z" />
<glyph unicode="\" horiz-adv-x="466" d="M0 1229h94l372 -1425h-95z" />
<glyph unicode="]" horiz-adv-x="582" d="M60 -139h70q27 0 51 4t42 16t28.5 35t10.5 61v1068q0 38 -10.5 61t-28.5 35t-42 16t-51 4h-70v68h360v-1436h-360v68z" />
<glyph unicode="^" d="M82 431l341 724h56l341 -724h-108l-262 575l-259 -575h-109z" />
<glyph unicode="_" horiz-adv-x="742" d="M-8 -134h758v-96h-758v96z" />
<glyph unicode="`" horiz-adv-x="933" d="M310 1223v17h173q13 -27 30 -59t36 -64t39 -62t37 -53v-22h-62q-32 23 -70 55.5t-73.5 67.5t-65 67t-44.5 53z" />
<glyph unicode="a" horiz-adv-x="910" d="M81 243q0 128 91.5 190.5t277.5 68.5l134 4v98q0 43 -5 79.5t-20.5 63t-45.5 41.5t-79 15q-47 0 -76 -13t-45 -37t-21.5 -56.5t-5.5 -70.5q-67 0 -102 23t-35 79q0 42 22.5 71.5t62.5 48t93 27t113 8.5q74 0 129.5 -14.5t92.5 -47.5t55.5 -86.5t18.5 -130.5v-420 q0 -34 5.5 -56t17.5 -35.5t31.5 -19t46.5 -5.5h4v-68h-218l-26 139h-13q-25 -34 -49 -62.5t-52.5 -49t-64.5 -32t-86 -11.5q-54 0 -100 15.5t-80 47.5t-52.5 80.5t-18.5 115.5zM238 235q0 -76 32 -113.5t99 -37.5q49 0 89 15.5t68 45t43 71.5t15 93v131l-104 -5 q-68 -3 -114.5 -17t-75 -38.5t-40.5 -61t-12 -83.5z" />
<glyph unicode="b" horiz-adv-x="993" d="M29 0v68h13q28 0 52 4t41.5 16t28.5 35t11 61v867q0 36 -11 57.5t-29 33.5t-42 15.5t-51 3.5h-13v68h298v-297q0 -27 -1 -63t-2 -70q-2 -37 -3 -78h6q18 37 41 67t53 51t68 32.5t85 11.5q80 0 141.5 -26.5t103.5 -81.5t64 -139.5t22 -200.5q0 -117 -22 -202t-64 -140.5 t-103.5 -82t-141.5 -26.5q-46 0 -84 10.5t-68.5 29.5t-54 45t-40.5 57h-10l-29 -126h-259zM327 435q0 -84 10.5 -149t36.5 -109t68 -66.5t106 -22.5q54 0 91.5 22.5t61.5 66.5t35 109.5t11 150.5q0 86 -11 150.5t-35 107t-62.5 64t-91.5 21.5q-64 0 -106 -21t-67.5 -63.5 t-36 -107.5t-10.5 -153z" />
<glyph unicode="c" horiz-adv-x="796" d="M89 429q0 130 27.5 217t76 140t114.5 75t143 22q50 0 100 -10t90.5 -30.5t66 -51.5t25.5 -73q0 -56 -36.5 -79t-108.5 -23q0 38 -6.5 72t-21.5 59.5t-41.5 40.5t-67.5 15q-47 0 -84.5 -17.5t-64.5 -60t-41 -114.5t-14 -180q0 -173 57 -257.5t188 -84.5q75 0 131 31.5 t83 81.5q12 -9 20 -25t8 -38q0 -28 -17.5 -55.5t-51.5 -49.5t-85.5 -36t-120.5 -14q-80 0 -148 25t-117 78.5t-76.5 138t-27.5 203.5z" />
<glyph unicode="d" horiz-adv-x="993" d="M89 432q0 117 21.5 202.5t63.5 140.5t103.5 81.5t141.5 26.5q46 0 84 -10t68.5 -29t54 -45t41.5 -58h9q-2 40 -4 74q-2 30 -3.5 60t-1.5 44v132q0 36 -11 57.5t-29 33.5t-42 15.5t-51 3.5h-13v68h297v-1051q0 -36 11 -57.5t29 -33.5t42 -15.5t51 -3.5h14v-68h-275 l-17 145h-6q-18 -37 -41.5 -66.5t-53.5 -50.5t-68 -32.5t-85 -11.5q-80 0 -141.5 26.5t-103.5 81.5t-63.5 139.5t-21.5 200.5zM246 431q0 -173 46.5 -258t153.5 -85q64 0 106 21t67.5 63.5t36.5 107t11 152.5q0 85 -11 149.5t-36.5 108.5t-68 67t-106.5 23q-53 0 -91 -23 t-62 -67.5t-35 -109.5t-11 -149z" />
<glyph unicode="e" horiz-adv-x="865" d="M89 427q0 227 93.5 341.5t265.5 114.5q78 0 140.5 -24.5t106 -73t66.5 -121t23 -167.5v-74h-538q1 -89 17.5 -152.5t46.5 -104.5t74.5 -60.5t102.5 -19.5q42 0 77.5 9.5t65 25.5t52 36t36.5 42q11 -5 21 -20t10 -35q0 -25 -17.5 -53t-53 -51.5t-89 -39.5t-124.5 -16 q-88 0 -158 29.5t-118 86.5t-74 139.5t-26 187.5zM249 510h372q0 64 -9.5 116.5t-30 90.5t-54 58.5t-82.5 20.5q-90 0 -138.5 -73t-57.5 -213z" />
<glyph unicode="f" horiz-adv-x="597" d="M43 0v68h22q27 0 51.5 4t42 16t28.5 35t11 61v607h-148v76h148v81q0 73 19.5 128t56.5 93t90 57.5t119 19.5q64 0 107.5 -8.5t70 -23.5t38 -35.5t11.5 -45.5q0 -22 -10 -39t-27.5 -28.5t-41.5 -17.5t-54 -6q0 24 -5 47.5t-17 41.5t-32.5 29.5t-51.5 11.5 q-35 0 -58.5 -13.5t-37.5 -40t-20 -65.5t-6 -90v-96h228v-76h-228v-607q0 -38 11 -61t28.5 -35t42 -16t51.5 -4h62v-68h-501z" />
<glyph unicode="g" horiz-adv-x="870" d="M37 -152q0 47 16.5 82.5t44.5 61t64.5 41t76.5 22.5q-16 7 -32 19t-28.5 28.5t-20.5 38t-8 47.5q0 48 25.5 83.5t80.5 68.5q-35 14 -62 39t-45.5 57t-28.5 70t-10 78q0 70 19 125.5t57 94t94.5 59t133.5 20.5q29 0 57.5 -4t52.5 -11.5t43.5 -17t31.5 -20.5 q12 13 27.5 28.5t35.5 28.5t43 21.5t50 8.5q25 0 42.5 -6.5t29.5 -18t18 -27t6 -32.5t-5 -32.5t-15.5 -27t-26.5 -18t-38 -6.5q0 9 -2.5 18.5t-8.5 18t-16.5 13.5t-26.5 5q-21 0 -37.5 -4.5t-32.5 -15.5q28 -34 45.5 -80t17.5 -115q0 -60 -18 -111t-54 -88.5t-91 -58.5 t-128 -21q-10 0 -21.5 0.5t-23.5 1t-22 1.5t-17 2q-16 -8 -30 -17.5t-24.5 -21t-17 -26.5t-6.5 -34t7.5 -31t21 -18.5t32 -8.5t39.5 -2h184q72 0 122.5 -18.5t82.5 -50.5t47 -76.5t15 -96.5q0 -70 -26 -126t-79 -95t-134 -60.5t-190 -21.5q-169 0 -253 62.5t-84 174.5z M168 -142q0 -36 9.5 -66.5t33.5 -53t64 -35t102 -12.5q87 0 143.5 14.5t89.5 40.5t46.5 62t13.5 79q0 37 -10.5 61t-31.5 38t-52 19.5t-71 5.5h-159q-34 0 -66 -6t-57 -22.5t-40 -46.5t-15 -78zM262 589q0 -104 34.5 -152t112.5 -48q40 0 67 11.5t44.5 36t25 63t7.5 91.5 q0 109 -33 161t-112 52t-112.5 -53t-33.5 -162z" />
<glyph unicode="h" horiz-adv-x="1027" d="M29 0v68h13q28 0 52 4t41.5 16t28.5 35t11 61v867q0 36 -11 57.5t-29 33.5t-42 15.5t-51 3.5h-13v68h298v-355q0 -22 -1 -46.5t-2 -44.5q-2 -24 -3 -47h8q72 147 237 147q69 0 122.5 -18.5t89.5 -57t55 -98.5t19 -143v-382q0 -38 9.5 -61t26.5 -35t39.5 -16t49.5 -4h5 v-68h-281v559q0 52 -9.5 93.5t-30.5 69.5t-55 43t-83 15q-51 0 -87.5 -18.5t-60.5 -53t-36 -83t-12 -108.5v-341q0 -35 10.5 -57t29 -33t42.5 -14.5t51 -3.5h5v-68h-436z" />
<glyph unicode="i" horiz-adv-x="517" d="M37 0v68h21q27 0 51.5 3.5t42.5 14.5t28.5 33t10.5 57v513q0 35 -10.5 57t-28.5 34t-42.5 15.5t-51.5 3.5h-4v68h289v-683q0 -38 10.5 -61t28.5 -35t42.5 -16t51.5 -4h21v-68h-460zM168 1130q0 28 7 47t20 31t29.5 16.5t36.5 4.5q19 0 35.5 -4.5t28.5 -16.5t19.5 -31 t7.5 -47q0 -29 -7.5 -48t-19.5 -30.5t-28.5 -17t-35.5 -5.5q-20 0 -36.5 5.5t-29.5 17t-20 30.5t-7 48z" />
<glyph unicode="j" horiz-adv-x="485" d="M-20 -312h12q44 0 77.5 14.5t57 49t36 91.5t12.5 143v703q0 35 -11 57t-29 34t-42 15.5t-51 3.5h-5v68h290v-880q0 -109 -23.5 -181t-66.5 -115t-101.5 -61.5t-129.5 -18.5h-26v77zM152 1130q0 28 7.5 47t19.5 31t29 16.5t36 4.5t36 -4.5t29.5 -16.5t20 -31t7.5 -47 q0 -29 -7.5 -48t-20 -30.5t-29.5 -17t-36 -5.5t-36 5.5t-29 17t-19.5 30.5t-7.5 48z" />
<glyph unicode="k" horiz-adv-x="946" d="M29 0v68h13q28 0 52 4t41.5 16t28.5 35t11 61v867q0 36 -11 57.5t-29 33.5t-42 15.5t-51 3.5h-13v68h298v-624q0 -22 -1 -56.5t-2 -67.5q-2 -38 -3 -80l202 222q26 29 43 51t27.5 38.5t14 29.5t3.5 25q0 21 -19 26.5t-60 5.5v68h358v-68q-57 0 -111 -39.5t-117 -110.5 l-114 -128l216 -320q42 -65 83.5 -99t95.5 -34h5v-68h-23q-70 0 -115.5 4.5t-78.5 20.5t-61 47t-62 85l-162 254l-119 -89v-146q0 -35 10.5 -57t29 -33t42.5 -14.5t51 -3.5h5v-68h-436z" />
<glyph unicode="l" horiz-adv-x="501" d="M21 0v68h21q28 0 52 4t41.5 16t28.5 35t11 61v867q0 36 -11 57.5t-29 33.5t-42 15.5t-51 3.5h-21v68h306v-1045q0 -38 10.5 -61t28.5 -35t42 -16t52 -4h20v-68h-459z" />
<glyph unicode="m" horiz-adv-x="1528" d="M45 0v68h21q28 0 51 4t39.5 16t25.5 35t9 61v505q0 35 -9.5 57t-26 34t-39.5 15.5t-50 3.5h-4v68h253l22 -131h7q25 45 52 74t57 45t64 22t72 6q39 0 74.5 -8t66 -25t54.5 -45t39 -69h14q24 45 52.5 74t60.5 45t67 22t73 6q62 0 111 -18.5t83 -57t52 -98.5t18 -143v-382 q0 -38 9.5 -61t26 -35t39.5 -16t50 -4h5v-68h-282v559q0 52 -9 93.5t-29 69.5t-52.5 43t-78.5 15q-51 0 -85.5 -19.5t-55.5 -52.5t-30.5 -76.5t-9.5 -92.5v-355q0 -38 9.5 -61t26.5 -35t39.5 -16t49.5 -4h5v-68h-281v559q0 52 -9 93.5t-29.5 69.5t-53 43t-78.5 15 q-53 0 -89 -21.5t-58 -58t-31.5 -83.5t-9.5 -100v-341q0 -35 10.5 -57t29 -33t42.5 -14.5t51 -3.5h4v-68h-435z" />
<glyph unicode="n" horiz-adv-x="1043" d="M45 0v68h13q28 0 52 4t42 16t28.5 35t10.5 61v505q0 35 -10.5 57t-28.5 34t-42.5 15.5t-51.5 3.5h-4v68h261l22 -131h7q26 45 54 74t59 45t66.5 22t73.5 6q64 0 114.5 -18.5t85.5 -57t53.5 -98.5t18.5 -143v-382q0 -38 9 -61t25.5 -35t39.5 -16t50 -4h6v-68h-282v559 q0 52 -9.5 93.5t-30.5 69.5t-55 43t-83 15q-56 0 -93.5 -21.5t-60 -58t-32.5 -83.5t-10 -100v-341q0 -35 10.5 -57t29 -33t42.5 -14.5t51 -3.5h4v-68h-435z" />
<glyph unicode="o" horiz-adv-x="933" d="M89 435q0 227 96 337.5t284 110.5q88 0 157.5 -27t118 -83t74.5 -140t26 -198q0 -228 -97 -339.5t-283 -111.5q-88 0 -157.5 28t-118 84t-74.5 141t-26 198zM246 435q0 -90 11.5 -158.5t38 -115t69 -70t103.5 -23.5t102.5 23.5t67.5 70t37.5 115t11.5 158.5t-11.5 158 t-38 113.5t-68.5 68.5t-103 23t-102.5 -23t-68 -68.5t-38 -113.5t-11.5 -158z" />
<glyph unicode="p" horiz-adv-x="993" d="M21 799v68h283l17 -146h6q18 37 41 67t53 51t68 32.5t85 11.5q80 0 141.5 -26.5t103.5 -81.5t64 -139.5t22 -200.5q0 -117 -22 -202t-64 -140.5t-103.5 -82t-141.5 -26.5q-46 0 -84 10.5t-68.5 29.5t-54 45t-40.5 57h-6q1 -41 3 -78q1 -15 1 -31t0.5 -30.5t1 -26 t0.5 -17.5v-155q0 -35 10.5 -57t29 -33.5t42.5 -15t51 -3.5h5v-68h-436v68h13q28 0 52 4t41.5 16.5t28.5 35.5t11 61v893q0 35 -11 57t-29 34t-42 15.5t-51 3.5h-21zM327 435q0 -84 10.5 -149t36.5 -109t68 -66.5t106 -22.5q54 0 91.5 22.5t61.5 66.5t35 109.5t11 150.5 q0 86 -11 150.5t-35 107t-62.5 64t-91.5 21.5q-64 0 -106 -21t-67.5 -63.5t-36 -107.5t-10.5 -153z" />
<glyph unicode="q" horiz-adv-x="993" d="M89 432q0 117 21.5 202.5t63.5 140.5t103.5 81.5t141.5 26.5q46 0 84 -10t68.5 -29t54 -45t41.5 -58h9l29 126h260v-68h-14q-27 0 -51.5 -3.5t-42 -16t-28.5 -36t-11 -60.5v-893q0 -36 11 -57.5t29 -33.5t42 -16t51 -4h14v-68h-485v68h54q28 0 52 4t41.5 16.5t28.5 35.5 t11 61v139q0 28 0.5 64t2.5 69q2 38 3 77h-6q-18 -37 -41.5 -66.5t-53.5 -50.5t-68 -32.5t-85 -11.5q-80 0 -141.5 26.5t-103.5 81.5t-63.5 139.5t-21.5 200.5zM246 431q0 -173 46.5 -258t153.5 -85q64 0 106 21t67.5 63.5t36.5 107t11 152.5q0 85 -11 149.5t-36.5 108.5 t-68 67t-106.5 23q-53 0 -91 -23t-62 -67.5t-35 -109.5t-11 -149z" />
<glyph unicode="r" horiz-adv-x="762" d="M54 0v68h4q28 0 52 4t42 16t28.5 35t10.5 61v505q0 35 -10.5 57t-28.5 34t-42.5 15.5t-51.5 3.5h-4v68h249l30 -160h8q16 36 32.5 68t40.5 56.5t60 38t89 13.5q89 0 132 -30.5t43 -86.5q0 -26 -8.5 -47t-26.5 -36.5t-46.5 -24t-69.5 -8.5q0 67 -19 97t-66 30 q-30 0 -54 -17t-41.5 -45t-30 -64.5t-20 -75t-10.5 -76.5t-3 -68v-255q0 -35 10.5 -57t29 -33t42.5 -14.5t51 -3.5h45v-68h-467z" />
<glyph unicode="s" horiz-adv-x="729" d="M73 156q0 32 10.5 53.5t26 34.5t33 18t32.5 5q0 -43 8.5 -80t29 -65t54 -44t82.5 -16q44 0 77 10.5t55.5 30t34.5 46.5t12 60q0 30 -9 51.5t-31.5 40.5t-61.5 38.5t-97 45.5q-63 27 -109 53t-76 56t-45 68t-15 91q0 56 21.5 98.5t62 71.5t96.5 44t125 15q57 0 101.5 -12 t74.5 -32t45 -47.5t15 -57.5q0 -44 -30.5 -70.5t-86.5 -26.5q0 81 -33.5 126t-105.5 45q-41 0 -70.5 -9.5t-48 -26.5t-27 -41t-8.5 -52q0 -31 11 -53.5t35 -41.5t62.5 -36.5t92.5 -40.5q64 -26 109.5 -52.5t75 -57t44 -69.5t14.5 -89q0 -63 -23 -110.5t-65 -79.5t-100.5 -48 t-130.5 -16q-61 0 -110.5 11t-84 32.5t-53.5 53.5t-19 75z" />
<glyph unicode="t" horiz-adv-x="569" d="M31 775v65q29 0 64 11.5t62 39.5q28 30 45 71.5t29 103.5h75v-199h211v-92h-211v-545q0 -83 33.5 -121.5t89.5 -38.5q29 0 53.5 3t49.5 9v-73q-10 -4 -26.5 -9t-36 -8.5t-40.5 -5.5t-40 -2q-62 0 -106 13t-72.5 42.5t-42.5 77.5t-14 118v540h-123z" />
<glyph unicode="u" horiz-adv-x="1027" d="M37 799v68h290v-558q0 -53 8.5 -94t27.5 -69.5t52 -43t82 -14.5q54 0 92 19t63 53t37 82.5t12 106.5v334q0 37 -11 60.5t-28.5 36t-41.5 16t-52 3.5h-5v68h289v-691q0 -35 11 -57t29 -33t42 -14.5t51 -3.5h5v-68h-257l-21 131h-8q-25 -46 -54.5 -74.5t-62.5 -44.5 t-69.5 -22t-75.5 -6q-64 0 -114 18.5t-84 57t-51.5 98.5t-17.5 143v388q0 35 -11 57t-29 34t-42 15.5t-51 3.5h-5z" />
<glyph unicode="v" horiz-adv-x="936" d="M6 799v68h405v-68h-21q-49 0 -73 -18.5t-24 -59.5q0 -13 3 -27t10 -32l110 -306q10 -28 21 -62.5t21 -67.5t17.5 -62.5t11.5 -50.5h5q4 17 13 43t20.5 56.5t24 62t23.5 60.5l116 315q8 20 11.5 38t3.5 32q0 42 -26.5 60.5t-80.5 18.5h-12v68h347v-68h-20q-23 0 -39.5 -5 t-30 -19t-26 -38.5t-27.5 -63.5l-255 -673h-148l-260 713q-9 26 -19.5 42.5t-23.5 26.5t-30.5 13.5t-41.5 3.5h-5z" />
<glyph unicode="w" horiz-adv-x="1394" d="M2 799v68h399v-68h-21q-48 0 -72.5 -14t-24.5 -53q0 -14 4.5 -33t8.5 -37l76 -272q8 -29 16.5 -63.5t16 -69t14 -64.5t10.5 -51h5q4 21 10.5 48t15.5 58.5t19.5 63.5t20.5 62l168 489h102l162 -480q10 -29 20.5 -62.5t20 -66.5t17.5 -62t12 -50h4q8 40 23.5 99t40.5 137 l80 261q7 21 11 44t4 37q0 42 -26.5 60.5t-80.5 18.5h-11v68h346v-68h-21q-23 0 -40.5 -4.5t-31.5 -18.5t-26 -38.5t-23 -64.5l-209 -673h-130l-192 570l-30 106l-229 -676h-128l-211 713q-10 26 -20 42.5t-23.5 26.5t-31 13.5t-41.5 3.5h-4z" />
<glyph unicode="x" horiz-adv-x="935" d="M8 0v68h15q29 0 51 4.5t42 16.5t39.5 32t43.5 50l204 264l-204 278q-35 42 -69 64t-70 22h-21v68h411v-68h-5q-28 0 -46 -3.5t-28.5 -10t-14.5 -15t-4 -18.5q0 -17 10 -33t28 -41l107 -146l84 121q18 28 29 52.5t11 46.5q0 29 -25 38t-62 9h-5v68h354v-68h-14 q-24 0 -43 -3.5t-38 -15t-38.5 -32t-44.5 -52.5l-166 -222l238 -320q35 -47 67 -66.5t62 -19.5h21v-68h-417v68h7q98 0 98 54q0 8 -2.5 17.5t-9.5 21.5t-19 29.5t-31 42.5l-108 145l-113 -158q-7 -9 -15 -21.5t-14.5 -26t-10.5 -27.5t-4 -27q0 -27 23 -38.5t78 -11.5h4v-68 h-385z" />
<glyph unicode="y" horiz-adv-x="914" d="M6 799v68h389v-68h-5q-49 0 -73 -18.5t-24 -59.5q0 -13 3 -27t10 -32l118 -288q11 -28 23.5 -61t23 -65t19 -60t12.5 -49h4q9 36 24.5 86.5t35.5 109.5l109 315q7 20 10.5 38t3.5 32q0 42 -26.5 60.5t-80.5 18.5h-5v68h337v-68h-5q-23 0 -40 -5t-31 -19t-26 -38.5 t-26 -63.5l-246 -679q-28 -79 -53.5 -138t-53 -101.5t-60.5 -70t-74.5 -44t-96 -23t-126.5 -6.5h-14v77q82 0 141 24.5t102 67t72 100.5t49 126l-300 707q-11 26 -21 42t-23 26.5t-30 14t-41 3.5h-5z" />
<glyph unicode="z" horiz-adv-x="827" d="M68 0v65l469 710h-253q-31 0 -51.5 -8.5t-33.5 -25t-21.5 -41t-17.5 -56.5l-1 -6h-68l16 229h620v-66l-471 -709h294q28 0 46.5 11.5t31 29.5t20 42t12.5 50l8 37h68l-8 -262h-660z" />
<glyph unicode="{" horiz-adv-x="692" d="M81 479v68q40 1 74.5 9t61 27.5t41 52t14.5 81.5v282q0 110 58.5 170t174.5 60h106v-69h-48q-72 0 -102 -43t-30 -127v-277q0 -79 -45 -131.5t-136 -67.5v-1q94 -16 137.5 -68t43.5 -133v-280q0 -83 30 -126t102 -43h48v-70h-106q-57 0 -101 16.5t-73 46.5t-44 73t-15 97 v281q0 50 -14.5 82.5t-41 52t-61 27.5t-74.5 10z" />
<glyph unicode="|" d="M403 -389v1618h97v-1618h-97z" />
<glyph unicode="}" horiz-adv-x="692" d="M81 -137h49q71 0 101.5 43t30.5 126v280q0 81 43 133t137 68v1q-90 15 -135 67.5t-45 131.5v277q0 84 -30.5 127t-101.5 43h-49v69h107q115 0 173.5 -60t58.5 -170v-282q0 -49 15 -81.5t41 -52t60.5 -27.5t74.5 -9v-68q-40 -2 -74.5 -10t-60.5 -27.5t-41 -52t-15 -82.5 v-281q0 -54 -15 -97t-44 -73t-72.5 -46.5t-100.5 -16.5h-107v70z" />
<glyph unicode="~" horiz-adv-x="907" d="M89 435q5 51 15 101.5t32 91t59.5 65.5t97.5 25q27 0 54 -10t52 -26t47.5 -35t41.5 -36q18 -15 34.5 -30t32.5 -26t32.5 -17.5t33.5 -6.5q45 0 66.5 48.5t32.5 138.5h97q-6 -50 -17 -101t-33.5 -91t-59 -65.5t-94.5 -25.5q-24 0 -49 10t-50 25t-47.5 33t-40.5 34 q-18 17 -35.5 32.5t-34.5 27t-34.5 19t-35.5 7.5q-47 0 -70 -46t-32 -142h-95z" />
<glyph unicode="&#xa1;" horiz-adv-x="538" d="M167 767q0 31 8 52t22 34t32.5 18.5t39.5 5.5t39.5 -5.5t32.5 -18.5t22 -34t8 -52q0 -32 -8 -53t-22 -33.5t-32.5 -18.5t-39.5 -6t-39.5 6t-32.5 18.5t-22 33.5t-8 53zM175 -290l56 830h75l57 -830h-188z" />
<glyph unicode="&#xa2;" d="M128 584q0 120 26 203.5t71 137t106 80t130 32.5v118h81v-118q47 -4 93.5 -15.5t83.5 -31.5t60.5 -49t23.5 -67q0 -56 -36 -79t-108 -23q0 33 -7 63.5t-21.5 54.5t-36.5 40.5t-52 22.5v-718q33 0 66.5 4.5t64.5 12t58 16.5t46 18v-88q-42 -23 -102.5 -40t-132.5 -19v-139 h-81v142q-73 8 -134.5 36t-105.5 80.5t-68.5 133t-24.5 192.5zM284 585q0 -144 43.5 -230t133.5 -111v709q-38 -7 -70.5 -29.5t-56.5 -66t-37 -110t-13 -162.5z" />
<glyph unicode="&#xa3;" d="M79 545v76h149q-11 25 -22 56t-19.5 64.5t-14 68.5t-5.5 68q0 70 23 124.5t65.5 92t103.5 57.5t138 20q78 0 132.5 -14t88.5 -38.5t49.5 -57.5t15.5 -72q0 -52 -34.5 -78.5t-93.5 -26.5q0 38 -7 74.5t-24.5 65.5t-49.5 47t-83 18q-94 0 -138 -53.5t-44 -154.5 q0 -38 6.5 -74.5t15.5 -70t20.5 -63t20.5 -53.5h275v-76h-252q12 -40 22 -82t10 -91q0 -69 -39 -122.5t-104 -97.5l4 -7q34 16 62.5 23t55.5 7q32 0 71 -9.5t77 -21.5t73.5 -21.5t59.5 -9.5q29 0 53 8.5t45.5 21.5t39 30t32.5 36v-106q-14 -19 -34 -40.5t-46 -39 t-58.5 -28.5t-73.5 -11q-40 0 -78.5 11.5t-78 25t-80.5 25t-84 11.5q-54 0 -100.5 -15.5t-98.5 -39.5l-22 -10v85l30 19q30 18 59.5 43.5t53 59t38.5 74.5t15 90q0 47 -11.5 92.5t-28.5 89.5h-180z" />
<glyph unicode="&#xa4;" d="M103 299l106 107q-26 36 -39.5 80t-13.5 93t13.5 93t40.5 80l-107 107l68 68l105 -107q38 27 81.5 42t93.5 15q47 0 91 -15t81 -42l109 109l67 -70l-106 -107q27 -36 41.5 -80t14.5 -93t-14.5 -93t-41.5 -80l106 -107l-66 -68l-108 107q-37 -25 -81 -40t-93 -15t-92.5 14 t-80.5 41l-107 -107zM246 579q0 -43 16 -80.5t44 -65.5t65 -44.5t80 -16.5q44 0 82 16.5t65.5 44.5t44 65.5t16.5 80.5q0 44 -16.5 82t-44 66t-65.5 44.5t-82 16.5q-43 0 -80 -16.5t-65 -44.5t-44 -66t-16 -82z" />
<glyph unicode="&#xa5;" d="M8 1087v68h393v-68h-11q-49 0 -70.5 -15t-21.5 -48q0 -19 6 -43t20 -52l77 -172q12 -25 23 -54.5t21 -58t18 -53t13 -40.5q3 9 10 26t16 37t19 41t18 38l92 197q19 42 29 78t10 54q0 33 -22.5 49t-76.5 16h-5v68h331v-68h-15q-21 0 -36 -5.5t-28 -19.5t-27 -38.5 t-32 -62.5l-197 -410h200v-75h-226v-113h226v-77h-226v-102q0 -38 10.5 -61t28 -35t42 -16t51.5 -4h37v-68h-496v68h37q27 0 50.5 3.5t41.5 14.5t28.5 33t11.5 57v110h-226v77h226v113h-226v75h196l-220 451q-12 23 -22 39.5t-23 26.5t-30 14.5t-40 4.5h-5z" />
<glyph unicode="&#xa6;" d="M403 259h97v-648h-97v648zM403 582v647h97v-647h-97z" />
<glyph unicode="&#xa7;" horiz-adv-x="880" d="M126 610q0 61 27 106.5t69 74.5q-30 35 -45 79t-15 102q0 62 22.5 110t62 80.5t94.5 49.5t119 17q66 0 115.5 -13.5t82 -38t49 -57.5t16.5 -72q0 -52 -31.5 -75t-83.5 -23q0 38 -8 73.5t-26.5 63.5t-48 45t-72.5 17q-81 0 -125.5 -40.5t-44.5 -117.5q0 -42 16 -71t48 -52 t78.5 -45.5l108.5 -52.5q69 -33 118.5 -66t82 -69t48 -76.5t15.5 -87.5q0 -29 -8.5 -58t-22 -55.5t-30.5 -50t-36 -42.5q23 -31 36 -70.5t13 -89.5q0 -64 -17.5 -117t-55 -91t-96.5 -59.5t-141 -21.5q-62 0 -113 12t-87.5 36t-56 58.5t-19.5 80.5q0 33 10.5 55t26 35t33 18 t31.5 5q0 -43 11 -82.5t33.5 -70.5t57.5 -49.5t84 -18.5q100 0 149 44t49 118q0 35 -9 61.5t-38.5 53t-86 58.5t-151.5 79q-64 31 -109.5 64t-74 69.5t-41.5 78t-13 89.5zM230 650q0 -32 11 -58t38 -50.5t72.5 -50.5t114.5 -60q49 -25 96.5 -50t86.5 -59q13 19 21.5 42 t8.5 50q0 28 -7.5 52.5t-30 49.5t-63.5 52.5t-106 59.5q-58 28 -109 54.5t-93 60.5q-17 -16 -28.5 -38t-11.5 -55z" />
<glyph unicode="&#xa8;" horiz-adv-x="933" d="M230 1113q0 25 6.5 42.5t17.5 28t26 15.5t32 5t32 -5t26.5 -15.5t18 -28t6.5 -42.5q0 -24 -6.5 -41.5t-18 -28.5t-26.5 -16t-32 -5q-36 0 -59 20.5t-23 70.5zM537 1113q0 25 6.5 42.5t17.5 28t26 15.5t32 5q18 0 33 -5t26.5 -15.5t17.5 -28t6 -42.5q0 -24 -6 -41.5 t-17.5 -28.5t-26.5 -16t-33 -5q-35 0 -58.5 20.5t-23.5 70.5z" />
<glyph unicode="&#xa9;" horiz-adv-x="1367" d="M89 577q0 83 21.5 159t60 142t92.5 120.5t120 93t141.5 60t158.5 21.5q82 0 158 -21.5t142 -60t120.5 -93t93.5 -120.5t60 -142t21 -159q0 -82 -21 -157.5t-60 -141.5t-93.5 -120.5t-120.5 -93t-142 -59.5t-158 -21q-83 0 -158.5 21t-141.5 59.5t-120 93t-92.5 120.5 t-60 141.5t-21.5 157.5zM178 577q0 -69 18 -133.5t51 -120.5t79 -102t102 -79t120.5 -51t134.5 -18t134.5 18t121 51t102.5 79t79 102t51 120.5t18 133.5q0 70 -18 135t-51 121.5t-79 102.5t-102.5 79t-121 51t-134.5 18t-134.5 -18t-120.5 -51t-102 -79t-79 -102.5 t-51 -121t-18 -135.5zM367 579q0 79 22.5 144.5t66 113t108 74t149.5 26.5q56 0 97.5 -9t69.5 -24.5t41.5 -36.5t13.5 -45q0 -18 -8.5 -32t-23.5 -24t-35 -15t-43 -5q0 23 -6 44.5t-19.5 39.5t-35 28.5t-54.5 10.5q-57 0 -96.5 -19t-65 -56t-37 -91t-11.5 -124 q0 -140 54.5 -215.5t157.5 -75.5q37 0 68.5 9.5t57 25.5t44 35.5t29.5 39.5q9 -7 16 -20t7 -30q0 -23 -15.5 -45.5t-46 -41.5t-76 -31t-106.5 -12q-80 0 -140.5 26t-101 73.5t-61 114t-20.5 147.5z" />
<glyph unicode="&#xaa;" horiz-adv-x="617" d="M57 780q0 80 64 118.5t196 44.5l69 3v47q0 25 -2.5 45t-11 34.5t-24 23t-42.5 8.5q-25 0 -40 -9t-23 -24t-11.5 -35t-3.5 -43q-61 0 -94.5 16t-33.5 54q0 28 17 47t45 31t66 17.5t81 5.5q54 0 93.5 -9.5t66 -30.5t39.5 -54.5t13 -81.5v-245q0 -37 15 -50.5t55 -13.5v-54 h-157l-30 74h-7q-15 -16 -32 -31t-37.5 -27t-46 -19t-56.5 -7q-78 0 -123 41.5t-45 123.5zM198 778q0 -50 21 -69.5t53 -19.5q27 0 48 9.5t36 27t22.5 41t7.5 51.5v77l-49 -2q-40 -1 -66.5 -9.5t-42.5 -23t-23 -35t-7 -47.5z" />
<glyph unicode="&#xab;" horiz-adv-x="831" d="M105 411v52l247 281h82l-164 -307l164 -307h-82zM398 411v52l247 281h82l-164 -307l164 -307h-82z" />
<glyph unicode="&#xac;" d="M105 531v95h694v-427h-97v332h-597z" />
<glyph unicode="&#xad;" horiz-adv-x="501" d="M40 380v122h421v-122h-421z" />
<glyph unicode="&#xae;" horiz-adv-x="1367" d="M89 577q0 83 21.5 159t60 142t92.5 120.5t120 93t141.5 60t158.5 21.5q82 0 158 -21.5t142 -60t120.5 -93t93.5 -120.5t60 -142t21 -159q0 -82 -21 -157.5t-60 -141.5t-93.5 -120.5t-120.5 -93t-142 -59.5t-158 -21q-83 0 -158.5 21t-141.5 59.5t-120 93t-92.5 120.5 t-60 141.5t-21.5 157.5zM178 577q0 -69 18 -133.5t51 -120.5t79 -102t102 -79t120.5 -51t134.5 -18t134.5 18t121 51t102.5 79t79 102t51 120.5t18 133.5q0 70 -18 135t-51 121.5t-79 102.5t-102.5 79t-121 51t-134.5 18t-134.5 -18t-120.5 -51t-102 -79t-79 -102.5 t-51 -121t-18 -135.5zM377 228v55h21q16 0 30 2t25 8t17 17t7 30v474q-1 19 -7 30.5t-17 17t-25 7.5t-30 2h-21v56h291q278 0 278 -192q0 -39 -12.5 -68t-33 -50.5t-47 -36t-54.5 -23.5l144 -232q8 -13 15.5 -21.5t18 -13t24 -6t33.5 -1.5v-55h-171l-179 301h-85v-189 q1 -19 7.5 -30t17 -17t24.5 -8t30 -2h23v-55h-324zM599 591h68q43 0 72.5 8.5t46.5 26t24.5 44.5t7.5 63t-8.5 61t-27 40.5t-48 22.5t-72.5 7h-63v-273z" />
<glyph unicode="&#xaf;" horiz-adv-x="742" d="M-8 1229v96h758v-96h-758z" />
<glyph unicode="&#xb0;" horiz-adv-x="647" d="M77 909q0 52 19.5 96.5t52.5 77.5t78 52.5t95 19.5q52 0 96.5 -19.5t77.5 -52.5t52.5 -77.5t19.5 -96.5q0 -50 -19.5 -95t-52.5 -78t-77.5 -52t-96.5 -19q-50 0 -95 19t-78 52t-52.5 78t-19.5 95zM175 909q0 -30 11.5 -57t31.5 -47.5t47 -32t57 -11.5q32 0 59 11.5t47 32 t31.5 47.5t11.5 57q0 32 -11.5 59t-31.5 47.5t-47 32t-59 11.5q-30 0 -57 -11.5t-47 -32t-31.5 -47.5t-11.5 -59z" />
<glyph unicode="&#xb1;" d="M105 0v96h694v-96h-694zM105 531v95h298v299h97v-299h299v-95h-299v-300h-97v300h-298z" />
<glyph unicode="&#xb2;" horiz-adv-x="647" d="M68 463v73l205 184q36 32 60.5 65t39 67t21 67t6.5 65q0 26 -5.5 48.5t-16.5 39.5t-29.5 26t-44.5 9q-29 0 -49.5 -11.5t-33 -31t-18 -45t-5.5 -53.5q-55 0 -86 13.5t-31 56.5q0 29 14 54t42 43t70 28.5t97 10.5q113 0 177 -45t64 -130q0 -38 -8.5 -71t-29 -66.5 t-54.5 -69t-84 -78.5l-171 -147h234q37 0 51.5 19.5t19.5 46.5l7 34h55l-5 -202h-492z" />
<glyph unicode="&#xb3;" horiz-adv-x="647" d="M65 585q0 36 20 58t54 22q0 -25 8.5 -50t25.5 -44.5t42.5 -32t60.5 -12.5q68 0 106 33t38 108q0 57 -41 90.5t-130 33.5h-53v66h53q31 0 57 10t45.5 28t30.5 44t11 58q0 54 -21 82t-71 28q-31 0 -51.5 -11.5t-32.5 -31t-17.5 -45t-5.5 -53.5q-27 0 -49.5 3t-38 11t-24 21 t-8.5 35q0 29 14.5 54t43.5 43t71.5 28.5t97.5 10.5q54 0 98 -11.5t75.5 -32t48.5 -50t17 -67.5q0 -35 -13 -63t-36 -49.5t-53 -37t-63 -24.5v-8q33 -6 67 -16t62 -28t46 -47t18 -73q0 -59 -26.5 -99.5t-68.5 -65.5t-92.5 -36t-99.5 -11q-106 0 -161 36.5t-55 95.5z" />
<glyph unicode="&#xb4;" horiz-adv-x="933" d="M309 980v22q18 23 37.5 53t38 62t35.5 64t30 59h173v-17q-15 -21 -44.5 -53t-65 -67t-73 -67.5t-69.5 -55.5h-62z" />
<glyph unicode="&#xb5;" horiz-adv-x="995" d="M139 -196q0 48 3 104t6 123.5t6.5 149.5t4.5 183v503h151v-543q0 -53 8 -96.5t26.5 -74.5t50 -48t77.5 -17q45 0 81.5 19t62 53t39 82.5t13.5 106.5v518h152v-658q0 -36 9.5 -62.5t24 -44t33 -26t35.5 -8.5h5v-68h-87q-67 0 -104.5 33t-52.5 97h-7q-19 -33 -40.5 -60 t-49 -45.5t-61 -29.5t-75.5 -11q-68 0 -117 25t-81 70q2 -67 5.5 -124t17 -99.5t38.5 -69t70 -33.5q0 -31 -6.5 -56.5t-20.5 -44.5t-35.5 -30t-50.5 -11q-25 0 -48.5 9.5t-42 32t-29.5 60t-11 91.5z" />
<glyph unicode="&#xb6;" horiz-adv-x="998" d="M65 942q0 64 13.5 117t43.5 91t77 58.5t116 20.5h617v-68h-21q-27 0 -51.5 -4t-42.5 -16t-28.5 -35t-10.5 -61v-1040q0 -38 10.5 -61t28.5 -35t42.5 -16t51.5 -4h21v-68h-253v1326h-153v-1326h-253v68h22q27 0 51.5 4t42 16t28 35t10.5 61v620h-115q-71 0 -118.5 25.5 t-76 69.5t-40.5 101t-12 121z" />
<glyph unicode="&#xb7;" horiz-adv-x="462" d="M131 576q0 32 8 53t22 33.5t32.5 18t39.5 5.5t39.5 -5.5t32 -18t22 -33.5t8.5 -53q0 -31 -8.5 -52t-22 -34t-32 -18.5t-39.5 -5.5t-39.5 5.5t-32.5 18.5t-22 34t-8 52z" />
<glyph unicode="&#xb8;" horiz-adv-x="538" d="M97 -288q29 -7 58.5 -10t51.5 -3q47 0 73 24.5t26 66.5q0 47 -34.5 71t-87.5 28l34 125h77l-17 -69q79 -7 118 -46t39 -103q0 -86 -55 -135.5t-158 -49.5q-13 0 -28.5 1.5t-32 3.5t-33.5 6t-31 7v83z" />
<glyph unicode="&#xb9;" horiz-adv-x="647" d="M105 1047v55h81q19 0 39.5 2.5t39.5 9.5t34 19t22 31h80v-583q0 -21 5.5 -33t15 -18.5t21.5 -8.5t26 -2h75v-54h-429v54h75q14 0 26 2t21 8.5t14 18.5t5 33v466h-151z" />
<glyph unicode="&#xba;" horiz-adv-x="642" d="M57 890q0 139 67 206.5t200 67.5q61 0 109 -17t82 -51t52 -85.5t18 -120.5q0 -140 -67 -207.5t-197 -67.5q-125 0 -194.5 68t-69.5 207zM198 890q0 -106 27.5 -158.5t96.5 -52.5q68 0 96 52.5t28 158.5q0 103 -28.5 154t-96.5 51t-95.5 -51t-27.5 -154z" />
<glyph unicode="&#xbb;" horiz-adv-x="831" d="M105 130l164 307l-164 307h81l248 -281v-52l-248 -281h-81zM398 130l164 307l-164 307h81l248 -281v-52l-248 -281h-81z" />
<glyph unicode="&#xbc;" horiz-adv-x="1358" d="M38 1047v55h81q18 0 39 2.5t39.5 9.5t33.5 19t23 31h80v-583q0 -21 5.5 -33t14.5 -18.5t21.5 -8.5t26.5 -2h74v-54h-429v54h75q15 0 26.5 2t21 8.5t14.5 18.5t5 33v466h-151zM340 0l577 1155h106l-576 -1155h-107zM735 206v48l302 446h130v-424h155v-70h-155v-89 q0 -21 5.5 -33t15 -18.5t21.5 -8.5t26 -2h32v-54h-356v54h45q13 0 25 2t21 8.5t14.5 18.5t5.5 33v89h-287zM830 276h192v182q0 25 2.5 57.5t6.5 62.5q-6 -13 -13.5 -26.5t-11.5 -19.5z" />
<glyph unicode="&#xbd;" horiz-adv-x="1358" d="M38 1047v55h81q19 0 39.5 2.5t39.5 9.5t34 19t22 31h80v-583q0 -21 5.5 -33t15 -18.5t21.5 -8.5t26 -2h75v-54h-429v54h75q14 0 26 2t21 8.5t14 18.5t5 33v466h-151zM307 0l578 1155h106l-576 -1155h-108zM803 1v73l205 184q36 32 60.5 65t39 67t21 67t6.5 65 q0 26 -5.5 48.5t-16.5 39.5t-29.5 26t-44.5 9q-29 0 -49.5 -11.5t-33 -31t-18 -45t-5.5 -53.5q-55 0 -86 13.5t-31 56.5q0 29 14 54t42 43t70 28.5t97 10.5q113 0 177 -45t64 -130q0 -38 -8.5 -71t-29 -66.5t-54.5 -69t-84 -78.5l-171 -147h234q37 0 51.5 19.5t19.5 46.5 l7 34h55l-5 -202h-492z" />
<glyph unicode="&#xbe;" horiz-adv-x="1358" d="M65 585q0 36 20 58t54 22q0 -25 8.5 -50t25.5 -44.5t42.5 -32t60.5 -12.5q68 0 106 33t38 108q0 57 -41 90.5t-130 33.5h-53v66h53q31 0 57 10t45.5 28t30.5 44t11 58q0 54 -21 82t-71 28q-31 0 -51.5 -11.5t-32.5 -31t-17.5 -45t-5.5 -53.5q-27 0 -49.5 3t-38 11t-24 21 t-8.5 35q0 29 14.5 54t43.5 43t71.5 28.5t97.5 10.5q54 0 98 -11.5t75.5 -32t48.5 -50t17 -67.5q0 -35 -13 -63t-36 -49.5t-53 -37t-63 -24.5v-8q33 -6 67 -16t62 -28t46 -47t18 -73q0 -59 -26.5 -99.5t-68.5 -65.5t-92.5 -36t-99.5 -11q-106 0 -161 36.5t-55 95.5zM372 0 l578 1155h105l-575 -1155h-108zM735 206v48l302 446h130v-424h155v-70h-155v-89q0 -21 5.5 -33t15 -18.5t21.5 -8.5t26 -2h32v-54h-356v54h45q13 0 25 2t21 8.5t14.5 18.5t5.5 33v89h-287zM830 276h192v182q0 25 2.5 57.5t6.5 62.5q-6 -13 -13.5 -26.5t-11.5 -19.5z" />
<glyph unicode="&#xbf;" horiz-adv-x="808" d="M82 -14q0 66 21 121t61.5 100t99 81.5t133.5 67.5v183h98v-246q-70 -28 -118 -66t-76.5 -81.5t-41 -91t-12.5 -96.5q0 -42 10.5 -76t31.5 -58.5t55 -38t80 -13.5q51 0 85.5 16.5t55.5 45t30.5 66t9.5 79.5q29 0 53.5 -7t42.5 -20t28 -32.5t10 -45.5q0 -39 -17.5 -72 t-55 -57.5t-94.5 -38t-135 -13.5q-77 0 -141.5 19.5t-112 57t-74.5 92t-27 124.5zM346 766q0 30 8.5 51t22 34t32 18.5t39.5 5.5t39.5 -5.5t32.5 -18.5t22 -34t8 -51q0 -32 -8 -53.5t-22 -34t-32.5 -18t-39.5 -5.5t-39.5 5.5t-32 18t-22 34t-8.5 53.5z" />
<glyph unicode="&#xc0;" horiz-adv-x="1140" d="M0 0v68h31q24 0 40.5 5t30 19.5t25.5 39t27 62.5l359 961h126l366 -1001q9 -25 19 -41.5t23.5 -26.5t31 -14t40.5 -4h22v-68h-445v68h37q97 0 97 77q0 14 -3.5 28t-9.5 32l-65 181h-425l-62 -170q-7 -18 -11 -37t-4 -32q0 -41 26.5 -60t81.5 -19h37v-68h-395zM321 1490 v17h173q13 -27 30 -59t36 -64t39 -62t37 -53v-22h-62q-32 23 -70 55.5t-73.5 67.5t-65 67t-44.5 53zM358 468h365l-100 282q-26 72 -47 135t-34 121q-6 -29 -13.5 -56t-16 -55.5t-19.5 -60t-25 -68.5z" />
<glyph unicode="&#xc1;" horiz-adv-x="1140" d="M0 0v68h31q24 0 40.5 5t30 19.5t25.5 39t27 62.5l359 961h126l366 -1001q9 -25 19 -41.5t23.5 -26.5t31 -14t40.5 -4h22v-68h-445v68h37q97 0 97 77q0 14 -3.5 28t-9.5 32l-65 181h-425l-62 -170q-7 -18 -11 -37t-4 -32q0 -41 26.5 -60t81.5 -19h37v-68h-395zM358 468 h365l-100 282q-26 72 -47 135t-34 121q-6 -29 -13.5 -56t-16 -55.5t-19.5 -60t-25 -68.5zM503 1247v22q18 23 37.5 53t38 62t35.5 64t30 59h173v-17q-15 -21 -44.5 -53t-65 -67t-73 -67.5t-69.5 -55.5h-62z" />
<glyph unicode="&#xc2;" horiz-adv-x="1140" d="M0 0v68h31q24 0 40.5 5t30 19.5t25.5 39t27 62.5l359 961h126l366 -1001q9 -25 19 -41.5t23.5 -26.5t31 -14t40.5 -4h22v-68h-445v68h37q97 0 97 77q0 14 -3.5 28t-9.5 32l-65 181h-425l-62 -170q-7 -18 -11 -37t-4 -32q0 -41 26.5 -60t81.5 -19h37v-68h-395zM333 1247 v22q19 23 42 53t45.5 62t42.5 64t32 59h154q12 -27 32 -59t42.5 -64t45.5 -62t41 -53v-22h-63q-46 27 -93 67t-83 79q-37 -39 -83 -79t-91 -67h-64zM358 468h365l-100 282q-26 72 -47 135t-34 121q-6 -29 -13.5 -56t-16 -55.5t-19.5 -60t-25 -68.5z" />
<glyph unicode="&#xc3;" horiz-adv-x="1140" d="M0 0v68h31q24 0 40.5 5t30 19.5t25.5 39t27 62.5l359 961h126l366 -1001q9 -25 19 -41.5t23.5 -26.5t31 -14t40.5 -4h22v-68h-445v68h37q97 0 97 77q0 14 -3.5 28t-9.5 32l-65 181h-425l-62 -170q-7 -18 -11 -37t-4 -32q0 -41 26.5 -60t81.5 -19h37v-68h-395zM283 1264 q2 37 12.5 71t31.5 61t52.5 42.5t74.5 15.5q44 0 79 -15.5t65.5 -35t57 -35.5t51.5 -16q24 0 38.5 7.5t23 19.5t12 27.5t5.5 32.5h73q-3 -38 -13.5 -72t-31 -61t-51.5 -43t-74 -16q-44 0 -79 16t-65.5 35.5t-57 35t-52.5 15.5q-24 0 -38.5 -7t-22.5 -19t-12 -27t-7 -32h-72z M358 468h365l-100 282q-26 72 -47 135t-34 121q-6 -29 -13.5 -56t-16 -55.5t-19.5 -60t-25 -68.5z" />
<glyph unicode="&#xc4;" horiz-adv-x="1140" d="M0 0v68h31q24 0 40.5 5t30 19.5t25.5 39t27 62.5l359 961h126l366 -1001q9 -25 19 -41.5t23.5 -26.5t31 -14t40.5 -4h22v-68h-445v68h37q97 0 97 77q0 14 -3.5 28t-9.5 32l-65 181h-425l-62 -170q-7 -18 -11 -37t-4 -32q0 -41 26.5 -60t81.5 -19h37v-68h-395zM335 1380 q0 25 6.5 42.5t17.5 28t26 15.5t32 5t32 -5t26.5 -15.5t18 -28t6.5 -42.5q0 -24 -6.5 -41.5t-18 -28.5t-26.5 -16t-32 -5q-36 0 -59 20.5t-23 70.5zM358 468h365l-100 282q-26 72 -47 135t-34 121q-6 -29 -13.5 -56t-16 -55.5t-19.5 -60t-25 -68.5zM642 1380q0 25 6.5 42.5 t17.5 28t26 15.5t32 5q18 0 33 -5t26.5 -15.5t17.5 -28t6 -42.5q0 -24 -6 -41.5t-17.5 -28.5t-26.5 -16t-33 -5q-35 0 -58.5 20.5t-23.5 70.5z" />
<glyph unicode="&#xc5;" horiz-adv-x="1140" d="M0 0v68h31q24 0 40.5 5t30 19.5t25.5 39t27 62.5l359 961h126l366 -1001q9 -25 19 -41.5t23.5 -26.5t31 -14t40.5 -4h22v-68h-445v68h37q97 0 97 77q0 14 -3.5 28t-9.5 32l-65 181h-425l-62 -170q-7 -18 -11 -37t-4 -32q0 -41 26.5 -60t81.5 -19h37v-68h-395zM358 468 h365l-100 282q-26 72 -47 135t-34 121q-6 -29 -13.5 -56t-16 -55.5t-19.5 -60t-25 -68.5zM378 1252q0 42 15 75.5t41.5 55.5t62 33.5t76.5 11.5q40 0 75.5 -11.5t62 -33.5t41.5 -55.5t15 -75.5q0 -44 -15 -76.5t-41.5 -54.5t-62 -33.5t-75.5 -11.5q-41 0 -76.5 11.5 t-62 33.5t-41.5 54.5t-15 76.5zM466 1252q0 -26 8.5 -44.5t23 -30t33.5 -17t42 -5.5q22 0 41 5.5t34 17t23 30t8 44.5t-8 44.5t-23 30t-34 17t-41 5.5q-23 0 -42 -5.5t-33.5 -17t-23 -30t-8.5 -44.5z" />
<glyph unicode="&#xc6;" horiz-adv-x="1538" d="M0 0v68h26q43 0 76.5 30t67.5 96l468 885l-127 8v68h897l8 -283h-84l-9 70q-3 27 -11.5 50.5t-25.5 41t-43 29t-62 11.5h-272v-430h391v-79h-391v-484h312q38 0 65.5 10.5t45.5 28.5t28.5 42t14.5 51l11 70h85l-12 -283h-867v68h21q27 0 50.5 3.5t41.5 14.5t29 33t12 57 v210h-372l-90 -170q-13 -25 -19 -48t-6 -37q0 -33 25 -48t72 -15h37v-68h-393zM416 468h330v606h-23q-20 -44 -52.5 -109.5t-73 -145t-87 -169.5t-94.5 -182z" />
<glyph unicode="&#xc7;" horiz-adv-x="993" d="M92 579q0 131 33.5 240t98.5 187.5t162 122t225 43.5q83 0 144.5 -14t102 -38.5t61 -57.5t20.5 -72q0 -26 -11 -47t-30 -35.5t-44.5 -22.5t-55.5 -8q0 38 -10 75t-32.5 66.5t-58.5 48t-89 18.5q-91 0 -155 -33.5t-104.5 -97.5t-58.5 -158.5t-18 -216.5q0 -108 19 -198 t60 -154.5t104.5 -100t152.5 -35.5q60 0 105 11.5t80 30.5t61.5 43.5t46.5 51.5q14 -8 22.5 -23t8.5 -40q0 -31 -21 -63t-63.5 -58t-108 -43t-155.5 -17q-121 0 -212.5 43t-153.5 121t-94 188t-32 243zM406 -288q29 -7 58.5 -10t51.5 -3q47 0 73 24.5t26 66.5q0 47 -34.5 71 t-87.5 28l34 125h77l-17 -69q79 -7 118 -46t39 -103q0 -86 -55 -135.5t-158 -49.5q-13 0 -28.5 1.5t-32 3.5t-33.5 6t-31 7v83z" />
<glyph unicode="&#xc8;" horiz-adv-x="1008" d="M62 0v68h20q27 0 51 3.5t42.5 14.5t29 33t10.5 57v795q0 38 -10.5 61t-28.5 35t-42 16t-52 4h-20v68h815l8 -283h-84l-8 70q-3 27 -12 51t-26 42t-42.5 28.5t-62.5 10.5h-272v-430h391v-79h-391v-484h312q39 0 66.5 10.5t45.5 28.5t28.5 42t14.5 51l11 70h84l-11 -283 h-867zM272 1490v17h173q13 -27 30 -59t36 -64t39 -62t37 -53v-22h-62q-32 23 -70 55.5t-73.5 67.5t-65 67t-44.5 53z" />
<glyph unicode="&#xc9;" horiz-adv-x="1008" d="M62 0v68h20q27 0 51 3.5t42.5 14.5t29 33t10.5 57v795q0 38 -10.5 61t-28.5 35t-42 16t-52 4h-20v68h815l8 -283h-84l-8 70q-3 27 -12 51t-26 42t-42.5 28.5t-62.5 10.5h-272v-430h391v-79h-391v-484h312q39 0 66.5 10.5t45.5 28.5t28.5 42t14.5 51l11 70h84l-11 -283 h-867zM431 1247v22q18 23 37.5 53t38 62t35.5 64t30 59h173v-17q-15 -21 -44.5 -53t-65 -67t-73 -67.5t-69.5 -55.5h-62z" />
<glyph unicode="&#xca;" horiz-adv-x="1008" d="M62 0v68h20q27 0 51 3.5t42.5 14.5t29 33t10.5 57v795q0 38 -10.5 61t-28.5 35t-42 16t-52 4h-20v68h815l8 -283h-84l-8 70q-3 27 -12 51t-26 42t-42.5 28.5t-62.5 10.5h-272v-430h391v-79h-391v-484h312q39 0 66.5 10.5t45.5 28.5t28.5 42t14.5 51l11 70h84l-11 -283 h-867zM276 1247v22q19 23 42 53t45.5 62t42.5 64t32 59h154q12 -27 32 -59t42.5 -64t45.5 -62t41 -53v-22h-63q-46 27 -93 67t-83 79q-37 -39 -83 -79t-91 -67h-64z" />
<glyph unicode="&#xcb;" horiz-adv-x="1008" d="M62 0v68h20q27 0 51 3.5t42.5 14.5t29 33t10.5 57v795q0 38 -10.5 61t-28.5 35t-42 16t-52 4h-20v68h815l8 -283h-84l-8 70q-3 27 -12 51t-26 42t-42.5 28.5t-62.5 10.5h-272v-430h391v-79h-391v-484h312q39 0 66.5 10.5t45.5 28.5t28.5 42t14.5 51l11 70h84l-11 -283 h-867zM270 1380q0 25 6.5 42.5t17.5 28t26 15.5t32 5t32 -5t26.5 -15.5t18 -28t6.5 -42.5q0 -24 -6.5 -41.5t-18 -28.5t-26.5 -16t-32 -5q-36 0 -59 20.5t-23 70.5zM577 1380q0 25 6.5 42.5t17.5 28t26 15.5t32 5q18 0 33 -5t26.5 -15.5t17.5 -28t6 -42.5q0 -24 -6 -41.5 t-17.5 -28.5t-26.5 -16t-33 -5q-35 0 -58.5 20.5t-23.5 70.5z" />
<glyph unicode="&#xcc;" horiz-adv-x="594" d="M59 1490v17h173q13 -27 30 -59t36 -64t39 -62t37 -53v-22h-62q-32 23 -70 55.5t-73.5 67.5t-65 67t-44.5 53zM62 0v68h20q28 0 52 4t42 16t28.5 35t10.5 61v787q0 38 -10.5 61t-28.5 35t-42 16t-52 4h-20v68h470v-68h-21q-27 0 -51.5 -4t-42 -16t-28.5 -35t-11 -61v-787 q0 -38 11 -61t28.5 -35t42 -16t51.5 -4h21v-68h-470z" />
<glyph unicode="&#xcd;" horiz-adv-x="594" d="M62 0v68h20q28 0 52 4t42 16t28.5 35t10.5 61v787q0 38 -10.5 61t-28.5 35t-42 16t-52 4h-20v68h470v-68h-21q-27 0 -51.5 -4t-42 -16t-28.5 -35t-11 -61v-787q0 -38 11 -61t28.5 -35t42 -16t51.5 -4h21v-68h-470zM214 1247v22q18 23 37.5 53t38 62t35.5 64t30 59h173 v-17q-15 -21 -44.5 -53t-65 -67t-73 -67.5t-69.5 -55.5h-62z" />
<glyph unicode="&#xce;" horiz-adv-x="594" d="M57 1247v22q19 23 42 53t45.5 62t42.5 64t32 59h154q12 -27 32 -59t42.5 -64t45.5 -62t41 -53v-22h-63q-46 27 -93 67t-83 79q-37 -39 -83 -79t-91 -67h-64zM62 0v68h20q28 0 52 4t42 16t28.5 35t10.5 61v787q0 38 -10.5 61t-28.5 35t-42 16t-52 4h-20v68h470v-68h-21 q-27 0 -51.5 -4t-42 -16t-28.5 -35t-11 -61v-787q0 -38 11 -61t28.5 -35t42 -16t51.5 -4h21v-68h-470z" />
<glyph unicode="&#xcf;" horiz-adv-x="594" d="M58 1380q0 25 6.5 42.5t17.5 28t26 15.5t32 5t32 -5t26.5 -15.5t18 -28t6.5 -42.5q0 -24 -6.5 -41.5t-18 -28.5t-26.5 -16t-32 -5q-36 0 -59 20.5t-23 70.5zM62 0v68h20q28 0 52 4t42 16t28.5 35t10.5 61v787q0 38 -10.5 61t-28.5 35t-42 16t-52 4h-20v68h470v-68h-21 q-27 0 -51.5 -4t-42 -16t-28.5 -35t-11 -61v-787q0 -38 11 -61t28.5 -35t42 -16t51.5 -4h21v-68h-470zM365 1380q0 25 6.5 42.5t17.5 28t26 15.5t32 5q18 0 33 -5t26.5 -15.5t17.5 -28t6 -42.5q0 -24 -6 -41.5t-17.5 -28.5t-26.5 -16t-33 -5q-35 0 -58.5 20.5t-23.5 70.5z " />
<glyph unicode="&#xd0;" horiz-adv-x="1176" d="M62 0v68h20q28 0 52 4t42 16t28.5 35t10.5 61v381h-153v79h153v333q0 36 -10.5 57.5t-29 33.5t-42.5 15.5t-51 3.5h-20v68h495q125 0 223 -38.5t165.5 -112t103 -180.5t35.5 -245q0 -133 -33 -240t-99 -182.5t-165 -116t-230 -40.5h-495zM378 82h141q96 0 168.5 33 t120.5 96t72.5 155.5t24.5 212.5t-24.5 212.5t-72 155.5t-120 95t-167.5 32h-143v-430h275v-79h-275v-483z" />
<glyph unicode="&#xd1;" horiz-adv-x="1234" d="M62 0v68h20q28 0 52 4t42 16t28.5 35t10.5 61v793q0 36 -10.5 57.5t-29 33.5t-42.5 15.5t-51 3.5h-20v68h296l579 -894v716q0 36 -10.5 57.5t-29 33.5t-42.5 15.5t-51 3.5h-21v68h406v-68h-21q-27 0 -51 -4t-42.5 -16t-28.5 -35t-10 -61v-971h-116l-606 932v-748 q0 -38 10.5 -61t28.5 -35t42 -16t51 -4h22v-68h-406zM349 1264q2 37 12.5 71t31.5 61t52.5 42.5t74.5 15.5q44 0 79 -15.5t65.5 -35t57 -35.5t51.5 -16q24 0 38.5 7.5t23 19.5t12 27.5t5.5 32.5h73q-3 -38 -13.5 -72t-31 -61t-51.5 -43t-74 -16q-44 0 -79 16t-65.5 35.5 t-57 35t-52.5 15.5q-24 0 -38.5 -7t-22.5 -19t-12 -27t-7 -32h-72z" />
<glyph unicode="&#xd2;" horiz-adv-x="1200" d="M91 581q0 134 31.5 243.5t94.5 187t159.5 119.5t225.5 42q122 0 216 -42t159 -120t98 -187.5t33 -244.5q0 -133 -33 -243t-98 -188t-159.5 -121t-217.5 -43q-128 0 -224 43t-159 121t-94.5 188t-31.5 245zM270 579q0 -120 18 -214.5t57.5 -159.5t102 -99.5t152.5 -34.5 t153 34.5t102 99.5t56.5 159.5t17.5 214.5t-17.5 214.5t-56.5 159.5t-101 98.5t-152 33.5t-153 -33.5t-103 -98.5t-58 -159.5t-18 -214.5zM365 1490v17h173q13 -27 30 -59t36 -64t39 -62t37 -53v-22h-62q-32 23 -70 55.5t-73.5 67.5t-65 67t-44.5 53z" />
<glyph unicode="&#xd3;" horiz-adv-x="1200" d="M91 581q0 134 31.5 243.5t94.5 187t159.5 119.5t225.5 42q122 0 216 -42t159 -120t98 -187.5t33 -244.5q0 -133 -33 -243t-98 -188t-159.5 -121t-217.5 -43q-128 0 -224 43t-159 121t-94.5 188t-31.5 245zM270 579q0 -120 18 -214.5t57.5 -159.5t102 -99.5t152.5 -34.5 t153 34.5t102 99.5t56.5 159.5t17.5 214.5t-17.5 214.5t-56.5 159.5t-101 98.5t-152 33.5t-153 -33.5t-103 -98.5t-58 -159.5t-18 -214.5zM513 1247v22q18 23 37.5 53t38 62t35.5 64t30 59h173v-17q-15 -21 -44.5 -53t-65 -67t-73 -67.5t-69.5 -55.5h-62z" />
<glyph unicode="&#xd4;" horiz-adv-x="1200" d="M91 581q0 134 31.5 243.5t94.5 187t159.5 119.5t225.5 42q122 0 216 -42t159 -120t98 -187.5t33 -244.5q0 -133 -33 -243t-98 -188t-159.5 -121t-217.5 -43q-128 0 -224 43t-159 121t-94.5 188t-31.5 245zM270 579q0 -120 18 -214.5t57.5 -159.5t102 -99.5t152.5 -34.5 t153 34.5t102 99.5t56.5 159.5t17.5 214.5t-17.5 214.5t-56.5 159.5t-101 98.5t-152 33.5t-153 -33.5t-103 -98.5t-58 -159.5t-18 -214.5zM362 1247v22q19 23 42 53t45.5 62t42.5 64t32 59h154q12 -27 32 -59t42.5 -64t45.5 -62t41 -53v-22h-63q-46 27 -93 67t-83 79 q-37 -39 -83 -79t-91 -67h-64z" />
<glyph unicode="&#xd5;" horiz-adv-x="1200" d="M91 581q0 134 31.5 243.5t94.5 187t159.5 119.5t225.5 42q122 0 216 -42t159 -120t98 -187.5t33 -244.5q0 -133 -33 -243t-98 -188t-159.5 -121t-217.5 -43q-128 0 -224 43t-159 121t-94.5 188t-31.5 245zM270 579q0 -120 18 -214.5t57.5 -159.5t102 -99.5t152.5 -34.5 t153 34.5t102 99.5t56.5 159.5t17.5 214.5t-17.5 214.5t-56.5 159.5t-101 98.5t-152 33.5t-153 -33.5t-103 -98.5t-58 -159.5t-18 -214.5zM301 1264q2 37 12.5 71t31.5 61t52.5 42.5t74.5 15.5q44 0 79 -15.5t65.5 -35t57 -35.5t51.5 -16q24 0 38.5 7.5t23 19.5t12 27.5 t5.5 32.5h73q-3 -38 -13.5 -72t-31 -61t-51.5 -43t-74 -16q-44 0 -79 16t-65.5 35.5t-57 35t-52.5 15.5q-24 0 -38.5 -7t-22.5 -19t-12 -27t-7 -32h-72z" />
<glyph unicode="&#xd6;" horiz-adv-x="1200" d="M91 581q0 134 31.5 243.5t94.5 187t159.5 119.5t225.5 42q122 0 216 -42t159 -120t98 -187.5t33 -244.5q0 -133 -33 -243t-98 -188t-159.5 -121t-217.5 -43q-128 0 -224 43t-159 121t-94.5 188t-31.5 245zM270 579q0 -120 18 -214.5t57.5 -159.5t102 -99.5t152.5 -34.5 t153 34.5t102 99.5t56.5 159.5t17.5 214.5t-17.5 214.5t-56.5 159.5t-101 98.5t-152 33.5t-153 -33.5t-103 -98.5t-58 -159.5t-18 -214.5zM360 1380q0 25 6.5 42.5t17.5 28t26 15.5t32 5t32 -5t26.5 -15.5t18 -28t6.5 -42.5q0 -24 -6.5 -41.5t-18 -28.5t-26.5 -16t-32 -5 q-36 0 -59 20.5t-23 70.5zM667 1380q0 25 6.5 42.5t17.5 28t26 15.5t32 5q18 0 33 -5t26.5 -15.5t17.5 -28t6 -42.5q0 -24 -6 -41.5t-17.5 -28.5t-26.5 -16t-33 -5q-35 0 -58.5 20.5t-23.5 70.5z" />
<glyph unicode="&#xd7;" d="M115 312l268 269l-268 267l67 68l269 -269l269 270l68 -69l-269 -269l269 -269l-68 -67l-269 268l-269 -268z" />
<glyph unicode="&#xd8;" horiz-adv-x="1200" d="M91 581q0 134 31.5 243.5t94.5 187t159.5 119.5t225.5 42q72 0 133.5 -15.5t113.5 -42.5l60 106h94l-84 -151q93 -77 141 -202t48 -289q0 -133 -33 -243t-98 -188t-159.5 -121t-217.5 -43q-73 0 -136 14t-115 41l-56 -104h-95l82 149q-96 77 -142.5 204t-46.5 293z M270 579q0 -122 18 -215.5t58 -159.5l452 817q-74 64 -196 64q-90 0 -153 -33.5t-103 -98.5t-58 -159.5t-18 -214.5zM403 134q75 -63 197 -63q90 0 153 34.5t102 99.5t56.5 159.5t17.5 214.5q0 121 -18 214.5t-57 159.5z" />
<glyph unicode="&#xd9;" horiz-adv-x="1159" d="M24 1087v68h471v-68h-21q-27 0 -51.5 -4t-42 -16t-28.5 -35t-11 -61v-631q0 -71 20.5 -120t56 -80t85 -45t108.5 -14q71 0 122 18.5t84.5 52.5t49.5 80t16 101v644q0 36 -10.5 57.5t-28.5 33.5t-42.5 15.5t-51.5 3.5h-20v68h406v-68h-21q-27 0 -51.5 -4t-42.5 -16 t-28.5 -35t-10.5 -61v-641q0 -80 -25.5 -144.5t-76 -109t-124.5 -68.5t-171 -24q-95 0 -171 20t-128.5 64t-80 113t-27.5 168v628q0 36 -11 57.5t-29 33.5t-42 15.5t-51 3.5h-21zM358 1490v17h173q13 -27 30 -59t36 -64t39 -62t37 -53v-22h-62q-32 23 -70 55.5t-73.5 67.5 t-65 67t-44.5 53z" />
<glyph unicode="&#xda;" horiz-adv-x="1159" d="M24 1087v68h471v-68h-21q-27 0 -51.5 -4t-42 -16t-28.5 -35t-11 -61v-631q0 -71 20.5 -120t56 -80t85 -45t108.5 -14q71 0 122 18.5t84.5 52.5t49.5 80t16 101v644q0 36 -10.5 57.5t-28.5 33.5t-42.5 15.5t-51.5 3.5h-20v68h406v-68h-21q-27 0 -51.5 -4t-42.5 -16 t-28.5 -35t-10.5 -61v-641q0 -80 -25.5 -144.5t-76 -109t-124.5 -68.5t-171 -24q-95 0 -171 20t-128.5 64t-80 113t-27.5 168v628q0 36 -11 57.5t-29 33.5t-42 15.5t-51 3.5h-21zM513 1247v22q18 23 37.5 53t38 62t35.5 64t30 59h173v-17q-15 -21 -44.5 -53t-65 -67 t-73 -67.5t-69.5 -55.5h-62z" />
<glyph unicode="&#xdb;" horiz-adv-x="1159" d="M24 1087v68h471v-68h-21q-27 0 -51.5 -4t-42 -16t-28.5 -35t-11 -61v-631q0 -71 20.5 -120t56 -80t85 -45t108.5 -14q71 0 122 18.5t84.5 52.5t49.5 80t16 101v644q0 36 -10.5 57.5t-28.5 33.5t-42.5 15.5t-51.5 3.5h-20v68h406v-68h-21q-27 0 -51.5 -4t-42.5 -16 t-28.5 -35t-10.5 -61v-641q0 -80 -25.5 -144.5t-76 -109t-124.5 -68.5t-171 -24q-95 0 -171 20t-128.5 64t-80 113t-27.5 168v628q0 36 -11 57.5t-29 33.5t-42 15.5t-51 3.5h-21zM372 1247v22q19 23 42 53t45.5 62t42.5 64t32 59h154q12 -27 32 -59t42.5 -64t45.5 -62 t41 -53v-22h-63q-46 27 -93 67t-83 79q-37 -39 -83 -79t-91 -67h-64z" />
<glyph unicode="&#xdc;" horiz-adv-x="1159" d="M24 1087v68h471v-68h-21q-27 0 -51.5 -4t-42 -16t-28.5 -35t-11 -61v-631q0 -71 20.5 -120t56 -80t85 -45t108.5 -14q71 0 122 18.5t84.5 52.5t49.5 80t16 101v644q0 36 -10.5 57.5t-28.5 33.5t-42.5 15.5t-51.5 3.5h-20v68h406v-68h-21q-27 0 -51.5 -4t-42.5 -16 t-28.5 -35t-10.5 -61v-641q0 -80 -25.5 -144.5t-76 -109t-124.5 -68.5t-171 -24q-95 0 -171 20t-128.5 64t-80 113t-27.5 168v628q0 36 -11 57.5t-29 33.5t-42 15.5t-51 3.5h-21zM377 1380q0 25 6.5 42.5t17.5 28t26 15.5t32 5t32 -5t26.5 -15.5t18 -28t6.5 -42.5 q0 -24 -6.5 -41.5t-18 -28.5t-26.5 -16t-32 -5q-36 0 -59 20.5t-23 70.5zM684 1380q0 25 6.5 42.5t17.5 28t26 15.5t32 5q18 0 33 -5t26.5 -15.5t17.5 -28t6 -42.5q0 -24 -6 -41.5t-17.5 -28.5t-26.5 -16t-33 -5q-35 0 -58.5 20.5t-23.5 70.5z" />
<glyph unicode="&#xdd;" horiz-adv-x="1011" d="M-8 1087v68h445v-68h-60q-22 0 -36 -4t-22 -11t-10.5 -16.5t-2.5 -19.5q0 -23 9.5 -46t19.5 -40l119 -217q29 -50 48.5 -98.5t33.5 -86.5q7 18 17.5 39t23.5 45t27.5 50t28.5 51l103 186q16 27 23 52t7 45q0 35 -25.5 53t-72.5 18h-47v68h395v-68h-19q-17 0 -32.5 -6 t-31.5 -20.5t-33 -38.5t-37 -61l-272 -479v-298q0 -38 10 -61t28.5 -35t42.5 -16t51 -4h38v-68h-503v68h37q27 0 51 3.5t42 14.5t28.5 33t10.5 57v306l-299 520q-13 23 -25 39t-25 26.5t-29 15t-36 4.5h-21zM448 1247v22q18 23 37.5 53t38 62t35.5 64t30 59h173v-17 q-15 -21 -44.5 -53t-65 -67t-73 -67.5t-69.5 -55.5h-62z" />
<glyph unicode="&#xde;" horiz-adv-x="977" d="M62 0v68h20q28 0 52 4t42 16t28.5 35t10.5 61v787q0 38 -10.5 61t-28.5 35t-42 16t-52 4h-20v68h486v-68h-37q-27 0 -51.5 -4t-42 -16t-28.5 -35t-11 -61v-49h138q204 0 301 -82t97 -240q0 -71 -22.5 -135t-74 -112.5t-134.5 -76t-203 -27.5h-102v-65q0 -38 11 -61 t28.5 -35t42 -16t51.5 -4h37v-68h-486zM378 325h87q73 0 125 13.5t85.5 44.5t48.5 82.5t15 128.5q0 68 -13 115.5t-43 77.5t-78 44t-117 14h-110v-520z" />
<glyph unicode="&#xdf;" horiz-adv-x="1046" d="M37 0v68h21q28 0 52 4t42 16t28.5 35t10.5 61v607h-131v76h131v49q0 89 27 150t74 98.5t110.5 54t137.5 16.5q101 0 168.5 -29t108 -84.5t58 -138t18.5 -188.5h-118q-86 0 -126.5 -33t-40.5 -98q0 -25 8 -45t28 -38.5t52 -37t81 -41.5q60 -28 99 -59t61 -65t30.5 -69.5 t8.5 -72.5q0 -61 -19 -108.5t-54.5 -79t-86 -48t-114.5 -16.5q-57 0 -103.5 11t-79.5 32.5t-51 53.5t-18 75q0 32 9 53.5t23.5 34.5t30.5 18t29 5q0 -43 8.5 -80t27 -65t48.5 -44t75 -16q59 0 97.5 36t38.5 111q0 26 -6 49t-23.5 44.5t-48.5 43t-80 44.5q-50 26 -89 50.5 t-64.5 54.5t-38.5 67.5t-13 89.5q0 49 16 89t49 69t83 45t119 16q0 76 -11 131t-35.5 90.5t-63 52t-92.5 16.5q-49 0 -86 -15.5t-61.5 -44.5t-36.5 -70t-12 -92v-939h-306z" />
<glyph unicode="&#xe0;" horiz-adv-x="910" d="M81 243q0 128 91.5 190.5t277.5 68.5l134 4v98q0 43 -5 79.5t-20.5 63t-45.5 41.5t-79 15q-47 0 -76 -13t-45 -37t-21.5 -56.5t-5.5 -70.5q-67 0 -102 23t-35 79q0 42 22.5 71.5t62.5 48t93 27t113 8.5q74 0 129.5 -14.5t92.5 -47.5t55.5 -86.5t18.5 -130.5v-420 q0 -34 5.5 -56t17.5 -35.5t31.5 -19t46.5 -5.5h4v-68h-218l-26 139h-13q-25 -34 -49 -62.5t-52.5 -49t-64.5 -32t-86 -11.5q-54 0 -100 15.5t-80 47.5t-52.5 80.5t-18.5 115.5zM212 1223v17h173q13 -27 30 -59t36 -64t39 -62t37 -53v-22h-62q-32 23 -70 55.5t-73.5 67.5 t-65 67t-44.5 53zM238 235q0 -76 32 -113.5t99 -37.5q49 0 89 15.5t68 45t43 71.5t15 93v131l-104 -5q-68 -3 -114.5 -17t-75 -38.5t-40.5 -61t-12 -83.5z" />
<glyph unicode="&#xe1;" horiz-adv-x="910" d="M81 243q0 128 91.5 190.5t277.5 68.5l134 4v98q0 43 -5 79.5t-20.5 63t-45.5 41.5t-79 15q-47 0 -76 -13t-45 -37t-21.5 -56.5t-5.5 -70.5q-67 0 -102 23t-35 79q0 42 22.5 71.5t62.5 48t93 27t113 8.5q74 0 129.5 -14.5t92.5 -47.5t55.5 -86.5t18.5 -130.5v-420 q0 -34 5.5 -56t17.5 -35.5t31.5 -19t46.5 -5.5h4v-68h-218l-26 139h-13q-25 -34 -49 -62.5t-52.5 -49t-64.5 -32t-86 -11.5q-54 0 -100 15.5t-80 47.5t-52.5 80.5t-18.5 115.5zM238 235q0 -76 32 -113.5t99 -37.5q49 0 89 15.5t68 45t43 71.5t15 93v131l-104 -5 q-68 -3 -114.5 -17t-75 -38.5t-40.5 -61t-12 -83.5zM372 980v22q18 23 37.5 53t38 62t35.5 64t30 59h173v-17q-15 -21 -44.5 -53t-65 -67t-73 -67.5t-69.5 -55.5h-62z" />
<glyph unicode="&#xe2;" horiz-adv-x="910" d="M81 243q0 128 91.5 190.5t277.5 68.5l134 4v98q0 43 -5 79.5t-20.5 63t-45.5 41.5t-79 15q-47 0 -76 -13t-45 -37t-21.5 -56.5t-5.5 -70.5q-67 0 -102 23t-35 79q0 42 22.5 71.5t62.5 48t93 27t113 8.5q74 0 129.5 -14.5t92.5 -47.5t55.5 -86.5t18.5 -130.5v-420 q0 -34 5.5 -56t17.5 -35.5t31.5 -19t46.5 -5.5h4v-68h-218l-26 139h-13q-25 -34 -49 -62.5t-52.5 -49t-64.5 -32t-86 -11.5q-54 0 -100 15.5t-80 47.5t-52.5 80.5t-18.5 115.5zM206 980v22q19 23 42 53t45.5 62t42.5 64t32 59h154q12 -27 32 -59t42.5 -64t45.5 -62t41 -53 v-22h-63q-46 27 -93 67t-83 79q-37 -39 -83 -79t-91 -67h-64zM238 235q0 -76 32 -113.5t99 -37.5q49 0 89 15.5t68 45t43 71.5t15 93v131l-104 -5q-68 -3 -114.5 -17t-75 -38.5t-40.5 -61t-12 -83.5z" />
<glyph unicode="&#xe3;" horiz-adv-x="910" d="M81 243q0 128 91.5 190.5t277.5 68.5l134 4v98q0 43 -5 79.5t-20.5 63t-45.5 41.5t-79 15q-47 0 -76 -13t-45 -37t-21.5 -56.5t-5.5 -70.5q-67 0 -102 23t-35 79q0 42 22.5 71.5t62.5 48t93 27t113 8.5q74 0 129.5 -14.5t92.5 -47.5t55.5 -86.5t18.5 -130.5v-420 q0 -34 5.5 -56t17.5 -35.5t31.5 -19t46.5 -5.5h4v-68h-218l-26 139h-13q-25 -34 -49 -62.5t-52.5 -49t-64.5 -32t-86 -11.5q-54 0 -100 15.5t-80 47.5t-52.5 80.5t-18.5 115.5zM163 997q2 37 12.5 71t31.5 61t52.5 42.5t74.5 15.5q44 0 79 -15.5t65.5 -35t57 -35.5t51.5 -16 q24 0 38.5 7.5t23 19.5t12 27.5t5.5 32.5h73q-3 -38 -13.5 -72t-31 -61t-51.5 -43t-74 -16q-44 0 -79 16t-65.5 35.5t-57 35t-52.5 15.5q-24 0 -38.5 -7t-22.5 -19t-12 -27t-7 -32h-72zM238 235q0 -76 32 -113.5t99 -37.5q49 0 89 15.5t68 45t43 71.5t15 93v131l-104 -5 q-68 -3 -114.5 -17t-75 -38.5t-40.5 -61t-12 -83.5z" />
<glyph unicode="&#xe4;" horiz-adv-x="910" d="M81 243q0 128 91.5 190.5t277.5 68.5l134 4v98q0 43 -5 79.5t-20.5 63t-45.5 41.5t-79 15q-47 0 -76 -13t-45 -37t-21.5 -56.5t-5.5 -70.5q-67 0 -102 23t-35 79q0 42 22.5 71.5t62.5 48t93 27t113 8.5q74 0 129.5 -14.5t92.5 -47.5t55.5 -86.5t18.5 -130.5v-420 q0 -34 5.5 -56t17.5 -35.5t31.5 -19t46.5 -5.5h4v-68h-218l-26 139h-13q-25 -34 -49 -62.5t-52.5 -49t-64.5 -32t-86 -11.5q-54 0 -100 15.5t-80 47.5t-52.5 80.5t-18.5 115.5zM203 1113q0 25 6.5 42.5t17.5 28t26 15.5t32 5t32 -5t26.5 -15.5t18 -28t6.5 -42.5 q0 -24 -6.5 -41.5t-18 -28.5t-26.5 -16t-32 -5q-36 0 -59 20.5t-23 70.5zM238 235q0 -76 32 -113.5t99 -37.5q49 0 89 15.5t68 45t43 71.5t15 93v131l-104 -5q-68 -3 -114.5 -17t-75 -38.5t-40.5 -61t-12 -83.5zM510 1113q0 25 6.5 42.5t17.5 28t26 15.5t32 5q18 0 33 -5 t26.5 -15.5t17.5 -28t6 -42.5q0 -24 -6 -41.5t-17.5 -28.5t-26.5 -16t-33 -5q-35 0 -58.5 20.5t-23.5 70.5z" />
<glyph unicode="&#xe5;" horiz-adv-x="910" d="M81 243q0 128 91.5 190.5t277.5 68.5l134 4v98q0 43 -5 79.5t-20.5 63t-45.5 41.5t-79 15q-47 0 -76 -13t-45 -37t-21.5 -56.5t-5.5 -70.5q-67 0 -102 23t-35 79q0 42 22.5 71.5t62.5 48t93 27t113 8.5q74 0 129.5 -14.5t92.5 -47.5t55.5 -86.5t18.5 -130.5v-420 q0 -34 5.5 -56t17.5 -35.5t31.5 -19t46.5 -5.5h4v-68h-218l-26 139h-13q-25 -34 -49 -62.5t-52.5 -49t-64.5 -32t-86 -11.5q-54 0 -100 15.5t-80 47.5t-52.5 80.5t-18.5 115.5zM238 235q0 -76 32 -113.5t99 -37.5q49 0 89 15.5t68 45t43 71.5t15 93v131l-104 -5 q-68 -3 -114.5 -17t-75 -38.5t-40.5 -61t-12 -83.5zM258 1141q0 42 15 75.5t41.5 55.5t62 33.5t76.5 11.5q40 0 75.5 -11.5t62 -33.5t41.5 -55.5t15 -75.5q0 -44 -15 -76.5t-41.5 -54.5t-62 -33.5t-75.5 -11.5q-41 0 -76.5 11.5t-62 33.5t-41.5 54.5t-15 76.5zM346 1141 q0 -26 8.5 -44.5t23 -30t33.5 -17t42 -5.5q22 0 41 5.5t34 17t23 30t8 44.5t-8 44.5t-23 30t-34 17t-41 5.5q-23 0 -42 -5.5t-33.5 -17t-23 -30t-8.5 -44.5z" />
<glyph unicode="&#xe6;" horiz-adv-x="1360" d="M81 243q0 128 91.5 190.5t277.5 68.5l134 4v98q0 43 -5 79.5t-20.5 63t-45.5 41.5t-79 15q-47 0 -76 -13t-45 -37t-21.5 -56.5t-5.5 -70.5q-67 0 -102 23t-35 79q0 42 22.5 71.5t62.5 48t93 27t113 8.5q92 0 154.5 -23t98.5 -76q90 99 250 99q78 0 140.5 -24.5t106 -73 t67 -121t23.5 -167.5v-74h-539q2 -89 17 -152.5t45.5 -104.5t77 -60.5t110.5 -19.5q36 0 69 8.5t62 24t52.5 36t38.5 44.5q11 -5 21 -20t10 -35q0 -25 -17.5 -53t-52 -51.5t-87 -39.5t-122.5 -16q-119 0 -201.5 46.5t-127.5 137.5q-15 -36 -42 -69t-65 -59t-87.5 -41 t-109.5 -15q-54 0 -100 15.5t-80 47.5t-52.5 80.5t-18.5 115.5zM238 235q0 -76 32 -113.5t99 -37.5q49 0 89 15.5t68 45t43 71.5t15 93v97v21v13l-104 -5q-68 -3 -114.5 -17t-75 -38.5t-40.5 -61t-12 -83.5zM744 510h372q0 64 -9.5 116.5t-30 90.5t-54 58.5t-82.5 20.5 q-91 0 -139 -73t-57 -213z" />
<glyph unicode="&#xe7;" horiz-adv-x="796" d="M89 429q0 130 27.5 217t76 140t114.5 75t143 22q50 0 100 -10t90.5 -30.5t66 -51.5t25.5 -73q0 -56 -36.5 -79t-108.5 -23q0 38 -6.5 72t-21.5 59.5t-41.5 40.5t-67.5 15q-47 0 -84.5 -17.5t-64.5 -60t-41 -114.5t-14 -180q0 -173 57 -257.5t188 -84.5q75 0 131 31.5 t83 81.5q12 -9 20 -25t8 -38q0 -28 -17.5 -55.5t-51.5 -49.5t-85.5 -36t-120.5 -14q-80 0 -148 25t-117 78.5t-76.5 138t-27.5 203.5zM281 -288q29 -7 58.5 -10t51.5 -3q47 0 73 24.5t26 66.5q0 47 -34.5 71t-87.5 28l34 125h77l-17 -69q79 -7 118 -46t39 -103 q0 -86 -55 -135.5t-158 -49.5q-13 0 -28.5 1.5t-32 3.5t-33.5 6t-31 7v83z" />
<glyph unicode="&#xe8;" horiz-adv-x="865" d="M89 427q0 227 93.5 341.5t265.5 114.5q78 0 140.5 -24.5t106 -73t66.5 -121t23 -167.5v-74h-538q1 -89 17.5 -152.5t46.5 -104.5t74.5 -60.5t102.5 -19.5q42 0 77.5 9.5t65 25.5t52 36t36.5 42q11 -5 21 -20t10 -35q0 -25 -17.5 -53t-53 -51.5t-89 -39.5t-124.5 -16 q-88 0 -158 29.5t-118 86.5t-74 139.5t-26 187.5zM225 1223v17h173q13 -27 30 -59t36 -64t39 -62t37 -53v-22h-62q-32 23 -70 55.5t-73.5 67.5t-65 67t-44.5 53zM249 510h372q0 64 -9.5 116.5t-30 90.5t-54 58.5t-82.5 20.5q-90 0 -138.5 -73t-57.5 -213z" />
<glyph unicode="&#xe9;" horiz-adv-x="865" d="M89 427q0 227 93.5 341.5t265.5 114.5q78 0 140.5 -24.5t106 -73t66.5 -121t23 -167.5v-74h-538q1 -89 17.5 -152.5t46.5 -104.5t74.5 -60.5t102.5 -19.5q42 0 77.5 9.5t65 25.5t52 36t36.5 42q11 -5 21 -20t10 -35q0 -25 -17.5 -53t-53 -51.5t-89 -39.5t-124.5 -16 q-88 0 -158 29.5t-118 86.5t-74 139.5t-26 187.5zM249 510h372q0 64 -9.5 116.5t-30 90.5t-54 58.5t-82.5 20.5q-90 0 -138.5 -73t-57.5 -213zM374 980v22q18 23 37.5 53t38 62t35.5 64t30 59h173v-17q-15 -21 -44.5 -53t-65 -67t-73 -67.5t-69.5 -55.5h-62z" />
<glyph unicode="&#xea;" horiz-adv-x="865" d="M89 427q0 227 93.5 341.5t265.5 114.5q78 0 140.5 -24.5t106 -73t66.5 -121t23 -167.5v-74h-538q1 -89 17.5 -152.5t46.5 -104.5t74.5 -60.5t102.5 -19.5q42 0 77.5 9.5t65 25.5t52 36t36.5 42q11 -5 21 -20t10 -35q0 -25 -17.5 -53t-53 -51.5t-89 -39.5t-124.5 -16 q-88 0 -158 29.5t-118 86.5t-74 139.5t-26 187.5zM201 980v22q19 23 42 53t45.5 62t42.5 64t32 59h154q12 -27 32 -59t42.5 -64t45.5 -62t41 -53v-22h-63q-46 27 -93 67t-83 79q-37 -39 -83 -79t-91 -67h-64zM249 510h372q0 64 -9.5 116.5t-30 90.5t-54 58.5t-82.5 20.5 q-90 0 -138.5 -73t-57.5 -213z" />
<glyph unicode="&#xeb;" horiz-adv-x="865" d="M89 427q0 227 93.5 341.5t265.5 114.5q78 0 140.5 -24.5t106 -73t66.5 -121t23 -167.5v-74h-538q1 -89 17.5 -152.5t46.5 -104.5t74.5 -60.5t102.5 -19.5q42 0 77.5 9.5t65 25.5t52 36t36.5 42q11 -5 21 -20t10 -35q0 -25 -17.5 -53t-53 -51.5t-89 -39.5t-124.5 -16 q-88 0 -158 29.5t-118 86.5t-74 139.5t-26 187.5zM200 1113q0 25 6.5 42.5t17.5 28t26 15.5t32 5t32 -5t26.5 -15.5t18 -28t6.5 -42.5q0 -24 -6.5 -41.5t-18 -28.5t-26.5 -16t-32 -5q-36 0 -59 20.5t-23 70.5zM249 510h372q0 64 -9.5 116.5t-30 90.5t-54 58.5t-82.5 20.5 q-90 0 -138.5 -73t-57.5 -213zM507 1113q0 25 6.5 42.5t17.5 28t26 15.5t32 5q18 0 33 -5t26.5 -15.5t17.5 -28t6 -42.5q0 -24 -6 -41.5t-17.5 -28.5t-26.5 -16t-33 -5q-35 0 -58.5 20.5t-23.5 70.5z" />
<glyph unicode="&#xec;" horiz-adv-x="517" d="M30 1223v17h173q13 -27 30 -59t36 -64t39 -62t37 -53v-22h-62q-32 23 -70 55.5t-73.5 67.5t-65 67t-44.5 53zM37 0v68h21q27 0 51.5 3.5t42.5 14.5t28.5 33t10.5 57v513q0 35 -10.5 57t-28.5 34t-42.5 15.5t-51.5 3.5h-4v68h289v-683q0 -38 10.5 -61t28.5 -35t42.5 -16 t51.5 -4h21v-68h-460z" />
<glyph unicode="&#xed;" horiz-adv-x="517" d="M37 0v68h21q27 0 51.5 3.5t42.5 14.5t28.5 33t10.5 57v513q0 35 -10.5 57t-28.5 34t-42.5 15.5t-51.5 3.5h-4v68h289v-683q0 -38 10.5 -61t28.5 -35t42.5 -16t51.5 -4h21v-68h-460zM190 980v22q18 23 37.5 53t38 62t35.5 64t30 59h173v-17q-15 -21 -44.5 -53t-65 -67 t-73 -67.5t-69.5 -55.5h-62z" />
<glyph unicode="&#xee;" horiz-adv-x="517" d="M17 980v22q19 23 42 53t45.5 62t42.5 64t32 59h154q12 -27 32 -59t42.5 -64t45.5 -62t41 -53v-22h-63q-46 27 -93 67t-83 79q-37 -39 -83 -79t-91 -67h-64zM37 0v68h21q27 0 51.5 3.5t42.5 14.5t28.5 33t10.5 57v513q0 35 -10.5 57t-28.5 34t-42.5 15.5t-51.5 3.5h-4v68 h289v-683q0 -38 10.5 -61t28.5 -35t42.5 -16t51.5 -4h21v-68h-460z" />
<glyph unicode="&#xef;" horiz-adv-x="517" d="M14 1113q0 25 6.5 42.5t17.5 28t26 15.5t32 5t32 -5t26.5 -15.5t18 -28t6.5 -42.5q0 -24 -6.5 -41.5t-18 -28.5t-26.5 -16t-32 -5q-36 0 -59 20.5t-23 70.5zM37 0v68h21q27 0 51.5 3.5t42.5 14.5t28.5 33t10.5 57v513q0 35 -10.5 57t-28.5 34t-42.5 15.5t-51.5 3.5h-4v68 h289v-683q0 -38 10.5 -61t28.5 -35t42.5 -16t51.5 -4h21v-68h-460zM321 1113q0 25 6.5 42.5t17.5 28t26 15.5t32 5q18 0 33 -5t26.5 -15.5t17.5 -28t6 -42.5q0 -24 -6 -41.5t-17.5 -28.5t-26.5 -16t-33 -5q-35 0 -58.5 20.5t-23.5 70.5z" />
<glyph unicode="&#xf0;" horiz-adv-x="933" d="M89 403q0 210 96 312.5t284 102.5q54 0 100 -11t86 -30q-17 53 -59 113t-104 113l-202 -115v91l136 77q-40 27 -86 49.5t-97 38.5v88q74 -19 145 -48.5t135 -71.5l209 121v-92l-143 -82q56 -47 103.5 -108t81 -135.5t52.5 -161t19 -183.5q0 -247 -97 -367t-283 -120 q-88 0 -157.5 26t-118 78t-74.5 130.5t-26 184.5zM246 403q0 -83 11.5 -145.5t38 -104.5t69 -63.5t103.5 -21.5t102.5 21.5t67.5 63.5t37.5 104.5t11.5 145.5q0 82 -11.5 144t-38 103.5t-68.5 62t-103 20.5t-102.5 -20.5t-68 -62t-38 -103.5t-11.5 -144z" />
<glyph unicode="&#xf1;" horiz-adv-x="1043" d="M45 0v68h13q28 0 52 4t42 16t28.5 35t10.5 61v505q0 35 -10.5 57t-28.5 34t-42.5 15.5t-51.5 3.5h-4v68h261l22 -131h7q26 45 54 74t59 45t66.5 22t73.5 6q64 0 114.5 -18.5t85.5 -57t53.5 -98.5t18.5 -143v-382q0 -38 9 -61t25.5 -35t39.5 -16t50 -4h6v-68h-282v559 q0 52 -9.5 93.5t-30.5 69.5t-55 43t-83 15q-56 0 -93.5 -21.5t-60 -58t-32.5 -83.5t-10 -100v-341q0 -35 10.5 -57t29 -33t42.5 -14.5t51 -3.5h4v-68h-435zM241 997q2 37 12.5 71t31.5 61t52.5 42.5t74.5 15.5q44 0 79 -15.5t65.5 -35t57 -35.5t51.5 -16q24 0 38.5 7.5 t23 19.5t12 27.5t5.5 32.5h73q-3 -38 -13.5 -72t-31 -61t-51.5 -43t-74 -16q-44 0 -79 16t-65.5 35.5t-57 35t-52.5 15.5q-24 0 -38.5 -7t-22.5 -19t-12 -27t-7 -32h-72z" />
<glyph unicode="&#xf2;" horiz-adv-x="933" d="M89 435q0 227 96 337.5t284 110.5q88 0 157.5 -27t118 -83t74.5 -140t26 -198q0 -228 -97 -339.5t-283 -111.5q-88 0 -157.5 28t-118 84t-74.5 141t-26 198zM235 1223v17h173q13 -27 30 -59t36 -64t39 -62t37 -53v-22h-62q-32 23 -70 55.5t-73.5 67.5t-65 67t-44.5 53z M246 435q0 -90 11.5 -158.5t38 -115t69 -70t103.5 -23.5t102.5 23.5t67.5 70t37.5 115t11.5 158.5t-11.5 158t-38 113.5t-68.5 68.5t-103 23t-102.5 -23t-68 -68.5t-38 -113.5t-11.5 -158z" />
<glyph unicode="&#xf3;" horiz-adv-x="933" d="M89 435q0 227 96 337.5t284 110.5q88 0 157.5 -27t118 -83t74.5 -140t26 -198q0 -228 -97 -339.5t-283 -111.5q-88 0 -157.5 28t-118 84t-74.5 141t-26 198zM246 435q0 -90 11.5 -158.5t38 -115t69 -70t103.5 -23.5t102.5 23.5t67.5 70t37.5 115t11.5 158.5t-11.5 158 t-38 113.5t-68.5 68.5t-103 23t-102.5 -23t-68 -68.5t-38 -113.5t-11.5 -158zM405 980v22q18 23 37.5 53t38 62t35.5 64t30 59h173v-17q-15 -21 -44.5 -53t-65 -67t-73 -67.5t-69.5 -55.5h-62z" />
<glyph unicode="&#xf4;" horiz-adv-x="933" d="M89 435q0 227 96 337.5t284 110.5q88 0 157.5 -27t118 -83t74.5 -140t26 -198q0 -228 -97 -339.5t-283 -111.5q-88 0 -157.5 28t-118 84t-74.5 141t-26 198zM224 980v22q19 23 42 53t45.5 62t42.5 64t32 59h154q12 -27 32 -59t42.5 -64t45.5 -62t41 -53v-22h-63 q-46 27 -93 67t-83 79q-37 -39 -83 -79t-91 -67h-64zM246 435q0 -90 11.5 -158.5t38 -115t69 -70t103.5 -23.5t102.5 23.5t67.5 70t37.5 115t11.5 158.5t-11.5 158t-38 113.5t-68.5 68.5t-103 23t-102.5 -23t-68 -68.5t-38 -113.5t-11.5 -158z" />
<glyph unicode="&#xf5;" horiz-adv-x="933" d="M89 435q0 227 96 337.5t284 110.5q88 0 157.5 -27t118 -83t74.5 -140t26 -198q0 -228 -97 -339.5t-283 -111.5q-88 0 -157.5 28t-118 84t-74.5 141t-26 198zM174 997q2 37 12.5 71t31.5 61t52.5 42.5t74.5 15.5q44 0 79 -15.5t65.5 -35t57 -35.5t51.5 -16q24 0 38.5 7.5 t23 19.5t12 27.5t5.5 32.5h73q-3 -38 -13.5 -72t-31 -61t-51.5 -43t-74 -16q-44 0 -79 16t-65.5 35.5t-57 35t-52.5 15.5q-24 0 -38.5 -7t-22.5 -19t-12 -27t-7 -32h-72zM246 435q0 -90 11.5 -158.5t38 -115t69 -70t103.5 -23.5t102.5 23.5t67.5 70t37.5 115t11.5 158.5 t-11.5 158t-38 113.5t-68.5 68.5t-103 23t-102.5 -23t-68 -68.5t-38 -113.5t-11.5 -158z" />
<glyph unicode="&#xf6;" horiz-adv-x="933" d="M89 435q0 227 96 337.5t284 110.5q88 0 157.5 -27t118 -83t74.5 -140t26 -198q0 -228 -97 -339.5t-283 -111.5q-88 0 -157.5 28t-118 84t-74.5 141t-26 198zM224 1113q0 25 6.5 42.5t17.5 28t26 15.5t32 5t32 -5t26.5 -15.5t18 -28t6.5 -42.5q0 -24 -6.5 -41.5t-18 -28.5 t-26.5 -16t-32 -5q-36 0 -59 20.5t-23 70.5zM246 435q0 -90 11.5 -158.5t38 -115t69 -70t103.5 -23.5t102.5 23.5t67.5 70t37.5 115t11.5 158.5t-11.5 158t-38 113.5t-68.5 68.5t-103 23t-102.5 -23t-68 -68.5t-38 -113.5t-11.5 -158zM531 1113q0 25 6.5 42.5t17.5 28 t26 15.5t32 5q18 0 33 -5t26.5 -15.5t17.5 -28t6 -42.5q0 -24 -6 -41.5t-17.5 -28.5t-26.5 -16t-33 -5q-35 0 -58.5 20.5t-23.5 70.5z" />
<glyph unicode="&#xf7;" d="M105 531v95h694v-95h-694zM371 272q0 25 6 42.5t17 27.5t26 14.5t33 4.5q17 0 32 -4.5t26.5 -14.5t18 -27.5t6.5 -42.5t-6.5 -42t-18 -27.5t-26.5 -15.5t-32 -5q-36 0 -59 20t-23 70zM371 885q0 25 6 42.5t17 27.5t26 14.5t33 4.5q17 0 32 -4.5t26.5 -14.5t18 -27.5 t6.5 -42.5t-6.5 -42t-18 -27.5t-26.5 -15t-32 -4.5q-18 0 -33 4.5t-26 15t-17 27.5t-6 42z" />
<glyph unicode="&#xf8;" horiz-adv-x="933" d="M89 435q0 227 96 337.5t284 110.5q59 0 109 -12.5t92 -37.5l62 99h93l-90 -149q53 -55 81.5 -141.5t28.5 -206.5q0 -228 -97 -339.5t-283 -111.5q-57 0 -106 11t-89 34l-58 -94h-96l88 142q-56 57 -85.5 145t-29.5 213zM246 435q0 -74 7.5 -133t24.5 -104l335 541 q-54 59 -147 59q-61 0 -102.5 -23t-68 -68.5t-38 -113.5t-11.5 -158zM325 120q26 -25 61 -38.5t82 -13.5q61 0 102.5 23.5t67.5 70t37.5 115t11.5 158.5q0 140 -28 225z" />
<glyph unicode="&#xf9;" horiz-adv-x="1027" d="M37 799v68h290v-558q0 -53 8.5 -94t27.5 -69.5t52 -43t82 -14.5q54 0 92 19t63 53t37 82.5t12 106.5v334q0 37 -11 60.5t-28.5 36t-41.5 16t-52 3.5h-5v68h289v-691q0 -35 11 -57t29 -33t42 -14.5t51 -3.5h5v-68h-257l-21 131h-8q-25 -46 -54.5 -74.5t-62.5 -44.5 t-69.5 -22t-75.5 -6q-64 0 -114 18.5t-84 57t-51.5 98.5t-17.5 143v388q0 35 -11 57t-29 34t-42 15.5t-51 3.5h-5zM248 1223v17h173q13 -27 30 -59t36 -64t39 -62t37 -53v-22h-62q-32 23 -70 55.5t-73.5 67.5t-65 67t-44.5 53z" />
<glyph unicode="&#xfa;" horiz-adv-x="1027" d="M37 799v68h290v-558q0 -53 8.5 -94t27.5 -69.5t52 -43t82 -14.5q54 0 92 19t63 53t37 82.5t12 106.5v334q0 37 -11 60.5t-28.5 36t-41.5 16t-52 3.5h-5v68h289v-691q0 -35 11 -57t29 -33t42 -14.5t51 -3.5h5v-68h-257l-21 131h-8q-25 -46 -54.5 -74.5t-62.5 -44.5 t-69.5 -22t-75.5 -6q-64 0 -114 18.5t-84 57t-51.5 98.5t-17.5 143v388q0 35 -11 57t-29 34t-42 15.5t-51 3.5h-5zM427 980v22q18 23 37.5 53t38 62t35.5 64t30 59h173v-17q-15 -21 -44.5 -53t-65 -67t-73 -67.5t-69.5 -55.5h-62z" />
<glyph unicode="&#xfb;" horiz-adv-x="1027" d="M37 799v68h290v-558q0 -53 8.5 -94t27.5 -69.5t52 -43t82 -14.5q54 0 92 19t63 53t37 82.5t12 106.5v334q0 37 -11 60.5t-28.5 36t-41.5 16t-52 3.5h-5v68h289v-691q0 -35 11 -57t29 -33t42 -14.5t51 -3.5h5v-68h-257l-21 131h-8q-25 -46 -54.5 -74.5t-62.5 -44.5 t-69.5 -22t-75.5 -6q-64 0 -114 18.5t-84 57t-51.5 98.5t-17.5 143v388q0 35 -11 57t-29 34t-42 15.5t-51 3.5h-5zM270 980v22q19 23 42 53t45.5 62t42.5 64t32 59h154q12 -27 32 -59t42.5 -64t45.5 -62t41 -53v-22h-63q-46 27 -93 67t-83 79q-37 -39 -83 -79t-91 -67h-64z " />
<glyph unicode="&#xfc;" horiz-adv-x="1027" d="M37 799v68h290v-558q0 -53 8.5 -94t27.5 -69.5t52 -43t82 -14.5q54 0 92 19t63 53t37 82.5t12 106.5v334q0 37 -11 60.5t-28.5 36t-41.5 16t-52 3.5h-5v68h289v-691q0 -35 11 -57t29 -33t42 -14.5t51 -3.5h5v-68h-257l-21 131h-8q-25 -46 -54.5 -74.5t-62.5 -44.5 t-69.5 -22t-75.5 -6q-64 0 -114 18.5t-84 57t-51.5 98.5t-17.5 143v388q0 35 -11 57t-29 34t-42 15.5t-51 3.5h-5zM275 1113q0 25 6.5 42.5t17.5 28t26 15.5t32 5t32 -5t26.5 -15.5t18 -28t6.5 -42.5q0 -24 -6.5 -41.5t-18 -28.5t-26.5 -16t-32 -5q-36 0 -59 20.5t-23 70.5z M582 1113q0 25 6.5 42.5t17.5 28t26 15.5t32 5q18 0 33 -5t26.5 -15.5t17.5 -28t6 -42.5q0 -24 -6 -41.5t-17.5 -28.5t-26.5 -16t-33 -5q-35 0 -58.5 20.5t-23.5 70.5z" />
<glyph unicode="&#xfd;" horiz-adv-x="914" d="M6 799v68h389v-68h-5q-49 0 -73 -18.5t-24 -59.5q0 -13 3 -27t10 -32l118 -288q11 -28 23.5 -61t23 -65t19 -60t12.5 -49h4q9 36 24.5 86.5t35.5 109.5l109 315q7 20 10.5 38t3.5 32q0 42 -26.5 60.5t-80.5 18.5h-5v68h337v-68h-5q-23 0 -40 -5t-31 -19t-26 -38.5 t-26 -63.5l-246 -679q-28 -79 -53.5 -138t-53 -101.5t-60.5 -70t-74.5 -44t-96 -23t-126.5 -6.5h-14v77q82 0 141 24.5t102 67t72 100.5t49 126l-300 707q-11 26 -21 42t-23 26.5t-30 14t-41 3.5h-5zM398 980v22q18 23 37.5 53t38 62t35.5 64t30 59h173v-17 q-15 -21 -44.5 -53t-65 -67t-73 -67.5t-69.5 -55.5h-62z" />
<glyph unicode="&#xfe;" horiz-adv-x="993" d="M29 -321h13q27 0 51.5 4t42 16.5t28.5 35.5t11 61v1255q0 36 -11 57.5t-29 33.5t-42 15.5t-51 3.5h-13v68h298v-297q0 -27 -1 -63t-2 -70q-2 -37 -3 -78h6q18 37 41 67t53 51t68 32.5t85 11.5q80 0 141.5 -26.5t103.5 -81.5t64 -139.5t22 -200.5q0 -117 -22 -202 t-64 -140.5t-103.5 -82t-141.5 -26.5q-46 0 -84 10.5t-68.5 29.5t-54 45t-40.5 57h-6q1 -41 3 -78q1 -16 1 -31.5t0.5 -30t1 -26t0.5 -17.5v-155q0 -35 10.5 -57t29 -33.5t42.5 -15t51 -3.5h5v-68h-436v68zM327 435q0 -84 10.5 -149t36.5 -109t68 -66.5t106 -22.5 q53 0 91 22.5t62 66.5t35 109.5t11 150.5q0 172 -46.5 257.5t-153.5 85.5q-64 0 -106 -21t-67.5 -63.5t-36 -107.5t-10.5 -153z" />
<glyph unicode="&#xff;" horiz-adv-x="914" d="M6 799v68h389v-68h-5q-49 0 -73 -18.5t-24 -59.5q0 -13 3 -27t10 -32l118 -288q11 -28 23.5 -61t23 -65t19 -60t12.5 -49h4q9 36 24.5 86.5t35.5 109.5l109 315q7 20 10.5 38t3.5 32q0 42 -26.5 60.5t-80.5 18.5h-5v68h337v-68h-5q-23 0 -40 -5t-31 -19t-26 -38.5 t-26 -63.5l-246 -679q-28 -79 -53.5 -138t-53 -101.5t-60.5 -70t-74.5 -44t-96 -23t-126.5 -6.5h-14v77q82 0 141 24.5t102 67t72 100.5t49 126l-300 707q-11 26 -21 42t-23 26.5t-30 14t-41 3.5h-5zM253 1113q0 25 6.5 42.5t17.5 28t26 15.5t32 5t32 -5t26.5 -15.5t18 -28 t6.5 -42.5q0 -24 -6.5 -41.5t-18 -28.5t-26.5 -16t-32 -5q-36 0 -59 20.5t-23 70.5zM560 1113q0 25 6.5 42.5t17.5 28t26 15.5t32 5q18 0 33 -5t26.5 -15.5t17.5 -28t6 -42.5q0 -24 -6 -41.5t-17.5 -28.5t-26.5 -16t-33 -5q-35 0 -58.5 20.5t-23.5 70.5z" />
<glyph unicode="&#x152;" horiz-adv-x="1551" d="M91 581q0 134 31.5 243.5t94.5 187t159.5 119.5t225.5 42q19 0 41.5 -1t45 -3.5t43 -5.5t37.5 -8h651l8 -283h-83l-8 70q-3 27 -12.5 51t-26.5 42t-42.5 28.5t-61.5 10.5h-272v-430h390v-79h-390v-484h313q38 0 65 10.5t45.5 28.5t28.5 42t14 51l12 70h84l-11 -283h-706 q-17 -4 -37.5 -6.5t-43 -4.5t-45 -3.5t-41.5 -1.5q-128 0 -224 43t-159 121t-94.5 188t-31.5 245zM270 579q0 -120 18 -214.5t57.5 -159.5t102 -99.5t152.5 -34.5q48 0 87.5 7t71.5 18v962q-32 13 -71 20t-86 7q-90 0 -153 -33.5t-103 -98.5t-58 -159.5t-18 -214.5z" />
<glyph unicode="&#x153;" horiz-adv-x="1463" d="M89 435q0 227 96 337.5t284 110.5q98 0 172 -38.5t123 -117.5q46 79 116.5 117.5t166.5 38.5q78 0 140.5 -24.5t106 -73t66.5 -121t23 -167.5v-74h-538q1 -79 14.5 -141t42 -105.5t73.5 -67t110 -23.5q42 0 78 9.5t65.5 25.5t52 36t36.5 42q11 -5 21 -20t10 -35 q0 -25 -17.5 -53t-53 -51.5t-89 -39.5t-125.5 -16q-102 0 -174.5 41t-119.5 120q-94 -161 -304 -161q-88 0 -157.5 28t-118 84t-74.5 141t-26 198zM246 435q0 -90 11.5 -158.5t38 -115t69 -70t103.5 -23.5q60 0 101.5 23t67.5 68.5t38 112.5t12 155v23q0 86 -13 151.5 t-39 109t-68 65.5t-101 22q-61 0 -102.5 -23t-68 -68.5t-38 -113.5t-11.5 -158zM848 510h372q0 64 -9.5 116.5t-30 90.5t-54 58.5t-82.5 20.5q-91 0 -139.5 -73t-56.5 -213z" />
<glyph unicode="&#x178;" horiz-adv-x="1011" d="M-8 1087v68h445v-68h-60q-22 0 -36 -4t-22 -11t-10.5 -16.5t-2.5 -19.5q0 -23 9.5 -46t19.5 -40l119 -217q29 -50 48.5 -98.5t33.5 -86.5q7 18 17.5 39t23.5 45t27.5 50t28.5 51l103 186q16 27 23 52t7 45q0 35 -25.5 53t-72.5 18h-47v68h395v-68h-19q-17 0 -32.5 -6 t-31.5 -20.5t-33 -38.5t-37 -61l-272 -479v-298q0 -38 10 -61t28.5 -35t42.5 -16t51 -4h38v-68h-503v68h37q27 0 51 3.5t42 14.5t28.5 33t10.5 57v306l-299 520q-13 23 -25 39t-25 26.5t-29 15t-36 4.5h-21zM284 1380q0 25 6.5 42.5t17.5 28t26 15.5t32 5t32 -5t26.5 -15.5 t18 -28t6.5 -42.5q0 -24 -6.5 -41.5t-18 -28.5t-26.5 -16t-32 -5q-36 0 -59 20.5t-23 70.5zM591 1380q0 25 6.5 42.5t17.5 28t26 15.5t32 5q18 0 33 -5t26.5 -15.5t17.5 -28t6 -42.5q0 -24 -6 -41.5t-17.5 -28.5t-26.5 -16t-33 -5q-35 0 -58.5 20.5t-23.5 70.5z" />
<glyph unicode="&#x2c6;" horiz-adv-x="933" d="M228 980v22q19 23 42 53t45.5 62t42.5 64t32 59h154q12 -27 32 -59t42.5 -64t45.5 -62t41 -53v-22h-63q-46 27 -93 67t-83 79q-37 -39 -83 -79t-91 -67h-64z" />
<glyph unicode="&#x2dc;" horiz-adv-x="933" d="M178 997q2 37 12.5 71t31.5 61t52.5 42.5t74.5 15.5q44 0 79 -15.5t65.5 -35t57 -35.5t51.5 -16q24 0 38.5 7.5t23 19.5t12 27.5t5.5 32.5h73q-3 -38 -13.5 -72t-31 -61t-51.5 -43t-74 -16q-44 0 -79 16t-65.5 35.5t-57 35t-52.5 15.5q-24 0 -38.5 -7t-22.5 -19t-12 -27 t-7 -32h-72z" />
<glyph unicode="&#x2000;" horiz-adv-x="753" />
<glyph unicode="&#x2001;" horiz-adv-x="1507" />
<glyph unicode="&#x2002;" horiz-adv-x="753" />
<glyph unicode="&#x2003;" horiz-adv-x="1507" />
<glyph unicode="&#x2004;" horiz-adv-x="502" />
<glyph unicode="&#x2005;" horiz-adv-x="376" />
<glyph unicode="&#x2006;" horiz-adv-x="251" />
<glyph unicode="&#x2007;" horiz-adv-x="251" />
<glyph unicode="&#x2008;" horiz-adv-x="188" />
<glyph unicode="&#x2009;" horiz-adv-x="301" />
<glyph unicode="&#x200a;" horiz-adv-x="83" />
<glyph unicode="&#x2010;" horiz-adv-x="501" d="M40 380v122h421v-122h-421z" />
<glyph unicode="&#x2011;" horiz-adv-x="501" d="M40 380v122h421v-122h-421z" />
<glyph unicode="&#x2012;" horiz-adv-x="501" d="M40 380v122h421v-122h-421z" />
<glyph unicode="&#x2013;" horiz-adv-x="808" d="M-8 386v96h825v-96h-825z" />
<glyph unicode="&#x2014;" horiz-adv-x="1617" d="M-8 386v96h1634v-96h-1634z" />
<glyph unicode="&#x2018;" horiz-adv-x="404" d="M91 840q0 51 14 99.5t46 89.5t82.5 73.5t122.5 54.5v-68q-80 -26 -117 -62t-37 -84q0 -16 9 -26.5t22 -18.5t28 -16t28.5 -19t22.5 -27.5t9 -40.5q0 -47 -30.5 -71.5t-75.5 -24.5q-25 0 -47.5 9t-39.5 27t-27 44.5t-10 60.5z" />
<glyph unicode="&#x2019;" horiz-adv-x="404" d="M48 698v68q80 25 117 61t37 84q0 16 -8.5 26.5t-22 19t-28.5 16t-28.5 19t-22 27.5t-8.5 40q0 47 30.5 71.5t75.5 24.5q25 0 47 -9t39.5 -27t27.5 -44.5t10 -60.5q0 -51 -14.5 -99t-46.5 -89.5t-82 -74t-123 -53.5z" />
<glyph unicode="&#x201a;" horiz-adv-x="404" d="M48 -181q80 25 117 61.5t37 83.5q0 16 -8.5 27t-22 19t-28.5 16t-28.5 19t-22 27t-8.5 41q0 47 30.5 71.5t75.5 24.5q25 0 47 -9.5t39.5 -27t27.5 -44t10 -60.5q0 -51 -14.5 -99.5t-46.5 -89.5t-82 -74t-123 -54v68z" />
<glyph unicode="&#x201c;" horiz-adv-x="728" d="M91 840q0 51 14 99.5t46 89.5t82.5 73.5t122.5 54.5v-68q-80 -26 -117 -62t-37 -84q0 -16 9 -26.5t22 -18.5t28 -16t28.5 -19t22.5 -27.5t9 -40.5q0 -47 -30.5 -71.5t-75.5 -24.5q-25 0 -47.5 9t-39.5 27t-27 44.5t-10 60.5zM414 840q0 51 14 99.5t46 89.5t83 73.5 t122 54.5v-68q-79 -26 -116 -62t-37 -84q0 -16 9 -26.5t22 -18.5t28 -16t28 -19t22 -27.5t9 -40.5q0 -47 -30 -71.5t-75 -24.5q-25 0 -48 9t-40 27t-27 44.5t-10 60.5z" />
<glyph unicode="&#x201d;" horiz-adv-x="728" d="M48 698v68q80 25 117 61t37 84q0 16 -8.5 26.5t-22 19t-28.5 16t-28.5 19t-22 27.5t-8.5 40q0 47 30.5 71.5t75.5 24.5q25 0 47 -9t39.5 -27t27.5 -44.5t10 -60.5q0 -51 -14.5 -99t-46.5 -89.5t-82 -74t-123 -53.5zM372 698v68q79 25 116.5 61t37.5 84q0 16 -8.5 26.5 t-22 19t-28.5 16t-28.5 19t-22 27.5t-8.5 40q0 47 30 71.5t75 24.5q25 0 47.5 -9t39.5 -27t27.5 -44.5t10.5 -60.5q0 -51 -14.5 -99t-46.5 -89.5t-82 -74t-123 -53.5z" />
<glyph unicode="&#x201e;" horiz-adv-x="728" d="M48 -181q80 25 117 61.5t37 83.5q0 16 -8.5 27t-22 19t-28.5 16t-28.5 19t-22 27t-8.5 41q0 47 30.5 71.5t75.5 24.5q25 0 47 -9.5t39.5 -27t27.5 -44t10 -60.5q0 -51 -14.5 -99.5t-46.5 -89.5t-82 -74t-123 -54v68zM372 -181q79 25 116.5 61.5t37.5 83.5q0 16 -8.5 27 t-22 19t-28.5 16t-28.5 19t-22 27t-8.5 41q0 47 30 71.5t75 24.5q25 0 47.5 -9.5t39.5 -27t27.5 -44t10.5 -60.5q0 -51 -14.5 -99.5t-46.5 -89.5t-82 -74t-123 -54v68z" />
<glyph unicode="&#x2022;" horiz-adv-x="585" d="M79 576q0 66 16 111t44.5 72.5t68 39.5t85.5 12q44 0 83 -12t68 -39.5t45.5 -72.5t16.5 -111t-16.5 -111t-45.5 -72.5t-68 -39.5t-83 -12q-46 0 -85.5 12t-68 39.5t-44.5 72.5t-16 111z" />
<glyph unicode="&#x2026;" horiz-adv-x="1388" d="M130 99q0 31 7.5 52t21.5 34t32.5 18.5t39.5 5.5t39.5 -5.5t32.5 -18.5t22 -34t8 -52t-8 -52.5t-22 -34t-32.5 -18t-39.5 -5.5t-39.5 5.5t-32.5 18t-21.5 34t-7.5 52.5zM592 99q0 31 8 52t22 34t32.5 18.5t39.5 5.5t39.5 -5.5t32.5 -18.5t22 -34t8 -52t-8 -52.5t-22 -34 t-32.5 -18t-39.5 -5.5t-39.5 5.5t-32.5 18t-22 34t-8 52.5zM1055 99q0 31 7.5 52t21.5 34t32.5 18.5t40.5 5.5q20 0 38.5 -5.5t32.5 -18.5t22 -34t8 -52t-8 -52.5t-22 -34t-32.5 -18t-38.5 -5.5q-22 0 -40.5 5.5t-32.5 18t-21.5 34t-7.5 52.5z" />
<glyph unicode="&#x202f;" horiz-adv-x="301" />
<glyph unicode="&#x2039;" horiz-adv-x="538" d="M105 411v52l247 281h82l-164 -307l164 -307h-82z" />
<glyph unicode="&#x203a;" horiz-adv-x="538" d="M107 130l163 307l-163 307h81l247 -281v-52l-247 -281h-81z" />
<glyph unicode="&#x205f;" horiz-adv-x="376" />
<glyph unicode="&#x20ac;" d="M66 432v76h112q-2 18 -2.5 39.5t-0.5 37.5v36h-109v77h115q11 135 47 225.5t90 145t122.5 77t143.5 22.5q61 0 111.5 -12t86.5 -34t55.5 -52t19.5 -65q0 -56 -36 -79t-104 -23q0 38 -8 72t-25.5 59t-45.5 40t-68 15q-42 0 -81 -18.5t-70 -63.5t-53 -120.5t-29 -188.5h339 v-77h-343v-39v-37.5t2 -36.5h276v-76h-270q11 -86 34 -152t58 -110.5t80.5 -67.5t99.5 -23q41 0 73 8t56.5 21.5t43 31t32.5 36.5q11 -6 20.5 -18t9.5 -36q0 -22 -15 -46t-45 -44.5t-75.5 -34t-108.5 -13.5q-76 0 -145.5 24t-126 77.5t-95 139t-53.5 207.5h-118z" />
<glyph unicode="&#x2122;" horiz-adv-x="1350" d="M43 1008l5 147h473l5 -147h-47l-7 39q-3 23 -16.5 39.5t-47.5 17.5h-75v-415q0 -17 5.5 -26.5t13.5 -15t19.5 -7t23.5 -1.5h25v-43h-275v43h28q12 0 23 1.5t19.5 6.5t13 14t4.5 23v420h-71q-17 -1 -29 -5.5t-19 -12.5t-11 -17.5t-6 -21.5l-6 -39h-48zM553 596v43h17 q24 0 42.5 8t20.5 37v381q-1 15 -6 24t-14 14t-20.5 6t-22.5 1h-17v45h186l178 -448l183 448h183v-45h-17q-14 0 -25.5 -1.5t-19.5 -6.5t-12.5 -14.5t-4.5 -26.5v-372q0 -17 4.5 -26.5t12.5 -15t19.5 -7t25.5 -1.5h17v-43h-239v43q27 0 43.5 8t19.5 36v361l-183 -448h-57 l-183 449v-356q0 -33 16.5 -41.5t48.5 -8.5v-43h-196z" />
<glyph unicode="&#x25fc;" horiz-adv-x="869" d="M0 0v869h869v-869h-869z" />
<glyph unicode="&#xfb01;" horiz-adv-x="1072" d="M43 0v68h22q27 0 51.5 4t42 16t28.5 35t11 61v607h-148v76h148v49q0 75 22.5 137t70.5 106.5t120.5 69.5t172.5 25q151 0 226.5 -37t75.5 -98q0 -23 -10.5 -43t-30 -33.5t-46 -21.5t-60.5 -8q0 24 -8.5 53t-29 54.5t-55.5 42t-89 16.5q-62 0 -102.5 -22.5t-64 -59 t-32.5 -84.5t-9 -99v-47h549v-683q0 -38 10.5 -61t28.5 -35t42 -16t52 -4h20v-68h-443v68h5q27 0 51 3.5t42 14.5t29 33t11 57v615h-397v-607q0 -38 11 -61t28.5 -35t42 -16t51.5 -4h29v-68h-468z" />
<glyph unicode="&#xfb02;" horiz-adv-x="1088" d="M43 0v68h22q27 0 51.5 4t42 16t28.5 35t11 61v607h-148v76h148v49q0 75 22.5 135.5t70.5 103.5t120.5 67t172.5 24q20 0 42 -2t43 -4.5t38.5 -5t27.5 -5.5h162v-1045q0 -38 10 -61t28.5 -35t42.5 -16t51 -4h21v-68h-443v68h4q28 0 52 4t42 16t28.5 35t10.5 61v822 q0 34 -10.5 64t-33 53t-58 36t-85.5 13q-62 0 -102.5 -21t-64 -56.5t-32.5 -82.5t-9 -98v-47h248v-76h-248v-607q0 -38 11 -61t28.5 -35t42 -16t51.5 -4h29v-68h-468z" />
<glyph unicode="&#xfb03;" horiz-adv-x="1621" d="M43 0v68h22q27 0 51.5 4t42 16t28.5 35t11 61v607h-148v76h148v19q0 169 78.5 256t220.5 87q58 0 98.5 -8t66 -23t37 -36t11.5 -46q0 -22 -10 -39t-27.5 -28.5t-41.5 -17.5t-54 -6q0 25 -5 48.5t-17 41.5t-32.5 29t-51.5 11q-35 0 -58.5 -18t-37.5 -50t-20 -77t-6 -101 v-42h397v13q0 88 23 157.5t70.5 117.5t120.5 73.5t173 25.5q150 0 226 -37t76 -98q0 -23 -10.5 -43t-30 -33.5t-46.5 -21.5t-60 -8q0 24 -9 53t-29.5 54.5t-56 42t-88.5 16.5q-62 0 -102.5 -22.5t-63.5 -63t-32 -95t-9 -118.5v-13h548v-683q0 -38 11 -61t28.5 -35t42 -16 t51.5 -4h21v-68h-443v68h4q27 0 51 3.5t42.5 14.5t29 33t10.5 57v615h-396v-607q0 -38 10.5 -61t28.5 -35t42 -16t52 -4h28v-68h-467v68h21q27 0 51.5 4t42 16t28.5 35t11 61v607h-397v-607q0 -38 11 -61t28.5 -35t41.5 -16t52 -4h29v-68h-468z" />
<glyph unicode="&#xfb04;" horiz-adv-x="1619" d="M43 0v68h22q27 0 51.5 4t42 16t28.5 35t11 61v607h-148v76h148v19q0 169 78.5 256t220.5 87q58 0 98.5 -8t66 -23t37 -36t11.5 -46q0 -22 -10 -39t-27.5 -28.5t-41.5 -17.5t-54 -6q0 25 -5 48.5t-17 41.5t-32.5 29t-51.5 11q-35 0 -58.5 -18t-37.5 -50t-20 -77t-6 -101 v-42h397v19q0 86 23 153t70.5 113t120.5 70t173 24q19 0 41.5 -2t43 -4.5t38 -5t27.5 -5.5h162v-1045q0 -38 10.5 -61t28.5 -35t42 -16t52 -4h20v-68h-443v68h5q27 0 51.5 4t42.5 16t28 35t10 61v822q0 34 -10 64t-32.5 53t-58 36t-86.5 13q-62 0 -102.5 -21.5t-63.5 -59.5 t-32 -89.5t-9 -110.5v-24h248v-76h-248v-607q0 -38 10.5 -61t28.5 -35t42 -16t52 -4h28v-68h-467v68h21q27 0 51.5 4t42 16t28.5 35t11 61v607h-397v-607q0 -38 11 -61t28.5 -35t41.5 -16t52 -4h29v-68h-468z" />
</font>
</defs>
</svg>
